<svg width="49" height="35" viewBox="0 0 49 35" fill="none" xmlns="http://www.w3.org/2000/svg">
<path d="M6.97911 32.7695L6.42838 33.6042L6.4314 33.6062L6.97911 32.7695ZM2.20106 26.9048L1.2849 27.3056L1.28552 27.3071L2.20106 26.9048ZM0.539124 17.6843L-0.460872 17.6813L0.539124 17.6843ZM2.21704 8.54368L1.30338 8.13718L1.30258 8.13898L2.21704 8.54368ZM6.97911 2.80682L7.51655 3.65012L7.51767 3.64941L6.97911 2.80682ZM21.7447 2.80682L21.2062 3.64942L21.2112 3.65262L21.7447 2.80682ZM26.5388 8.54368L27.4524 8.13718V8.13718L26.5388 8.54368ZM28.2007 17.6843L27.2007 17.6813V17.6843H28.2007ZM26.5228 26.9208L25.6066 26.52L26.5228 26.9208ZM21.7447 32.7855L22.2914 33.6229L22.2924 33.6222L21.7447 32.7855ZM18.5008 25.7223L19.3555 26.2414L19.3569 26.2391L18.5008 25.7223ZM20.0668 17.6843H19.0668L19.0668 17.6873L20.0668 17.6843ZM19.3477 11.8356L18.3927 12.132L18.3932 12.1339L19.3477 11.8356ZM17.3502 8.38388L18.014 7.63595V7.63595L17.3502 8.38388ZM10.255 9.82209L11.1078 10.3444L11.1092 10.342L10.255 9.82209ZM8.673 17.6843L9.67299 17.6887L9.673 17.6873L8.673 17.6843ZM9.36015 23.6449L8.40159 23.9299L8.40339 23.9358L9.36015 23.6449ZM11.3736 27.1765L10.7042 27.9193L10.7093 27.9239L11.3736 27.1765ZM14.3619 33.799C11.6703 33.799 9.40662 33.1635 7.52682 31.9329L6.4314 33.6062C8.68513 35.0816 11.3433 35.799 14.3619 35.799V33.799ZM7.52983 31.9348C5.64305 30.69 4.16761 28.8949 3.1166 26.5026L1.28552 27.3071C2.47172 30.0071 4.18165 32.1218 6.42839 33.6042L7.52983 31.9348ZM3.11721 26.504C2.06781 24.1054 1.52876 21.1767 1.53912 17.6873L-0.460872 17.6813C-0.471824 21.3723 0.0970821 24.5906 1.2849 27.3056L3.11721 26.504ZM1.53912 17.6873C1.54948 14.1944 2.09407 11.2925 3.13149 8.94837L1.30258 8.13898C0.124095 10.8019 -0.449929 13.9938 -0.460872 17.6813L1.53912 17.6873ZM3.13069 8.95017C4.1801 6.59151 5.64672 4.84177 7.51655 3.65012L6.44167 1.96352C4.19929 3.3926 2.49119 5.46744 1.30338 8.13718L3.13069 8.95017ZM7.51767 3.64941C9.39868 2.44711 11.6657 1.82528 14.3619 1.82528V-0.174717C11.3479 -0.174717 8.69307 0.524477 6.44055 1.96423L7.51767 3.64941ZM14.3619 1.82528C17.0581 1.82528 19.3252 2.44711 21.2062 3.64941L22.2833 1.96423C20.0308 0.524477 17.376 -0.174717 14.3619 -0.174717V1.82528ZM21.2112 3.65262C23.1015 4.84495 24.5769 6.59424 25.6251 8.95017L27.4524 8.13718C26.2634 5.46471 24.5428 3.38942 22.2782 1.96102L21.2112 3.65262ZM25.6251 8.95017C26.6719 11.3029 27.2111 14.2022 27.2007 17.6813L29.2007 17.6873C29.2116 14.0073 28.6429 10.8128 27.4524 8.13718L25.6251 8.95017ZM27.2007 17.6843C27.2007 21.1856 26.6564 24.1205 25.6066 26.52L27.4389 27.3216C28.6264 24.6074 29.2007 21.3847 29.2007 17.6843H27.2007ZM25.6066 26.52C24.5555 28.9226 23.0808 30.7157 21.197 31.9488L22.2924 33.6222C24.5422 32.1494 26.2529 30.0326 27.4389 27.3216L25.6066 26.52ZM21.1981 31.9482C19.3302 33.1676 17.0667 33.799 14.3619 33.799V35.799C17.3887 35.799 20.047 35.0881 22.2914 33.6229L21.1981 31.9482ZM14.3619 29.3271C16.4878 29.3271 18.1602 28.2093 19.3555 26.2414L17.6461 25.2032C16.7319 26.7083 15.6451 27.3271 14.3619 27.3271V29.3271ZM19.3569 26.2391C20.554 24.2559 21.0777 21.3537 21.0668 17.6814L19.0668 17.6873C19.0773 21.2379 18.5569 23.6944 17.6447 25.2055L19.3569 26.2391ZM21.0668 17.6843C21.0668 15.2611 20.8224 13.2018 20.3022 11.5373L18.3932 12.1339C18.8319 13.5375 19.0668 15.3774 19.0668 17.6843H21.0668ZM20.3028 11.5392C19.7908 9.88955 19.0484 8.55399 18.014 7.63595L16.6864 9.1318C17.3566 9.72655 17.9458 10.6921 18.3927 12.132L20.3028 11.5392ZM18.014 7.63595C16.9787 6.7171 15.7464 6.24929 14.3619 6.24929V8.24929C15.2573 8.24929 16.0172 8.53787 16.6864 9.1318L18.014 7.63595ZM14.3619 6.24929C12.2493 6.24929 10.5868 7.35369 9.40084 9.30214L11.1092 10.342C12.0113 8.86009 13.0868 8.24929 14.3619 8.24929V6.24929ZM9.40228 9.29978C8.21413 11.2396 7.68384 14.0835 7.67301 17.6813L9.673 17.6873C9.68347 14.2113 10.2079 11.8137 11.1078 10.3444L9.40228 9.29978ZM7.67301 17.6799C7.6621 20.1344 7.89536 22.227 8.40161 23.9299L10.3187 23.3599C9.88743 21.9093 9.66259 20.0283 9.67299 17.6887L7.67301 17.6799ZM8.40339 23.9358C8.91468 25.6173 9.66106 26.9792 10.7042 27.9193L12.0431 26.4337C11.3604 25.8183 10.7644 24.8258 10.3169 23.354L8.40339 23.9358ZM10.7093 27.9239C11.7507 28.8496 12.9818 29.3271 14.3619 29.3271V27.3271C13.4835 27.3271 12.7224 27.0374 12.038 26.4291L10.7093 27.9239ZM48.7642 1.27273H49.7642V0.272726H48.7642V1.27273ZM48.7642 34V35H49.7642V34H48.7642ZM40.8701 34H39.8701V35H40.8701V34ZM40.8701 8.65554H41.8701V7.65554H40.8701V8.65554ZM40.6783 8.65554V7.65554H40.3968L40.1567 7.80235L40.6783 8.65554ZM33.3594 13.13H32.3594V14.9134L33.881 13.9832L33.3594 13.13ZM33.3594 6.29048L32.8314 5.44126L32.3594 5.73472V6.29048H33.3594ZM41.4294 1.27273V0.272726H41.1438L40.9013 0.423502L41.4294 1.27273ZM47.7642 1.27273V34H49.7642V1.27273H47.7642ZM48.7642 33H40.8701V35H48.7642V33ZM41.8701 34V8.65554H39.8701V34H41.8701ZM40.8701 7.65554H40.6783V9.65554H40.8701V7.65554ZM40.1567 7.80235L32.8378 12.2768L33.881 13.9832L41.1999 9.50873L40.1567 7.80235ZM34.3594 13.13V6.29048H32.3594V13.13H34.3594ZM33.8874 7.13971L41.9574 2.12195L40.9013 0.423502L32.8314 5.44126L33.8874 7.13971ZM41.4294 2.27273H48.7642V0.272726H41.4294V2.27273Z" fill="#D8D8D8"/>
</svg>
