<svg width="61" height="35" viewBox="0 0 61 35" fill="none" xmlns="http://www.w3.org/2000/svg">
<path d="M6.6505 32.7695L6.09977 33.6042L6.10278 33.6062L6.6505 32.7695ZM1.87244 26.9048L0.956284 27.3056L0.956902 27.3071L1.87244 26.9048ZM0.21051 17.6843L-0.789485 17.6813L0.21051 17.6843ZM1.88842 8.54368L0.974769 8.13718L0.97397 8.13898L1.88842 8.54368ZM6.6505 2.80682L7.18794 3.65012L7.18906 3.64941L6.6505 2.80682ZM21.4161 2.80682L20.8776 3.64942L20.8826 3.65262L21.4161 2.80682ZM26.2102 8.54368L27.1238 8.13718V8.13718L26.2102 8.54368ZM27.8721 17.6843L26.8721 17.6813V17.6843H27.8721ZM26.1942 26.9208L25.278 26.52L26.1942 26.9208ZM21.4161 32.7855L21.9628 33.6229L21.9638 33.6222L21.4161 32.7855ZM18.1722 25.7223L19.0269 26.2414L19.0283 26.2391L18.1722 25.7223ZM19.7382 17.6843H18.7382L18.7382 17.6873L19.7382 17.6843ZM19.0191 11.8356L18.064 12.132L18.0646 12.1339L19.0191 11.8356ZM17.0216 8.38388L17.6854 7.63595V7.63595L17.0216 8.38388ZM9.92642 9.82209L10.7792 10.3444L10.7806 10.342L9.92642 9.82209ZM8.34439 17.6843L9.34438 17.6887L9.34438 17.6873L8.34439 17.6843ZM9.03153 23.6449L8.07298 23.9299L8.07478 23.9358L9.03153 23.6449ZM11.045 27.1765L10.3755 27.9193L10.3807 27.9239L11.045 27.1765ZM14.0333 33.799C11.3417 33.799 9.078 33.1635 7.19821 31.9329L6.10278 33.6062C8.35651 35.0816 11.0147 35.799 14.0333 35.799V33.799ZM7.20122 31.9348C5.31443 30.69 3.83899 28.8949 2.78798 26.5026L0.956902 27.3071C2.14311 30.0071 3.85304 32.1218 6.09977 33.6042L7.20122 31.9348ZM2.7886 26.504C1.7392 24.1054 1.20015 21.1767 1.21051 17.6873L-0.789485 17.6813C-0.800437 21.3723 -0.231531 24.5906 0.956285 27.3056L2.7886 26.504ZM1.21051 17.6873C1.22087 14.1944 1.76545 11.2925 2.80288 8.94837L0.97397 8.13898C-0.204518 10.8019 -0.778543 13.9938 -0.789485 17.6813L1.21051 17.6873ZM2.80207 8.95017C3.85148 6.59151 5.31811 4.84177 7.18794 3.65012L6.11306 1.96352C3.87067 3.3926 2.16258 5.46744 0.974771 8.13718L2.80207 8.95017ZM7.18906 3.64941C9.07006 2.44711 11.3371 1.82528 14.0333 1.82528V-0.174717C11.0193 -0.174717 8.36445 0.524477 6.11194 1.96423L7.18906 3.64941ZM14.0333 1.82528C16.7295 1.82528 18.9966 2.44711 20.8776 3.64941L21.9547 1.96423C19.7022 0.524477 17.0474 -0.174717 14.0333 -0.174717V1.82528ZM20.8826 3.65262C22.7729 4.84495 24.2483 6.59424 25.2965 8.95017L27.1238 8.13718C25.9348 5.46471 24.2142 3.38942 21.9496 1.96102L20.8826 3.65262ZM25.2965 8.95017C26.3433 11.3029 26.8824 14.2022 26.8721 17.6813L28.8721 17.6873C28.883 14.0073 28.3142 10.8128 27.1238 8.13718L25.2965 8.95017ZM26.8721 17.6843C26.8721 21.1856 26.3278 24.1205 25.278 26.52L27.1103 27.3216C28.2978 24.6074 28.8721 21.3847 28.8721 17.6843H26.8721ZM25.278 26.52C24.2269 28.9226 22.7522 30.7157 20.8684 31.9488L21.9638 33.6222C24.2136 32.1494 25.9243 30.0326 27.1103 27.3216L25.278 26.52ZM20.8695 31.9482C19.0016 33.1676 16.7381 33.799 14.0333 33.799V35.799C17.0601 35.799 19.7184 35.0881 21.9628 33.6229L20.8695 31.9482ZM14.0333 29.3271C16.1592 29.3271 17.8316 28.2093 19.0269 26.2414L17.3175 25.2032C16.4033 26.7083 15.3165 27.3271 14.0333 27.3271V29.3271ZM19.0283 26.2391C20.2254 24.2559 20.749 21.3537 20.7382 17.6814L18.7382 17.6873C18.7487 21.2379 18.2283 23.6944 17.316 25.2055L19.0283 26.2391ZM20.7382 17.6843C20.7382 15.2611 20.4938 13.2018 19.9736 11.5373L18.0646 12.1339C18.5033 13.5375 18.7382 15.3774 18.7382 17.6843H20.7382ZM19.9742 11.5392C19.4622 9.88955 18.7198 8.55399 17.6854 7.63595L16.3578 9.1318C17.0279 9.72655 17.6172 10.6921 18.064 12.132L19.9742 11.5392ZM17.6854 7.63595C16.6501 6.7171 15.4178 6.24929 14.0333 6.24929V8.24929C14.9287 8.24929 15.6886 8.53787 16.3578 9.1318L17.6854 7.63595ZM14.0333 6.24929C11.9207 6.24929 10.2582 7.35369 9.07222 9.30214L10.7806 10.342C11.6827 8.86009 12.7582 8.24929 14.0333 8.24929V6.24929ZM9.07367 9.29978C7.88551 11.2396 7.35523 14.0835 7.34439 17.6813L9.34438 17.6873C9.35485 14.2113 9.87926 11.8137 10.7792 10.3444L9.07367 9.29978ZM7.3444 17.6799C7.33349 20.1344 7.56675 22.227 8.073 23.9299L9.99007 23.3599C9.55882 21.9093 9.33398 20.0283 9.34438 17.6887L7.3444 17.6799ZM8.07478 23.9358C8.58606 25.6173 9.33245 26.9792 10.3756 27.9193L11.7145 26.4337C11.0318 25.8183 10.4358 24.8258 9.98829 23.354L8.07478 23.9358ZM10.3807 27.9239C11.4221 28.8496 12.6532 29.3271 14.0333 29.3271V27.3271C13.1549 27.3271 12.3938 27.0374 11.7094 26.4291L10.3807 27.9239ZM32.9029 28.5668H31.9029V29.5668H32.9029V28.5668ZM32.9029 22.3984L32.0586 21.8626L31.9029 22.1079V22.3984H32.9029ZM46.3103 1.27273V0.272726H45.7605L45.4659 0.736884L46.3103 1.27273ZM51.7914 1.27273H52.7914V0.272726H51.7914V1.27273ZM51.7914 9.64631V10.6463H52.7914V9.64631H51.7914ZM48.6114 9.64631V8.64631H48.06L47.7657 9.1126L48.6114 9.64631ZM40.7652 22.0788L39.9195 21.5451L39.7652 21.7897V22.0788H40.7652ZM40.7652 22.3345H39.7652V23.3345H40.7652V22.3345ZM60.181 22.3345H61.181V21.3345H60.181V22.3345ZM60.181 28.5668V29.5668H61.181V28.5668H60.181ZM48.7073 34H47.7073V35H48.7073V34ZM48.7073 26.6811L47.709 26.622L47.7073 26.6515V26.6811H48.7073ZM48.8671 23.9805L49.8653 24.0395L49.8671 24.01V23.9805H48.8671ZM48.8671 1.27273V0.272726H47.8671V1.27273H48.8671ZM56.2659 1.27273H57.2659V0.272726H56.2659V1.27273ZM56.2659 34V35H57.2659V34H56.2659ZM33.9029 28.5668V22.3984H31.9029V28.5668H33.9029ZM33.7473 22.9343L47.1546 1.80857L45.4659 0.736884L32.0586 21.8626L33.7473 22.9343ZM46.3103 2.27273H51.7914V0.272726H46.3103V2.27273ZM50.7914 1.27273V9.64631H52.7914V1.27273H50.7914ZM51.7914 8.64631H48.6114V10.6463H51.7914V8.64631ZM47.7657 9.1126L39.9195 21.5451L41.6108 22.6125L49.4571 10.18L47.7657 9.1126ZM39.7652 22.0788V22.3345H41.7652V22.0788H39.7652ZM40.7652 23.3345H60.181V21.3345H40.7652V23.3345ZM59.181 22.3345V28.5668H61.181V22.3345H59.181ZM60.181 27.5668H32.9029V29.5668H60.181V27.5668ZM49.7073 34V26.6811H47.7073V34H49.7073ZM49.7055 26.7402L49.8653 24.0395L47.8688 23.9214L47.709 26.622L49.7055 26.7402ZM49.8671 23.9805V1.27273H47.8671V23.9805H49.8671ZM48.8671 2.27273H56.2659V0.272726H48.8671V2.27273ZM55.2659 1.27273V34H57.2659V1.27273H55.2659ZM56.2659 33H48.7073V35H56.2659V33Z" fill="#D8D8D8"/>
</svg>
