<svg width="60" height="35" viewBox="0 0 60 35" fill="none" xmlns="http://www.w3.org/2000/svg">
<path d="M7.37559 32.7695L6.82487 33.6042L6.82788 33.6062L7.37559 32.7695ZM2.59754 26.9048L1.68138 27.3056L1.682 27.3071L2.59754 26.9048ZM0.935608 17.6843L-0.0643873 17.6813L0.935608 17.6843ZM2.61352 8.54368L1.69987 8.13718L1.69907 8.13898L2.61352 8.54368ZM7.37559 2.80682L7.91304 3.65012L7.91416 3.64941L7.37559 2.80682ZM22.1412 2.80682L21.6026 3.64942L21.6077 3.65262L22.1412 2.80682ZM26.9353 8.54368L27.8489 8.13718V8.13718L26.9353 8.54368ZM28.5972 17.6843L27.5972 17.6813V17.6843H28.5972ZM26.9193 26.9208L26.0031 26.52L26.9193 26.9208ZM22.1412 32.7855L22.6879 33.6229L22.6889 33.6222L22.1412 32.7855ZM18.8973 25.7223L19.752 26.2414L19.7534 26.2391L18.8973 25.7223ZM20.4633 17.6843H19.4633L19.4633 17.6873L20.4633 17.6843ZM19.7442 11.8356L18.7891 12.132L18.7897 12.1339L19.7442 11.8356ZM17.7467 8.38388L18.4105 7.63595V7.63595L17.7467 8.38388ZM10.6515 9.82209L11.5043 10.3444L11.5057 10.342L10.6515 9.82209ZM9.06949 17.6843L10.0695 17.6887L10.0695 17.6873L9.06949 17.6843ZM9.75663 23.6449L8.79808 23.9299L8.79988 23.9358L9.75663 23.6449ZM11.7701 27.1765L11.1006 27.9193L11.1058 27.9239L11.7701 27.1765ZM14.7584 33.799C12.0668 33.799 9.8031 33.1635 7.92331 31.9329L6.82788 33.6062C9.08161 35.0816 11.7398 35.799 14.7584 35.799V33.799ZM7.92632 31.9348C6.03953 30.69 4.56409 28.8949 3.51308 26.5026L1.682 27.3071C2.8682 30.0071 4.57814 32.1218 6.82487 33.6042L7.92632 31.9348ZM3.5137 26.504C2.4643 24.1054 1.92525 21.1767 1.9356 17.6873L-0.0643873 17.6813C-0.0753397 21.3723 0.493567 24.5906 1.68138 27.3056L3.5137 26.504ZM1.9356 17.6873C1.94597 14.1944 2.49055 11.2925 3.52797 8.94837L1.69907 8.13898C0.52058 10.8019 -0.0534451 13.9938 -0.0643873 17.6813L1.9356 17.6873ZM3.52717 8.95017C4.57658 6.59151 6.0432 4.84177 7.91304 3.65012L6.83815 1.96352C4.59577 3.3926 2.88768 5.46744 1.69987 8.13718L3.52717 8.95017ZM7.91416 3.64941C9.79516 2.44711 12.0622 1.82528 14.7584 1.82528V-0.174717C11.7444 -0.174717 9.08955 0.524477 6.83703 1.96423L7.91416 3.64941ZM14.7584 1.82528C17.4546 1.82528 19.7217 2.44711 21.6027 3.64941L22.6798 1.96423C20.4273 0.524477 17.7725 -0.174717 14.7584 -0.174717V1.82528ZM21.6077 3.65262C23.498 4.84495 24.9734 6.59424 26.0216 8.95017L27.8489 8.13718C26.6599 5.46471 24.9393 3.38942 22.6747 1.96102L21.6077 3.65262ZM26.0216 8.95017C27.0684 11.3029 27.6075 14.2022 27.5972 17.6813L29.5972 17.6873C29.6081 14.0073 29.0393 10.8128 27.8489 8.13718L26.0216 8.95017ZM27.5972 17.6843C27.5972 21.1856 27.0529 24.1205 26.0031 26.52L27.8354 27.3216C29.0229 24.6074 29.5972 21.3847 29.5972 17.6843H27.5972ZM26.0031 26.52C24.952 28.9226 23.4773 30.7157 21.5935 31.9488L22.6889 33.6222C24.9387 32.1494 26.6494 30.0326 27.8354 27.3216L26.0031 26.52ZM21.5946 31.9482C19.7267 33.1676 17.4632 33.799 14.7584 33.799V35.799C17.7852 35.799 20.4435 35.0881 22.6879 33.6229L21.5946 31.9482ZM14.7584 29.3271C16.8843 29.3271 18.5567 28.2093 19.752 26.2414L18.0426 25.2032C17.1284 26.7083 16.0416 27.3271 14.7584 27.3271V29.3271ZM19.7534 26.2391C20.9505 24.2559 21.4741 21.3537 21.4633 17.6814L19.4633 17.6873C19.4738 21.2379 18.9534 23.6944 18.0411 25.2055L19.7534 26.2391ZM21.4633 17.6843C21.4633 15.2611 21.2188 13.2018 20.6987 11.5373L18.7897 12.1339C19.2284 13.5375 19.4633 15.3774 19.4633 17.6843H21.4633ZM20.6993 11.5392C20.1873 9.88955 19.4449 8.55399 18.4105 7.63595L17.0829 9.1318C17.753 9.72655 18.3423 10.6921 18.7891 12.132L20.6993 11.5392ZM18.4105 7.63595C17.3752 6.7171 16.1429 6.24929 14.7584 6.24929V8.24929C15.6538 8.24929 16.4137 8.53787 17.0829 9.1318L18.4105 7.63595ZM14.7584 6.24929C12.6458 6.24929 10.9833 7.35369 9.79732 9.30214L11.5057 10.342C12.4078 8.86009 13.4833 8.24929 14.7584 8.24929V6.24929ZM9.79876 9.29978C8.61061 11.2396 8.08033 14.0835 8.06949 17.6813L10.0695 17.6873C10.08 14.2113 10.6044 11.8137 11.5043 10.3444L9.79876 9.29978ZM8.0695 17.6799C8.05859 20.1344 8.29185 22.227 8.79809 23.9299L10.7152 23.3599C10.2839 21.9093 10.0591 20.0283 10.0695 17.6887L8.0695 17.6799ZM8.79988 23.9358C9.31116 25.6173 10.0575 26.9792 11.1007 27.9193L12.4396 26.4337C11.7569 25.8183 11.1609 24.8258 10.7134 23.354L8.79988 23.9358ZM11.1058 27.9239C12.1472 28.8496 13.3783 29.3271 14.7584 29.3271V27.3271C13.88 27.3271 13.1189 27.0374 12.4345 26.4291L11.1058 27.9239ZM40.1959 33.1531L39.7738 34.0596L40.1959 33.1531ZM35.8013 29.5895L34.9837 30.1653L34.9864 30.1691L35.8013 29.5895ZM34.1394 24.38V23.38H33.1174L33.1396 24.4017L34.1394 24.38ZM41.8099 24.38L42.8085 24.3269L42.7582 23.38H41.8099V24.38ZM43.28 27.2884L42.6542 28.0684L42.6598 28.0728L43.28 27.2884ZM49.1927 27.7198L48.6978 26.8508L49.1927 27.7198ZM50.9984 25.8821L51.8732 26.3667L51.8759 26.3618L50.9984 25.8821ZM51.6376 23.1335L50.6377 23.1234L50.6376 23.1336L50.6377 23.1438L51.6376 23.1335ZM50.9824 20.369L50.1077 20.8536L50.1128 20.8626L50.9824 20.369ZM49.1607 18.5312L48.6568 19.395L48.6639 19.3991L48.671 19.4031L49.1607 18.5312ZM46.508 17.8601L46.4968 18.8601H46.508V17.8601ZM43.8074 18.4833L43.3602 17.5889L43.3557 17.5912L43.8074 18.4833ZM41.8898 20.2251L41.7053 21.208L42.3924 21.3369L42.7495 20.736L41.8898 20.2251ZM34.9065 18.9148L33.9097 18.8344L33.8374 19.7316L34.722 19.8976L34.9065 18.9148ZM36.3287 1.27273V0.272726H35.4061L35.3319 1.19237L36.3287 1.27273ZM57.3266 1.27273H58.3266V0.272726H57.3266V1.27273ZM57.3266 7.64879V8.64879H58.3266V7.64879H57.3266ZM42.8326 7.64879V6.64879H41.9252L41.8373 7.55194L42.8326 7.64879ZM42.0815 15.3672L41.0862 15.2703L40.9795 16.3672H42.0815V15.3672ZM42.2733 15.3672V16.3672H42.8395L43.1308 15.8817L42.2733 15.3672ZM44.894 13.13L45.3317 14.0291L45.3349 14.0275L44.894 13.13ZM54.2744 13.6094L53.7616 14.4679L53.7686 14.4721L54.2744 13.6094ZM57.9178 17.3807L57.0415 17.8624L57.0439 17.8668L57.9178 17.3807ZM57.6621 28.8864L56.8098 28.3634L56.8074 28.3672L57.6621 28.8864ZM53.2197 32.9773L53.6788 33.8656L53.6807 33.8647L53.2197 32.9773ZM46.556 33.4474C44.2912 33.4474 42.3191 33.0384 40.6179 32.2465L39.7738 34.0596C41.78 34.9936 44.048 35.4474 46.556 35.4474V33.4474ZM40.6179 32.2465C38.9049 31.4491 37.5819 30.3675 36.6162 29.0099L34.9864 30.1691C36.1728 31.8371 37.7794 33.1312 39.7738 34.0596L40.6179 32.2465ZM36.6189 29.0137C35.675 27.6733 35.1777 26.1323 35.1392 24.3582L33.1396 24.4017C33.1863 26.5481 33.797 28.4801 34.9837 30.1653L36.6189 29.0137ZM34.1394 25.38H41.8099V23.38H34.1394V25.38ZM40.8113 24.433C40.8898 25.9126 41.5094 27.1498 42.6542 28.0683L43.9058 26.5084C43.2183 25.9568 42.8577 25.255 42.8085 24.3269L40.8113 24.433ZM42.6598 28.0728C43.768 28.949 45.0836 29.375 46.556 29.375V27.375C45.4928 27.375 44.6244 27.0765 43.9003 26.5039L42.6598 28.0728ZM46.556 29.375C47.6986 29.375 48.7519 29.1216 49.6875 28.5888L48.6978 26.8508C48.0994 27.1916 47.3949 27.375 46.556 27.375V29.375ZM49.6875 28.5888C50.6176 28.0592 51.3494 27.3121 51.8731 26.3667L50.1237 25.3975C49.7739 26.0288 49.3019 26.5069 48.6978 26.8508L49.6875 28.5888ZM51.8759 26.3618C52.4053 25.3933 52.6498 24.3043 52.6376 23.1232L50.6377 23.1438C50.6468 24.0295 50.4651 24.7729 50.121 25.4024L51.8759 26.3618ZM52.6376 23.1436C52.6497 21.9417 52.4 20.8407 51.8521 19.8754L50.1128 20.8626C50.4597 21.4739 50.6469 22.216 50.6377 23.1234L52.6376 23.1436ZM51.8572 19.8843C51.3314 18.9355 50.5917 18.188 49.6504 17.6594L48.671 19.4031C49.2852 19.7481 49.7599 20.2258 50.1077 20.8536L51.8572 19.8843ZM49.6646 17.6675C48.7258 17.1199 47.6634 16.8601 46.508 16.8601V18.8601C47.3555 18.8601 48.0615 19.0478 48.6568 19.395L49.6646 17.6675ZM46.5193 16.8601C45.4113 16.8477 44.354 17.092 43.3602 17.5889L44.2546 19.3777C44.9653 19.0224 45.7085 18.8512 46.4968 18.86L46.5193 16.8601ZM43.3557 17.5912C42.3627 18.0939 41.5738 18.7993 41.0301 19.7143L42.7495 20.736C43.0793 20.1808 43.5688 19.725 44.2591 19.3755L43.3557 17.5912ZM42.0742 19.2423L35.0909 17.9319L34.722 19.8976L41.7053 21.208L42.0742 19.2423ZM35.9032 18.9951L37.3255 1.35308L35.3319 1.19237L33.9097 18.8344L35.9032 18.9951ZM36.3287 2.27273H57.3266V0.272726H36.3287V2.27273ZM56.3266 1.27273V7.64879H58.3266V1.27273H56.3266ZM57.3266 6.64879H42.8326V8.64879H57.3266V6.64879ZM41.8373 7.55194L41.0862 15.2703L43.0768 15.464L43.8279 7.74564L41.8373 7.55194ZM42.0815 16.3672H42.2733V14.3672H42.0815V16.3672ZM43.1308 15.8817C43.5508 15.1817 44.2557 14.5528 45.3317 14.0291L44.4564 12.2308C43.1247 12.879 42.0824 13.7416 41.4158 14.8527L43.1308 15.8817ZM45.3349 14.0275C46.394 13.5073 47.6193 13.2351 49.0329 13.2351V11.2351C47.357 11.2351 45.8231 11.5595 44.4531 12.2324L45.3349 14.0275ZM49.0329 13.2351C50.8306 13.2351 52.3973 13.6531 53.7616 14.4679L54.7871 12.7508C53.0832 11.7332 51.1556 11.2351 49.0329 11.2351V13.2351ZM53.7686 14.4721C55.1537 15.284 56.2419 16.4076 57.0415 17.8624L58.7942 16.899C57.8253 15.1364 56.4845 13.7458 54.7801 12.7467L53.7686 14.4721ZM57.0439 17.8668C57.8459 19.3085 58.2602 20.9803 58.2602 22.9098H60.2602C60.2602 20.6845 59.7795 18.6702 58.7917 16.8945L57.0439 17.8668ZM58.2602 22.9098C58.2602 24.9928 57.7688 26.8003 56.8098 28.3634L58.5145 29.4093C59.6862 27.4995 60.2602 25.3226 60.2602 22.9098H58.2602ZM56.8074 28.3672C55.8533 29.9381 54.5129 31.1784 52.7586 32.0899L53.6807 33.8647C55.7403 32.7946 57.3616 31.3076 58.5168 29.4055L56.8074 28.3672ZM52.7605 32.0889C51.0311 32.9828 48.973 33.4474 46.556 33.4474V35.4474C49.2313 35.4474 51.6157 34.932 53.6788 33.8656L52.7605 32.0889Z" fill="#D8D8D8"/>
</svg>
