<svg width="56" height="35" viewBox="0 0 56 35" fill="none" xmlns="http://www.w3.org/2000/svg">
<path d="M7.04552 32.7695L6.49479 33.6042L6.4978 33.6062L7.04552 32.7695ZM2.26746 26.9048L1.3513 27.3056L1.35192 27.3071L2.26746 26.9048ZM0.60553 17.6843L-0.394465 17.6813L0.60553 17.6843ZM2.28344 8.54368L1.36979 8.13718L1.36899 8.13898L2.28344 8.54368ZM7.04552 2.80682L7.58296 3.65012L7.58408 3.64941L7.04552 2.80682ZM21.8111 2.80682L21.2726 3.64942L21.2776 3.65262L21.8111 2.80682ZM26.6052 8.54368L27.5188 8.13718V8.13718L26.6052 8.54368ZM28.2671 17.6843L27.2671 17.6813V17.6843H28.2671ZM26.5892 26.9208L25.673 26.52L26.5892 26.9208ZM21.8111 32.7855L22.3578 33.6229L22.3589 33.6222L21.8111 32.7855ZM18.5672 25.7223L19.4219 26.2414L19.4233 26.2391L18.5672 25.7223ZM20.1332 17.6843H19.1332L19.1332 17.6873L20.1332 17.6843ZM19.4141 11.8356L18.4591 12.132L18.4596 12.1339L19.4141 11.8356ZM17.4166 8.38388L18.0804 7.63595V7.63595L17.4166 8.38388ZM10.3214 9.82209L11.1742 10.3444L11.1756 10.342L10.3214 9.82209ZM8.73941 17.6843L9.7394 17.6887L9.7394 17.6873L8.73941 17.6843ZM9.42655 23.6449L8.468 23.9299L8.4698 23.9358L9.42655 23.6449ZM11.44 27.1765L10.7706 27.9193L10.7757 27.9239L11.44 27.1765ZM14.4283 33.799C11.7367 33.799 9.47302 33.1635 7.59323 31.9329L6.4978 33.6062C8.75153 35.0816 11.4097 35.799 14.4283 35.799V33.799ZM7.59624 31.9348C5.70945 30.69 4.23401 28.8949 3.183 26.5026L1.35192 27.3071C2.53813 30.0071 4.24806 32.1218 6.49479 33.6042L7.59624 31.9348ZM3.18362 26.504C2.13422 24.1054 1.59517 21.1767 1.60553 17.6873L-0.394465 17.6813C-0.405418 21.3723 0.163488 24.5906 1.35131 27.3056L3.18362 26.504ZM1.60553 17.6873C1.61589 14.1944 2.16047 11.2925 3.19789 8.94837L1.36899 8.13898C0.190502 10.8019 -0.383523 13.9938 -0.394465 17.6813L1.60553 17.6873ZM3.19709 8.95017C4.2465 6.59151 5.71312 4.84177 7.58296 3.65012L6.50808 1.96352C4.26569 3.3926 2.5576 5.46744 1.36979 8.13718L3.19709 8.95017ZM7.58408 3.64941C9.46508 2.44711 11.7322 1.82528 14.4283 1.82528V-0.174717C11.4143 -0.174717 8.75947 0.524477 6.50696 1.96423L7.58408 3.64941ZM14.4283 1.82528C17.1245 1.82528 19.3916 2.44711 21.2726 3.64941L22.3497 1.96423C20.0972 0.524477 17.4424 -0.174717 14.4283 -0.174717V1.82528ZM21.2776 3.65262C23.1679 4.84495 24.6433 6.59424 25.6915 8.95017L27.5188 8.13718C26.3298 5.46471 24.6092 3.38942 22.3446 1.96102L21.2776 3.65262ZM25.6915 8.95017C26.7383 11.3029 27.2775 14.2022 27.2671 17.6813L29.2671 17.6873C29.2781 14.0073 28.7093 10.8128 27.5188 8.13718L25.6915 8.95017ZM27.2671 17.6843C27.2671 21.1856 26.7228 24.1205 25.673 26.52L27.5054 27.3216C28.6928 24.6074 29.2671 21.3847 29.2671 17.6843H27.2671ZM25.673 26.52C24.6219 28.9226 23.1472 30.7157 21.2634 31.9488L22.3589 33.6222C24.6086 32.1494 26.3193 30.0326 27.5054 27.3216L25.673 26.52ZM21.2645 31.9482C19.3966 33.1676 17.1331 33.799 14.4283 33.799V35.799C17.4551 35.799 20.1134 35.0881 22.3578 33.6229L21.2645 31.9482ZM14.4283 29.3271C16.5542 29.3271 18.2266 28.2093 19.4219 26.2414L17.7125 25.2032C16.7983 26.7083 15.7115 27.3271 14.4283 27.3271V29.3271ZM19.4233 26.2391C20.6204 24.2559 21.1441 21.3537 21.1332 17.6814L19.1332 17.6873C19.1437 21.2379 18.6233 23.6944 17.7111 25.2055L19.4233 26.2391ZM21.1332 17.6843C21.1332 15.2611 20.8888 13.2018 20.3686 11.5373L18.4596 12.1339C18.8983 13.5375 19.1332 15.3774 19.1332 17.6843H21.1332ZM20.3692 11.5392C19.8572 9.88955 19.1148 8.55399 18.0804 7.63595L16.7528 9.1318C17.423 9.72655 18.0122 10.6921 18.4591 12.132L20.3692 11.5392ZM18.0804 7.63595C17.0451 6.7171 15.8128 6.24929 14.4283 6.24929V8.24929C15.3237 8.24929 16.0836 8.53787 16.7528 9.1318L18.0804 7.63595ZM14.4283 6.24929C12.3157 6.24929 10.6533 7.35369 9.46724 9.30214L11.1756 10.342C12.0777 8.86009 13.1532 8.24929 14.4283 8.24929V6.24929ZM9.46869 9.29978C8.28053 11.2396 7.75025 14.0835 7.73941 17.6813L9.7394 17.6873C9.74987 14.2113 10.2743 11.8137 11.1742 10.3444L9.46869 9.29978ZM7.73942 17.6799C7.72851 20.1344 7.96177 22.227 8.46802 23.9299L10.3851 23.3599C9.95384 21.9093 9.729 20.0283 9.7394 17.6887L7.73942 17.6799ZM8.4698 23.9358C8.98108 25.6173 9.72747 26.9792 10.7706 27.9193L12.1095 26.4337C11.4268 25.8183 10.8308 24.8258 10.3833 23.354L8.4698 23.9358ZM10.7757 27.9239C11.8171 28.8496 13.0482 29.3271 14.4283 29.3271V27.3271C13.55 27.3271 12.7888 27.0374 12.1044 26.4291L10.7757 27.9239ZM34.2088 34L33.3162 33.5493L32.5837 35H34.2088V34ZM47.4084 7.85653L48.3011 8.30724L48.4084 8.09466V7.85653H47.4084ZM47.4084 7.64879H48.4084V6.64879H47.4084V7.64879ZM31.9716 7.64879H30.9716V8.64879H31.9716V7.64879ZM31.9716 1.27273V0.272726H30.9716V1.27273H31.9716ZM55.5902 1.27273H56.5902V0.272726H55.5902V1.27273ZM55.5902 7.69673L56.4833 8.14655L56.5902 7.93434V7.69673H55.5902ZM42.3427 34V35H42.9587L43.2358 34.4498L42.3427 34ZM35.1015 34.4507L48.3011 8.30724L46.5157 7.40583L33.3162 33.5493L35.1015 34.4507ZM48.4084 7.85653V7.64879H46.4084V7.85653H48.4084ZM47.4084 6.64879H31.9716V8.64879H47.4084V6.64879ZM32.9716 7.64879V1.27273H30.9716V7.64879H32.9716ZM31.9716 2.27273H55.5902V0.272726H31.9716V2.27273ZM54.5902 1.27273V7.69673H56.5902V1.27273H54.5902ZM54.6971 7.24692L41.4496 33.5502L43.2358 34.4498L56.4833 8.14655L54.6971 7.24692ZM42.3427 33H34.2088V35H42.3427V33Z" fill="#D8D8D8"/>
</svg>
