<svg width="52" height="35" viewBox="0 0 52 35" fill="none" xmlns="http://www.w3.org/2000/svg">
<path d="M15.9599 1.27273H16.9599V0.272726H15.9599V1.27273ZM15.9599 34V35H16.9599V34H15.9599ZM8.06576 34H7.06576V35H8.06576V34ZM8.06576 8.65554H9.06576V7.65554H8.06576V8.65554ZM7.874 8.65554V7.65554H7.59254L7.3524 7.80235L7.874 8.65554ZM0.555104 13.13H-0.444896V14.9134L1.0767 13.9832L0.555104 13.13ZM0.555104 6.29048L0.0270715 5.44126L-0.444896 5.73472V6.29048H0.555104ZM8.62506 1.27273V0.272726H8.33952L8.09703 0.423502L8.62506 1.27273ZM14.9599 1.27273V34H16.9599V1.27273H14.9599ZM15.9599 33H8.06576V35H15.9599V33ZM9.06576 34V8.65554H7.06576V34H9.06576ZM8.06576 7.65554H7.874V9.65554H8.06576V7.65554ZM7.3524 7.80235L0.0335035 12.2768L1.0767 13.9832L8.3956 9.50873L7.3524 7.80235ZM1.5551 13.13V6.29048H-0.444896V13.13H1.5551ZM1.08314 7.13971L9.15309 2.12195L8.09703 0.423502L0.0270715 5.44126L1.08314 7.13971ZM8.62506 2.27273H15.9599V0.272726H8.62506V2.27273ZM30.2473 32.7695L29.6965 33.6042L29.6996 33.6062L30.2473 32.7695ZM25.4692 26.9048L24.5531 27.3056L24.5537 27.3071L25.4692 26.9048ZM23.8073 17.6843L22.8073 17.6813L23.8073 17.6843ZM25.4852 8.54368L24.5715 8.13718L24.5707 8.13898L25.4852 8.54368ZM30.2473 2.80682L30.7847 3.65012L30.7858 3.64941L30.2473 2.80682ZM45.0129 2.80682L44.4743 3.64942L44.4794 3.65262L45.0129 2.80682ZM49.8069 8.54368L50.7206 8.13718V8.13718L49.8069 8.54368ZM51.4689 17.6843L50.4689 17.6813V17.6843H51.4689ZM49.791 26.9208L48.8748 26.52L49.791 26.9208ZM45.0129 32.7855L45.5596 33.6229L45.5606 33.6222L45.0129 32.7855ZM41.7689 25.7223L42.6236 26.2414L42.625 26.2391L41.7689 25.7223ZM43.335 17.6843H42.335L42.335 17.6873L43.335 17.6843ZM42.6159 11.8356L41.6608 12.132L41.6614 12.1339L42.6159 11.8356ZM40.6184 8.38388L41.2822 7.63595V7.63595L40.6184 8.38388ZM33.5232 9.82209L34.376 10.3444L34.3774 10.342L33.5232 9.82209ZM31.9412 17.6843L32.9412 17.6887L32.9412 17.6873L31.9412 17.6843ZM32.6283 23.6449L31.6698 23.9299L31.6716 23.9358L32.6283 23.6449ZM34.6418 27.1765L33.9723 27.9193L33.9774 27.9239L34.6418 27.1765ZM37.6301 33.799C34.9385 33.799 32.6748 33.1635 30.795 31.9329L29.6996 33.6062C31.9533 35.0816 34.6115 35.799 37.6301 35.799V33.799ZM30.798 31.9348C28.9112 30.69 27.4358 28.8949 26.3848 26.5026L24.5537 27.3071C25.7399 30.0071 27.4498 32.1218 29.6966 33.6042L30.798 31.9348ZM26.3854 26.504C25.336 24.1054 24.7969 21.1767 24.8073 17.6873L22.8073 17.6813C22.7963 21.3723 23.3652 24.5906 24.5531 27.3056L26.3854 26.504ZM24.8073 17.6873C24.8176 14.1944 25.3622 11.2925 26.3997 8.94837L24.5707 8.13898C23.3923 10.8019 22.8182 13.9938 22.8073 17.6813L24.8073 17.6873ZM26.3988 8.95017C27.4483 6.59151 28.9149 4.84177 30.7847 3.65012L29.7098 1.96352C27.4674 3.3926 25.7594 5.46744 24.5715 8.13718L26.3988 8.95017ZM30.7858 3.64941C32.6668 2.44711 34.9339 1.82528 37.6301 1.82528V-0.174717C34.616 -0.174717 31.9612 0.524477 29.7087 1.96423L30.7858 3.64941ZM37.6301 1.82528C40.3263 1.82528 42.5933 2.44711 44.4743 3.64941L45.5515 1.96423C43.2989 0.524477 40.6441 -0.174717 37.6301 -0.174717V1.82528ZM44.4794 3.65262C46.3697 4.84495 47.8451 6.59424 48.8933 8.95017L50.7206 8.13718C49.5316 5.46471 47.8109 3.38942 45.5464 1.96102L44.4794 3.65262ZM48.8933 8.95017C49.9401 11.3029 50.4792 14.2022 50.4689 17.6813L52.4689 17.6873C52.4798 14.0073 51.911 10.8128 50.7206 8.13718L48.8933 8.95017ZM50.4689 17.6843C50.4689 21.1856 49.9246 24.1205 48.8748 26.52L50.7071 27.3216C51.8946 24.6074 52.4689 21.3847 52.4689 17.6843H50.4689ZM48.8748 26.52C47.8236 28.9226 46.3489 30.7157 44.4652 31.9488L45.5606 33.6222C47.8104 32.1494 49.5211 30.0326 50.7071 27.3216L48.8748 26.52ZM44.4662 31.9482C42.5984 33.1676 40.3348 33.799 37.6301 33.799V35.799C40.6569 35.799 43.3152 35.0881 45.5596 33.6229L44.4662 31.9482ZM37.6301 29.3271C39.756 29.3271 41.4284 28.2093 42.6236 26.2414L40.9142 25.2032C40.0001 26.7083 38.9133 27.3271 37.6301 27.3271V29.3271ZM42.625 26.2391C43.8222 24.2559 44.3458 21.3537 44.335 17.6814L42.335 17.6873C42.3455 21.2379 41.825 23.6944 40.9128 25.2055L42.625 26.2391ZM44.335 17.6843C44.335 15.2611 44.0905 13.2018 43.5704 11.5373L41.6614 12.1339C42.1 13.5375 42.335 15.3774 42.335 17.6843H44.335ZM43.5709 11.5392C43.059 9.88955 42.3166 8.55399 41.2822 7.63595L39.9546 9.1318C40.6247 9.72655 41.214 10.6921 41.6608 12.132L43.5709 11.5392ZM41.2822 7.63595C40.2468 6.7171 39.0146 6.24929 37.6301 6.24929V8.24929C38.5254 8.24929 39.2854 8.53787 39.9546 9.1318L41.2822 7.63595ZM37.6301 6.24929C35.5174 6.24929 33.855 7.35369 32.669 9.30214L34.3774 10.342C35.2795 8.86009 36.3549 8.24929 37.6301 8.24929V6.24929ZM32.6704 9.29978C31.4823 11.2396 30.952 14.0835 30.9412 17.6813L32.9412 17.6873C32.9516 14.2113 33.476 11.8137 34.3759 10.3444L32.6704 9.29978ZM30.9412 17.6799C30.9303 20.1344 31.1635 22.227 31.6698 23.9299L33.5868 23.3599C33.1556 21.9093 32.9308 20.0283 32.9412 17.6887L30.9412 17.6799ZM31.6716 23.9358C32.1828 25.6173 32.9292 26.9792 33.9723 27.9193L35.3113 26.4337C34.6285 25.8183 34.0326 24.8258 33.5851 23.354L31.6716 23.9358ZM33.9774 27.9239C35.0189 28.8496 36.2499 29.3271 37.6301 29.3271V27.3271C36.7517 27.3271 35.9906 27.0374 35.3062 26.4291L33.9774 27.9239Z" fill="#D8D8D8"/>
</svg>
