<svg width="28" height="28" viewBox="0 0 28 28" fill="none" xmlns="http://www.w3.org/2000/svg">
<path fill-rule="evenodd" clip-rule="evenodd" d="M3.29067 3.12238C4.92533 1.40105 7.62934 1.72238 8.98134 3.63438L10.6613 6.01305C11.7427 7.54238 11.652 9.66638 10.3613 11.0264L10.0347 11.369C10.0337 11.3717 10.0329 11.3744 10.032 11.377C10.0147 11.425 9.972 11.5797 10.0147 11.873C10.104 12.4797 10.572 13.7144 12.476 15.7184C14.3853 17.729 15.5427 18.2024 16.08 18.2904C16.2095 18.3194 16.3441 18.3162 16.472 18.281L17.016 17.7077C18.1813 16.481 19.9973 16.2397 21.4627 17.0824L24.0093 18.549C26.1867 19.8024 26.6933 22.8677 24.9533 24.6997L23.06 26.6931C22.4693 27.3157 21.6627 27.8477 20.6667 27.9464C18.2347 28.1864 12.6013 27.873 6.696 21.6544C1.184 15.853 0.137335 10.8064 0.00533501 8.34105C-0.0599983 7.12238 0.482668 6.07838 1.19734 5.32505L3.29067 3.12238ZM7.348 4.78905C6.66534 3.82371 5.43734 3.76505 4.74 4.49971L2.64667 6.70238C2.20667 7.16905 1.97334 7.70238 2.00267 8.23438C2.10934 10.2477 2.97734 14.837 8.14534 20.277C13.564 25.9837 18.5573 26.1437 20.4707 25.9544C20.848 25.9184 21.2373 25.7077 21.6093 25.3157L23.5027 23.3224C24.3213 22.461 24.1067 20.9117 23.012 20.2824L20.4653 18.8157C19.7813 18.4224 18.98 18.5437 18.4667 19.085L17.8587 19.725L17.156 19.057C17.8587 19.7237 17.8587 19.725 17.8573 19.7264L17.856 19.7277L17.852 19.733L17.8427 19.741L17.824 19.7597C17.768 19.8147 17.7074 19.8647 17.6427 19.909C17.536 19.9837 17.3947 20.0677 17.2147 20.1384C16.8467 20.2837 16.3613 20.361 15.76 20.2637C14.5893 20.0744 13.056 19.233 11.0267 17.0957C8.98934 14.9517 8.20934 13.353 8.036 12.1624C7.94667 11.557 8.01734 11.073 8.148 10.7064C8.22053 10.502 8.32395 10.31 8.45467 10.137L8.49467 10.0877L8.51334 10.0677L8.52134 10.0584L8.52534 10.0544L8.528 10.053C8.528 10.053 8.528 10.0504 9.23867 10.7237L8.52934 10.0504L8.912 9.64771C9.50534 9.02238 9.592 7.96371 9.02934 7.16771L7.348 4.78905Z" fill="#539E83"/>
<path d="M14.68 1.5065C14.7228 1.24477 14.8678 1.01073 15.083 0.855749C15.2982 0.700767 15.5662 0.637501 15.828 0.679835C15.8613 0.686501 15.9707 0.706501 16.028 0.719834C16.1413 0.743834 16.3 0.783835 16.4973 0.839835C16.8933 0.955835 17.4467 1.1465 18.1107 1.4505C19.4387 2.05983 21.2053 3.12517 23.04 4.9585C24.8747 6.79317 25.94 8.56117 26.5493 9.88917C26.8533 10.5532 27.0427 11.1052 27.1587 11.5025C27.2171 11.7021 27.2674 11.9041 27.3093 12.1078L27.316 12.1492C27.3599 12.4132 27.2982 12.6839 27.1443 12.9029C26.9904 13.1219 26.7566 13.2717 26.4933 13.3198C26.2322 13.3622 25.965 13.2995 25.7501 13.1453C25.5352 12.9911 25.3901 12.7581 25.3467 12.4972C25.3194 12.3498 25.2833 12.2042 25.2387 12.0612C25.1024 11.6033 24.9331 11.1559 24.732 10.7225C24.212 9.58917 23.276 8.02384 21.6253 6.37317C19.976 4.7225 18.4093 3.78783 17.276 3.26783C16.8431 3.06679 16.3961 2.89746 15.9387 2.76117C15.7984 2.72159 15.657 2.68602 15.5147 2.6545C15.2525 2.61121 15.0179 2.46655 14.8615 2.25176C14.7051 2.03698 14.6394 1.76929 14.6787 1.5065H14.68Z" fill="#539E83"/>
<path fill-rule="evenodd" clip-rule="evenodd" d="M14.9813 6.10669C15.0173 5.98034 15.0778 5.86231 15.1594 5.75935C15.2409 5.65639 15.342 5.57051 15.4568 5.50661C15.5716 5.44272 15.6978 5.40207 15.8283 5.38699C15.9588 5.3719 16.091 5.38267 16.2173 5.41869L15.9427 6.38003L16.2187 5.42003H16.2213L16.2267 5.42136L16.236 5.42403L16.2627 5.43336C16.3678 5.46858 16.4715 5.50817 16.5733 5.55203C16.768 5.63469 17.0333 5.76269 17.36 5.95603C18.0133 6.34269 18.9027 6.98269 19.9493 8.03069C20.996 9.07736 21.6387 9.96803 22.024 10.62C22.2173 10.9467 22.3453 11.212 22.4293 11.4067C22.4732 11.5085 22.5128 11.6122 22.548 11.7174L22.556 11.744L22.5587 11.7547L22.56 11.7587V11.7614L21.6 12.0374L22.5613 11.7627C22.6359 12.0173 22.6064 12.2911 22.4791 12.5239C22.3518 12.7567 22.1373 12.9294 21.8827 13.004C21.6281 13.0786 21.3542 13.0491 21.1214 12.9218C20.8887 12.7945 20.7159 12.58 20.6413 12.3254L20.6373 12.312C20.5436 12.0798 20.4321 11.8552 20.304 11.64C20.0053 11.1374 19.4693 10.3774 18.536 9.44403C17.6027 8.51069 16.8427 7.97469 16.3413 7.67736C16.1262 7.54924 15.9015 7.4378 15.6693 7.34403L15.656 7.33869C15.4039 7.26325 15.1917 7.09146 15.0654 6.86058C14.9391 6.62971 14.9089 6.35969 14.9813 6.10669Z" fill="#539E83"/>
</svg>
