<svg width="124" height="124" viewBox="0 0 124 124" fill="none" xmlns="http://www.w3.org/2000/svg">
<rect width="124" height="124" rx="62" fill="#E7FFD5"/>
<path d="M103.574 79.6502C103.508 79.8482 103.432 80.0509 103.38 80.2536C103.026 81.6502 102.221 82.891 101.09 83.784C99.9596 84.677 98.566 85.1724 97.1253 85.1935C95.7113 85.1935 94.2972 85.1935 92.8831 85.1935C92.6892 85.1754 92.4945 85.2178 92.3257 85.3149C92.1569 85.4119 92.0223 85.5589 91.9403 85.7355C90.9196 87.5623 89.3029 88.9834 87.3603 89.7615C85.4178 90.5396 83.2671 90.6276 81.2675 90.0107C79.2679 89.3938 77.5405 88.1095 76.374 86.3722C75.2074 84.6349 74.6724 82.55 74.8581 80.4657C75.0666 78.2972 76.0365 76.2727 77.5957 74.7514C79.155 73.2301 81.2028 72.3105 83.3757 72.1555C88.0893 71.9434 92.2279 75.1487 92.9491 79.6361C93.0952 80.5788 93.0905 81.5215 93.1706 82.6622C94.8336 82.6699 96.4957 82.5802 98.1482 82.3935C99.7508 82.1296 100.892 80.5411 100.948 78.8913C100.991 77.5621 100.948 76.2281 100.948 74.7669C100.156 74.7669 99.3785 74.7669 98.5913 74.7669C97.6485 74.7669 97.2526 74.4699 97.0169 73.5649C96.6053 71.9623 96.203 70.3549 95.8102 68.7429C95.5416 67.6446 96.0931 66.9564 97.2243 66.9376C97.9832 66.9376 98.7374 66.9376 99.4963 66.9376L99.5953 66.716C99.0914 66.4187 98.5631 66.1648 98.0162 65.9571C96.7152 65.5753 95.3907 65.2595 94.0662 64.9484C93.0692 64.7348 92.1308 64.306 91.3167 63.6922C90.5025 63.0783 89.8322 62.2941 89.3526 61.3943C87.4105 57.9345 85.4167 54.503 83.4605 51.0526C81.5751 47.7012 78.7045 46.0184 74.8393 46.042C72.3929 46.042 69.9418 46.042 67.4954 46.042C66.3076 46.042 65.6996 45.6084 65.6854 44.7599C65.6713 43.9115 66.2935 43.4307 67.5332 43.4307C70.0361 43.4307 72.539 43.4307 75.042 43.4307C79.7038 43.4731 83.239 45.5094 85.5864 49.5301C87.6038 52.9868 89.5851 56.456 91.5303 59.9378C91.8511 60.5799 92.3157 61.1394 92.8879 61.5727C93.4602 62.006 94.1247 62.3014 94.8298 62.436C96.0035 62.667 97.1489 63.0205 98.3085 63.308C101.052 63.9868 102.753 65.6649 103.39 68.4459C103.425 68.5455 103.473 68.6404 103.531 68.7287L103.574 79.6502ZM90.5121 81.3518C90.526 80.0618 90.1572 78.7965 89.4525 77.7159C88.7478 76.6352 87.7387 75.7875 86.5526 75.2799C85.3665 74.7723 84.0566 74.6275 82.7883 74.8639C81.52 75.1002 80.3501 75.707 79.4264 76.6077C78.5027 77.5084 77.8666 78.6626 77.5984 79.9245C77.3302 81.1865 77.4419 82.4996 77.9194 83.6981C78.3969 84.8966 79.2188 85.9268 80.2814 86.6585C81.3439 87.3903 82.5994 87.7908 83.8895 87.8095C84.7484 87.8207 85.6012 87.6625 86.399 87.344C87.1968 87.0255 87.924 86.5528 88.539 85.9531C89.1541 85.3534 89.6449 84.6383 89.9835 83.8488C90.322 83.0593 90.5017 82.2108 90.5121 81.3518ZM100.92 72.1037V69.5678H98.7563L99.3926 72.1037H100.92Z" fill="#95E158"/>
<path d="M57.8231 85.1981H57.1537C54.269 85.1981 51.3843 85.1981 48.5042 85.1981C48.3321 85.2046 48.1634 85.2475 48.009 85.3238C47.8547 85.4002 47.7182 85.5083 47.6086 85.6412C43.7953 92.0093 35.3532 92.014 31.554 85.6412C31.4603 85.5104 31.3401 85.4008 31.2012 85.3196C31.0623 85.2384 30.9079 85.1873 30.748 85.1698C28.9568 85.0944 27.1373 85.2452 25.3744 84.9954C23.876 84.7758 22.5075 84.0216 21.5215 82.8719C20.5356 81.7223 19.9989 80.2548 20.0103 78.7404C20.0103 76.4637 19.9113 74.1352 20.3261 71.9198C21.2264 67.0883 25.0775 63.5908 29.9137 62.7989C31.2523 62.5774 32.591 62.3275 33.9344 62.1437C34.6269 62.0652 35.2896 61.8183 35.8647 61.4248C36.4398 61.0312 36.9099 60.5029 37.2339 59.8859C39.1995 56.4072 41.1981 52.9474 43.1731 49.4735C43.9791 48.0174 45.0805 46.7458 46.4067 45.7403C47.1938 45.1558 47.9292 45.1888 48.4241 45.8157C48.919 46.4426 48.7163 47.1025 48.0423 47.8048C47.0259 48.7745 46.1186 49.8525 45.3367 51.0196C43.3522 54.2908 41.4762 57.6186 39.619 60.9842C39.08 62.0258 38.2893 62.9163 37.3188 63.5748C36.3483 64.2333 35.2287 64.639 34.0617 64.7551C32.5263 64.9489 31.0018 65.2211 29.4942 65.5705C28.5771 65.8496 27.6808 66.1929 26.8121 66.5981L26.8734 66.8526C27.538 66.8526 28.2026 66.8526 28.8672 66.8526C30.0032 66.8526 30.4887 67.39 30.4369 68.5354C30.3373 70.1376 29.6522 71.6473 28.5119 72.7772C27.3716 73.9071 25.8557 74.5783 24.2526 74.6631C23.7388 74.6631 23.225 74.6631 22.6877 74.6631C22.6103 76.2196 22.6229 77.7793 22.7254 79.3343C22.8389 80.1689 23.239 80.938 23.8574 81.5099C24.4757 82.0818 25.2736 82.4208 26.1145 82.4689C27.5286 82.5584 28.9898 82.4689 30.3568 82.4689C30.4221 81.2509 30.5669 80.0385 30.7904 78.8394C31.1231 77.4892 31.7762 76.239 32.6943 75.1945C33.6124 74.1501 34.7686 73.342 36.065 72.8389C37.102 72.3958 37.8043 72.5985 38.1484 73.3857C38.4925 74.1729 38.106 74.7998 37.0878 75.2429C35.8329 75.7566 34.7695 76.649 34.0461 77.7959C33.3226 78.9427 32.975 80.2867 33.0518 81.6405C33.1286 82.9944 33.6259 84.2904 34.4745 85.3481C35.323 86.4058 36.4805 87.1723 37.7854 87.5408C38.8841 87.8888 40.0581 87.9237 41.1755 87.6414C42.2929 87.3591 43.3095 86.7709 44.1111 85.9428C44.9643 85.1487 45.5807 84.1336 45.8919 83.0103C46.2031 81.887 46.1969 80.6994 45.874 79.5794C45.8316 79.3956 45.7656 79.2165 45.7232 79.0326C45.6302 78.7014 45.6722 78.3468 45.8401 78.0464C46.0079 77.746 46.2879 77.5244 46.6188 77.43C46.7749 77.3766 46.9403 77.3559 47.1048 77.3693C47.2692 77.3826 47.4291 77.4297 47.5746 77.5075C47.7201 77.5853 47.848 77.6923 47.9503 77.8217C48.0527 77.951 48.1273 78.1001 48.1696 78.2596C48.4288 79.4993 48.5231 80.7672 48.6833 82.0305C48.6883 82.2179 48.6789 82.4055 48.6551 82.5914H51.7755C53.8118 82.5914 55.8528 82.5914 57.9032 82.5679C58.2726 82.5122 58.6171 82.3482 58.8931 82.0965C60.0243 81.2198 60.59 79.9848 61.2169 78.7169C62.1596 76.7701 63.9885 75.8886 66.1615 76.0913C67.1361 76.1498 68.0719 76.4939 68.8523 77.0806C69.6327 77.6674 70.2231 78.4708 70.5499 79.3909C70.6206 79.6117 70.7431 79.8125 70.907 79.9764C71.071 80.1404 71.2718 80.2629 71.4926 80.3336C72.6445 80.7411 73.6154 81.5424 74.2341 82.596C74.8529 83.6496 75.0797 84.8878 74.8745 86.0923C74.6693 87.2968 74.0454 88.3901 73.1128 89.1795C72.1801 89.9688 70.9987 90.4034 69.7768 90.4066C67.5992 90.4443 65.4215 90.4066 63.2485 90.4066C61.9131 90.4466 60.6131 89.9743 59.6149 89.0864C58.6166 88.1986 57.9958 86.9626 57.8796 85.6317C57.8608 85.5186 57.8466 85.3914 57.8231 85.1981ZM66.35 87.8094H69.6967C70.3362 87.7616 70.9357 87.4801 71.381 87.0187C71.8263 86.5573 72.0862 85.9481 72.1113 85.3074C72.1363 84.6666 71.9247 84.039 71.5168 83.5442C71.1089 83.0495 70.5332 82.722 69.8994 82.6244C68.6503 82.4594 68.4853 82.2756 68.2968 81.0171C68.2181 80.362 67.8964 79.7602 67.3954 79.3308C66.8945 78.9014 66.2506 78.6756 65.5911 78.698C64.9303 78.7174 64.3027 78.9918 63.8396 79.4636C63.3766 79.9354 63.1141 80.5681 63.1071 81.2292C63.135 81.5811 63.0462 81.9325 62.8545 82.2289C62.6628 82.5254 62.3789 82.7505 62.0465 82.8695C61.5025 83.0973 61.0538 83.506 60.7764 84.0265C60.4989 84.547 60.4098 85.1474 60.524 85.726C60.6452 86.3325 60.9773 86.8763 61.4613 87.2612C61.9454 87.646 62.5502 87.847 63.1683 87.8283C64.2289 87.8236 65.2895 87.8094 66.35 87.8094ZM27.5144 69.5253C26.4444 69.5253 25.4452 69.5253 24.4459 69.5253C24.3335 69.5332 24.2243 69.5655 24.1258 69.6201C24.0272 69.6746 23.9418 69.75 23.8755 69.841C23.5078 70.5481 23.1967 71.2882 22.8479 72.0565C25.2566 72.311 26.9158 71.406 27.5144 69.5253Z" fill="#95E158"/>
<path d="M52.5626 47.2816V46.0797C52.3411 46.0325 52.1148 45.9807 51.8839 45.9382C48.952 45.4056 47.0477 42.9121 47.4248 40.0886C47.8019 37.2651 50.3566 35.2949 53.3262 35.5777C53.4852 35.5841 53.6438 35.5586 53.7928 35.5027C53.9417 35.4469 54.078 35.3617 54.1935 35.2524C54.8548 34.4895 55.684 33.8903 56.616 33.5021C57.548 33.1138 58.5573 32.947 59.5646 33.0147C60.572 33.0824 61.5499 33.3829 62.4215 33.8924C63.2931 34.402 64.0347 35.1067 64.5879 35.9513C65.1411 36.7959 65.4908 37.7572 65.6097 38.7598C65.7285 39.7624 65.6132 40.779 65.2728 41.7295C64.9324 42.68 64.3762 43.5386 63.6479 44.2378C62.9196 44.937 62.039 45.4577 61.0754 45.7591L60.4957 45.9477V47.3618C60.8775 47.3618 61.2734 47.3618 61.6694 47.3618C62.5508 47.3948 63.0835 47.8614 63.0835 48.7146C63.0835 53.0417 63.0835 57.3672 63.0835 61.6912C63.0835 62.5868 62.5131 63.0252 61.4902 63.0299H51.2051C48.3486 63.0299 45.4922 63.0299 42.6357 63.0299C42.0088 63.0299 41.429 62.978 41.0708 62.3747C40.7126 61.7713 40.9765 61.1869 41.3112 60.6306C43.2438 57.4207 45.1952 54.2154 47.0901 50.9818C47.5904 50.0426 48.3022 49.2326 49.1693 48.6158C50.0365 47.999 51.0352 47.5923 52.0865 47.4278C52.2476 47.3871 52.4065 47.3383 52.5626 47.2816ZM60.4297 60.3714V49.7468C59.9093 49.9282 59.4074 50.1586 58.9307 50.4351C58.2623 50.9672 57.4348 51.2601 56.5804 51.2669C55.726 51.2737 54.894 50.9941 54.2171 50.4727C53.9288 50.2326 53.5843 50.0695 53.2158 49.9986C52.8474 49.9277 52.467 49.9514 52.1101 50.0674C51.5528 50.1957 51.0294 50.4416 50.575 50.7888C50.1205 51.1359 49.7455 51.5762 49.4752 52.0801C47.9637 54.6223 46.4428 57.1598 44.9124 59.6926C44.7946 59.8906 44.6956 60.1074 44.5542 60.3714H60.4297ZM55.2447 46.0137C55.2447 46.3908 55.2447 46.7725 55.2447 47.1543C55.2447 48.0594 55.7443 48.625 56.5032 48.6439C57.2621 48.6627 57.823 48.0641 57.8513 47.1308C57.8513 46.5086 57.8513 45.8817 57.8513 45.2453C57.8513 43.8313 58.153 43.5296 59.5247 43.4117C60.4384 43.3282 61.2944 42.9284 61.9449 42.2813C62.5954 41.6342 62.9998 40.7804 63.0882 39.8671C63.1674 38.9744 62.9377 38.0816 62.4376 37.3379C61.9375 36.5943 61.1972 36.0448 60.3405 35.7816C59.4839 35.5183 58.5628 35.557 57.7313 35.8915C56.8999 36.2259 56.2084 36.8356 55.7726 37.6187C55.1316 38.6651 54.7639 38.7876 53.6373 38.3823C53.3595 38.2756 53.0671 38.212 52.77 38.1937C52.4237 38.1766 52.0775 38.2286 51.7514 38.3465C51.4254 38.4645 51.126 38.646 50.8707 38.8807C50.6155 39.1153 50.4094 39.3983 50.2645 39.7133C50.1196 40.0283 50.0388 40.369 50.0267 40.7156C50.0098 41.0773 50.0697 41.4385 50.2025 41.7754C50.3353 42.1123 50.538 42.4173 50.7971 42.6702C51.0563 42.9232 51.3661 43.1184 51.7062 43.2429C52.0462 43.3675 52.4088 43.4186 52.77 43.3929C55.2682 43.2939 55.3154 44.0763 55.2353 45.9194L55.2447 46.0137Z" fill="#95E158"/>
<path d="M80.0666 62.9968C80.0666 63.9395 80.0666 64.7644 80.0666 65.6034C80.0655 66.635 79.6584 67.6248 78.9333 68.3586C78.2083 69.0925 77.2235 69.5116 76.192 69.5252C75.1614 69.5147 74.1748 69.1061 73.4386 68.3848C72.7023 67.6635 72.2736 66.6854 72.242 65.6553C72.2745 65.3036 72.2666 64.9493 72.2184 64.5994C72.1199 64.063 71.8899 63.5593 71.5491 63.1335C69.6636 61.3706 69.0791 58.8912 70.1916 56.7041C70.7255 55.6378 71.6079 54.7861 72.6924 54.2904C73.7769 53.7946 74.9983 53.6845 76.154 53.9784C77.3097 54.2723 78.3302 54.9524 79.0461 55.906C79.7621 56.8596 80.1305 58.0294 80.0902 59.2212C80.0902 59.57 80.0902 59.9235 80.0902 60.3855H84.2476C84.1251 60.1309 84.0591 59.9612 83.9695 59.8057C82.3983 57.1943 80.8271 54.5861 79.2559 51.981C78.8969 51.3345 78.365 50.8008 77.7198 50.4395C77.0746 50.0782 76.3416 49.9036 75.6028 49.9353C73.213 49.9353 70.8232 49.9353 68.3202 49.9353V61.0454C68.3202 61.2622 68.3202 61.479 68.3202 61.6959C68.3165 62.0401 68.1775 62.3691 67.9332 62.6117C67.6888 62.8542 67.3589 62.9909 67.0146 62.9921C66.8429 62.9948 66.6724 62.9624 66.5135 62.8972C66.3546 62.832 66.2107 62.7352 66.0903 62.6127C65.97 62.4902 65.8758 62.3445 65.8135 62.1844C65.7512 62.0244 65.722 61.8533 65.7277 61.6817C65.7089 57.3294 65.7089 52.9787 65.7277 48.6296C65.7174 48.4573 65.7438 48.2848 65.8051 48.1235C65.8663 47.9621 65.9611 47.8156 66.0831 47.6935C66.2052 47.5715 66.3517 47.4767 66.5131 47.4154C66.6745 47.3542 66.847 47.3278 67.0193 47.3381C70.1491 47.3381 73.279 47.2486 76.3994 47.3758C77.3885 47.4084 78.353 47.692 79.2023 48.2C80.0516 48.7079 80.7578 49.4235 81.2544 50.2794C83.4227 53.7911 85.5344 57.3499 87.6414 60.8945C88.2966 61.9975 87.698 62.978 86.397 62.9921C84.3183 63.011 82.2585 62.9968 80.0666 62.9968ZM77.4553 62.2615C77.4553 61.281 77.4553 60.3053 77.4553 59.3296C77.4553 57.8637 76.7199 56.8644 75.4473 56.5438C74.888 56.4118 74.3007 56.4693 73.7777 56.7074C73.2547 56.9454 72.8256 57.3505 72.5578 57.859C71.9498 59.0185 72.2184 60.2535 73.3403 61.1915C73.8324 61.5786 74.2258 62.077 74.488 62.6457C74.7502 63.2143 74.8738 63.8371 74.8486 64.4628C74.8486 64.788 74.8486 65.1132 74.8486 65.4384C74.8331 65.8074 74.9624 66.1678 75.209 66.4426C75.4557 66.7174 75.8 66.8848 76.1684 66.9091C76.9226 66.9091 77.4411 66.3246 77.4553 65.4337C77.4647 64.3732 77.4553 63.3173 77.4553 62.2567V62.2615Z" fill="#95E158"/>
<path d="M55.2541 69.1811C55.2541 72.8012 52.294 75.2287 49.0793 74.6678C48.7224 74.627 48.3628 74.7156 48.0659 74.9176C47.3789 75.4649 46.5651 75.8301 45.6997 75.9798C44.8343 76.1295 43.9451 76.0587 43.1143 75.774C42.2834 75.4893 41.5377 74.9998 40.946 74.3508C40.3542 73.7018 39.9356 72.9142 39.7286 72.0606C39.5217 71.2071 39.5331 70.3152 39.7619 69.4672C39.9907 68.6193 40.4294 67.8426 41.0376 67.209C41.6458 66.5754 42.4038 66.1052 43.2417 65.8419C44.0796 65.5786 44.9703 65.5307 45.8316 65.7025C46.2171 65.7076 46.5928 65.5812 46.8969 65.3443C48.6409 64.1517 50.4792 63.9302 52.3694 64.8729C53.2009 65.2549 53.9106 65.8595 54.4197 66.6199C54.9288 67.3803 55.2176 68.2668 55.2541 69.1811ZM52.6664 69.5111C52.6739 68.9774 52.515 68.4546 52.2117 68.0153C51.9085 67.5761 51.4759 67.2421 50.9742 67.06C50.4748 66.8722 49.9297 66.8425 49.4129 66.9749C48.896 67.1073 48.4324 67.3953 48.0847 67.8001C47.1043 68.8983 47.0571 68.9078 45.7279 68.4129C45.2833 68.2404 44.7998 68.1936 44.3303 68.2777C43.8609 68.3618 43.4237 68.5736 43.0667 68.8897C42.7097 69.2059 42.4466 69.6142 42.3062 70.07C42.1659 70.5258 42.1538 71.0115 42.2712 71.4737C42.3886 71.9359 42.631 72.3568 42.9719 72.6904C43.3127 73.024 43.7388 73.2572 44.2034 73.3646C44.6681 73.4721 45.1533 73.4495 45.606 73.2994C46.0586 73.1493 46.4612 72.8775 46.7696 72.5137C47.6746 71.4814 47.7877 71.4531 49.0557 71.9386C49.4535 72.106 49.8867 72.1717 50.3162 72.13C50.7458 72.0882 51.1582 71.9403 51.5163 71.6995C51.8745 71.4587 52.1671 71.1327 52.3679 70.7506C52.5686 70.3686 52.6712 69.9427 52.6664 69.5111Z" fill="#95E158"/>
<path d="M91.8366 53.8525C91.0636 53.857 90.3064 53.6327 89.6606 53.2078C89.0148 52.7829 88.5091 52.1763 88.2073 51.4646C87.9055 50.7528 87.8211 49.9677 87.9647 49.2081C88.1082 48.4484 88.4734 47.7482 89.0141 47.1957C89.5548 46.6432 90.247 46.2631 91.0033 46.1032C91.7597 45.9433 92.5465 46.0108 93.2646 46.2971C93.9826 46.5835 94.5999 47.076 95.0387 47.7125C95.4774 48.349 95.718 49.1011 95.7301 49.8741C95.7369 50.3913 95.6415 50.9048 95.4493 51.3851C95.2571 51.8653 94.972 52.3028 94.6102 52.6725C94.2484 53.0421 93.8171 53.3367 93.3411 53.5392C92.8652 53.7417 92.3539 53.8482 91.8366 53.8525ZM93.1187 49.9165C93.1149 49.6583 93.0342 49.4071 92.887 49.1948C92.7399 48.9826 92.5329 48.8189 92.2924 48.7247C92.0519 48.6305 91.7888 48.6101 91.5367 48.6659C91.2845 48.7218 91.0546 48.8514 90.8764 49.0383C90.6982 49.2252 90.5796 49.461 90.5358 49.7155C90.492 49.97 90.525 50.2319 90.6305 50.4676C90.736 50.7033 90.9093 50.9023 91.1283 51.0393C91.3473 51.1762 91.6021 51.2448 91.8602 51.2364C92.1978 51.2205 92.516 51.0739 92.7473 50.8276C92.9787 50.5812 93.1052 50.2545 93.0999 49.9165H93.1187Z" fill="#95E158"/>
<path d="M30.4322 57.7459C30.4378 58.5215 30.2128 59.2812 29.7857 59.9286C29.3586 60.576 28.7487 61.0818 28.0335 61.3819C27.3183 61.6819 26.5301 61.7626 25.7689 61.6137C25.0077 61.4648 24.308 61.0931 23.7586 60.5456C23.2092 59.9982 22.8349 59.2998 22.6832 58.5392C22.5315 57.7786 22.6094 56.9901 22.9068 56.2738C23.2042 55.5575 23.7079 54.9458 24.3537 54.5164C24.9995 54.0869 25.7584 53.8591 26.534 53.8619C27.5632 53.8692 28.5483 54.2804 29.2773 55.0068C30.0064 55.7332 30.4211 56.7168 30.4322 57.7459ZM27.8208 57.7789C27.8218 57.5208 27.7459 57.2683 27.6029 57.0534C27.4599 56.8385 27.2562 56.6711 27.0177 56.5723C26.7792 56.4735 26.5168 56.448 26.2637 56.4988C26.0107 56.5496 25.7785 56.6745 25.5966 56.8577C25.4148 57.0409 25.2915 57.274 25.2426 57.5274C25.1936 57.7808 25.2211 58.0431 25.3216 58.2808C25.4221 58.5186 25.5911 58.721 25.8069 58.8625C26.0228 59.0039 26.2759 59.078 26.534 59.0752C26.875 59.069 27.2002 58.9302 27.4405 58.6882C27.6808 58.4462 27.8172 58.1199 27.8208 57.7789Z" fill="#95E158"/>
<path d="M39.5296 77.364C40.3062 77.3537 41.0684 77.5745 41.7192 77.9984C42.37 78.4223 42.8801 79.0301 43.1847 79.7446C43.4893 80.4591 43.5746 81.2481 43.4297 82.0112C43.2849 82.7743 42.9164 83.477 42.3712 84.0302C41.826 84.5834 41.1286 84.962 40.3677 85.118C39.6068 85.2739 38.8168 85.2001 38.0979 84.9059C37.3791 84.6118 36.7639 84.1105 36.3306 83.4659C35.8973 82.8213 35.6654 82.0624 35.6644 81.2857C35.6679 80.2564 36.0745 79.2695 36.797 78.5364C37.5195 77.8034 38.5004 77.3825 39.5296 77.364ZM39.5578 79.98C39.2998 79.9848 39.049 80.0663 38.8374 80.214C38.6258 80.3617 38.4629 80.569 38.3695 80.8096C38.276 81.0501 38.2562 81.3131 38.3125 81.5649C38.3689 81.8167 38.4989 82.0461 38.686 82.2239C38.873 82.4017 39.1088 82.5198 39.3632 82.5632C39.6176 82.6066 39.8791 82.5734 40.1146 82.4678C40.35 82.3621 40.5488 82.1889 40.6855 81.97C40.8222 81.7511 40.8907 81.4965 40.8824 81.2386C40.8654 80.8989 40.7184 80.5787 40.4718 80.3444C40.2253 80.1101 39.898 79.9796 39.5578 79.98Z" fill="#95E158"/>
<path d="M60.4579 66.9092C60.0196 66.9092 59.5859 66.9328 59.1523 66.9092C58.9815 66.908 58.8126 66.8729 58.6554 66.806C58.4983 66.739 58.3559 66.6416 58.2367 66.5192C58.1175 66.3969 58.0237 66.2522 57.9607 66.0934C57.8978 65.9346 57.867 65.7649 57.8702 65.5941C57.8676 65.2619 57.9965 64.9422 58.2288 64.7047C58.461 64.4672 58.7777 64.3311 59.1098 64.3261C60.0526 64.2837 60.9576 64.279 61.8815 64.3261C62.2128 64.3432 62.5242 64.4895 62.7489 64.7336C62.9737 64.9777 63.0937 65.3002 63.0834 65.6318C63.0757 65.9622 62.9438 66.2775 62.7141 66.5151C62.4844 66.7527 62.1737 66.8951 61.8438 66.9139H60.4579V66.9092Z" fill="#95E158"/>
<path d="M85.2987 64.312C85.7701 64.312 86.2415 64.279 86.6845 64.312C87.015 64.3313 87.3254 64.4773 87.551 64.7196C87.7766 64.9619 87.9001 65.2819 87.8959 65.6129C87.8998 65.944 87.7735 66.2633 87.5443 66.5022C87.3151 66.7411 87.0013 66.8804 86.6704 66.8903C85.7277 66.9327 84.8179 66.9374 83.8941 66.8903C83.5627 66.8756 83.2503 66.7317 83.0239 66.4894C82.7974 66.247 82.6749 65.9256 82.6827 65.594C82.6868 65.2645 82.8154 64.9487 83.0427 64.71C83.27 64.4713 83.5792 64.3274 83.9082 64.3072H85.2987V64.312Z" fill="#95E158"/>
<path d="M83.913 85.1933C83.1398 85.1802 82.3878 84.9386 81.7517 84.4989C81.1156 84.0592 80.6239 83.441 80.3386 82.7223C80.0532 82.0036 79.9869 81.2165 80.1481 80.4602C80.3094 79.7039 80.6908 79.0123 81.2444 78.4724C81.7981 77.9325 82.4991 77.5686 83.2592 77.4265C84.0193 77.2844 84.8045 77.3704 85.5158 77.6738C86.2271 77.9771 86.8326 78.4842 87.2562 79.1312C87.6798 79.7781 87.9024 80.536 87.896 81.3093C87.8823 82.3523 87.4552 83.3473 86.7083 84.0756C85.9615 84.8039 84.9561 85.2059 83.913 85.1933ZM85.2847 81.2574C85.2799 80.9994 85.1984 80.7486 85.0507 80.537C84.903 80.3254 84.6957 80.1625 84.4551 80.069C84.2146 79.9755 83.9516 79.9557 83.6998 80.0121C83.448 80.0685 83.2186 80.1984 83.0408 80.3855C82.8631 80.5726 82.7449 80.8083 82.7015 81.0627C82.6581 81.3171 82.6913 81.5787 82.7969 81.8141C82.9026 82.0496 83.0758 82.2483 83.2947 82.385C83.5136 82.5217 83.7682 82.5903 84.0261 82.5819C84.3671 82.5684 84.6893 82.4225 84.9243 82.1752C85.1593 81.9278 85.2886 81.5986 85.2847 81.2574Z" fill="#95E158"/>
</svg>
