<svg width="40" height="40" viewBox="0 0 40 40" fill="none" xmlns="http://www.w3.org/2000/svg">
<rect width="40" height="40" rx="20" fill="#F2FFFA"/>
<path d="M11 18.3333V14.6667C11 14.4899 11.0781 14.3203 11.2171 14.1953C11.3561 14.0702 11.5446 14 11.7412 14H28.2588C28.4554 14 28.6439 14.0702 28.7829 14.1953C28.9219 14.3203 29 14.4899 29 14.6667V18.3333C28.5086 18.3333 28.0373 18.5089 27.6898 18.8215C27.3423 19.134 27.1471 19.558 27.1471 20C27.1471 20.442 27.3423 20.866 27.6898 21.1785C28.0373 21.4911 28.5086 21.6667 29 21.6667V25.3333C29 25.5101 28.9219 25.6797 28.7829 25.8047C28.6439 25.9298 28.4554 26 28.2588 26H11.7412C11.5446 26 11.3561 25.9298 11.2171 25.8047C11.0781 25.6797 11 25.5101 11 25.3333V21.6667C11.4914 21.6667 11.9627 21.4911 12.3102 21.1785C12.6577 20.866 12.8529 20.442 12.8529 20C12.8529 19.558 12.6577 19.134 12.3102 18.8215C11.9627 18.5089 11.4914 18.3333 11 18.3333ZM23.0706 15.3333H12.4824V17.312C13.0391 17.5602 13.5078 17.9434 13.8354 18.4183C14.163 18.8932 14.3366 19.4411 14.3366 20C14.3366 20.5589 14.163 21.1068 13.8354 21.5817C13.5078 22.0566 13.0391 22.4398 12.4824 22.688V24.6667H23.0706V15.3333ZM24.5529 15.3333V24.6667H27.5176V22.688C26.9609 22.4398 26.4923 22.0566 26.1646 21.5817C25.837 21.1068 25.6634 20.5589 25.6634 20C25.6634 19.4411 25.837 18.8932 26.1646 18.4183C26.4923 17.9434 26.9609 17.5602 27.5176 17.312V15.3333H24.5529Z" fill="#4E5861"/>
</svg>
