<svg width="32" height="32" viewBox="0 0 32 32" fill="none" xmlns="http://www.w3.org/2000/svg">
<path d="M27.71 4.28977C27.575 4.15544 27.4045 4.06244 27.2185 4.0217C27.0325 3.98095 26.8388 3.99416 26.66 4.05977L4.66 12.0598C4.47027 12.1317 4.30692 12.2597 4.19165 12.4267C4.07638 12.5937 4.01465 12.7918 4.01465 12.9948C4.01465 13.1977 4.07638 13.3958 4.19165 13.5628C4.30692 13.7298 4.47027 13.8578 4.66 13.9298L14.26 17.7698L18.1 27.3698C18.1721 27.5512 18.2958 27.7075 18.4557 27.8194C18.6157 27.9314 18.8049 27.9941 19 27.9998C19.2021 27.9956 19.3982 27.9303 19.5624 27.8125C19.7266 27.6947 19.8513 27.5299 19.92 27.3398L27.92 5.33977C27.9881 5.16285 28.0046 4.9702 27.9674 4.78429C27.9302 4.59839 27.8409 4.42688 27.71 4.28977ZM19 24.1998L16.21 17.1998L21 12.4098L19.59 10.9998L14.76 15.8298L7.8 12.9998L25.33 6.66977L19 24.1998Z" fill="#539E83"/>
</svg>
