<svg width="40" height="40" viewBox="0 0 40 40" fill="none" xmlns="http://www.w3.org/2000/svg">
<rect width="40" height="40" rx="20" fill="#F2FFFA"/>
<path fill-rule="evenodd" clip-rule="evenodd" d="M19.8615 13.5109C19.5409 13.8053 19.1518 14.2813 18.5749 14.9911L18.2835 15.3502C18.2643 15.3736 18.2452 15.3971 18.2261 15.4206C17.9646 15.744 17.7229 16.0417 17.3835 16.2167C17.0381 16.395 16.6515 16.4157 16.2452 16.4373L16.1561 16.4423L15.7044 16.4671C14.8078 16.5169 14.2129 16.5525 13.7989 16.6388C13.3995 16.7217 13.3395 16.8196 13.3138 16.8693C13.2829 16.929 13.2418 17.0542 13.4089 17.4473C13.5795 17.8486 13.8949 18.3677 14.3672 19.1406L14.6064 19.5303L14.6509 19.6041C14.8695 19.959 15.0658 20.2791 15.1172 20.6523C15.1686 21.0221 15.0692 21.3845 14.9569 21.7925L14.9338 21.8762L14.8112 22.324C14.5695 23.2104 14.4067 23.8092 14.3527 24.2486C14.2978 24.6881 14.3767 24.7876 14.4084 24.82L14.4101 24.8216C14.4307 24.8432 14.5001 24.917 14.9004 24.8722C15.2844 24.8299 15.8012 24.6981 16.5529 24.4982C16.3347 24.3271 16.1274 24.1432 15.9324 23.9476C15.6409 23.645 15.3649 23.2436 15.4412 22.7253C15.5184 22.2029 15.9032 21.8961 16.2726 21.6888C16.6275 21.4923 17.1212 21.3057 17.6878 21.0909L18.0486 20.9541C18.2312 20.8845 18.3315 20.8463 18.4052 20.8115C18.4274 20.8019 18.4487 20.7902 18.4686 20.7767C18.482 20.7576 18.4935 20.7373 18.5029 20.7161C18.5372 20.6448 18.5758 20.5461 18.6443 20.3695L18.7789 20.0179C18.9915 19.4665 19.1758 18.9872 19.3746 18.6414C19.5812 18.2807 19.8923 17.9034 20.4306 17.8204C20.9646 17.7375 21.3837 17.9962 21.7035 18.2715C22.0103 18.5377 22.3532 18.9341 22.7492 19.3918L22.9986 19.6821C23.1255 19.828 23.1974 19.9109 23.2557 19.9682C23.2741 19.9867 23.2939 20.0039 23.3149 20.0196L23.3174 20.0212L23.3192 20.0221L23.3277 20.0245C23.3503 20.0302 23.3732 20.0343 23.3963 20.037C23.5254 20.0505 23.6549 20.0596 23.7846 20.0643L24.1729 20.0842L24.7 20.1133C25.1029 19.7708 25.3711 19.5187 25.5383 19.3073C25.7183 19.08 25.72 18.978 25.7114 18.9183C25.7029 18.8595 25.6763 18.7459 25.3257 18.5386C24.9614 18.323 24.4103 18.0991 23.5797 17.7657L23.1606 17.5965C23.1335 17.5855 23.1063 17.5744 23.0792 17.5634C22.7012 17.4125 22.3437 17.2698 22.078 16.992C21.8166 16.7192 21.688 16.3618 21.5475 15.9721C21.5372 15.9439 21.527 15.9157 21.5166 15.8875L21.3597 15.4546C21.0495 14.5989 20.8395 14.0234 20.6338 13.6411C20.4315 13.2663 20.3226 13.2497 20.302 13.2464H20.2995C20.2806 13.2423 20.1752 13.2232 19.8623 13.5109H19.8615ZM26.2643 20.3952C26.3685 20.2897 26.4669 20.179 26.5591 20.0635C26.854 19.6912 27.0563 19.2625 26.986 18.7533C26.902 18.1455 26.4786 17.7624 25.996 17.4771C25.5366 17.206 24.8903 16.9464 24.124 16.6371L23.6552 16.4481C23.1426 16.2416 23.0723 16.1993 23.0209 16.1471C22.966 16.089 22.9215 16.0036 22.7295 15.4754L22.5563 14.9944C22.2675 14.1992 22.0275 13.5375 21.7737 13.0665C21.5149 12.5872 21.148 12.1244 20.5172 12.02C19.8829 11.9155 19.3806 12.2372 18.9769 12.6087C18.5792 12.9736 18.1326 13.5225 17.5969 14.1818L17.2729 14.5806C16.9163 15.0193 16.8469 15.084 16.7784 15.1196C16.7149 15.1528 16.6361 15.1694 16.0824 15.2001L15.6306 15.2249L15.5758 15.2283C14.7487 15.2747 14.0518 15.3137 13.5272 15.4231C12.9761 15.5384 12.4447 15.7656 12.1627 16.3162C11.885 16.8569 12.0024 17.4091 12.2201 17.9208C12.4301 18.415 12.7952 19.0129 13.2349 19.731L13.4998 20.1639C13.7887 20.6365 13.8307 20.7277 13.8427 20.8173C13.8555 20.911 13.8384 21.0163 13.6909 21.5586L13.5555 22.0545C13.3292 22.8804 13.1424 23.5637 13.0755 24.1002C13.0078 24.6475 13.0395 25.2197 13.4655 25.665C13.9035 26.1235 14.4941 26.1708 15.0478 26.1086C15.5792 26.0489 16.2564 25.8681 17.0595 25.6525L17.1692 25.6235L17.6818 25.383L17.7186 25.4154C17.738 25.4326 17.7561 25.4512 17.7726 25.4709L17.7735 25.4726L17.7743 25.4751C17.7979 25.6233 17.8151 25.7724 17.8258 25.922L17.8541 26.296C17.8986 26.8873 17.9372 27.3989 18.0263 27.787C18.1206 28.1933 18.3075 28.6353 18.7892 28.87C19.2726 29.1046 19.7509 28.9827 20.1418 28.8102C20.5138 28.6461 20.956 28.3666 21.466 28.0457L21.79 27.8417C21.8964 27.7722 22.0054 27.7064 22.1166 27.6444C22.1359 27.6339 22.156 27.6248 22.1766 27.617L22.1835 27.6145H22.1946C22.2049 27.6145 22.2255 27.6162 22.2623 27.6228C22.3437 27.6361 22.4509 27.6626 22.642 27.7107L23.0192 27.8061C23.6149 27.9553 24.1309 28.0855 24.5389 28.1286C24.9632 28.1734 25.4629 28.1469 25.8443 27.7721C26.2266 27.3964 26.2454 26.9121 26.1914 26.5033C26.14 26.1086 25.9951 25.6136 25.8297 25.0414L25.7243 24.679C25.6871 24.5585 25.6542 24.4368 25.6257 24.3142C25.6208 24.2928 25.6174 24.2712 25.6154 24.2495V24.2412L25.618 24.2337C25.6258 24.2138 25.6349 24.1944 25.6454 24.1757C25.6823 24.1068 25.7397 24.0181 25.8434 23.8581L26.0491 23.5413C26.3731 23.0438 26.6543 22.6117 26.8171 22.2485C26.9886 21.8688 27.1069 21.4027 26.854 20.9392C26.7232 20.7011 26.5163 20.5103 26.2643 20.3952ZM20.6158 19.0477L20.6252 19.0494C20.6192 19.0494 20.6166 19.0485 20.6158 19.0477ZM20.6363 19.0535C20.7138 19.0912 20.7847 19.1404 20.8463 19.1995C21.0752 19.3968 21.3572 19.721 21.7935 20.226L22.0129 20.4798L22.0592 20.5337C22.2503 20.7559 22.4535 20.9939 22.7397 21.1324C23.0269 21.2717 23.3449 21.2875 23.6423 21.3024L23.7152 21.3065L24.0537 21.3231C24.7309 21.3596 25.1646 21.3837 25.4637 21.4425C25.5508 21.4559 25.6352 21.4822 25.714 21.5205V21.5238C25.7012 21.6027 25.6761 21.6794 25.6394 21.751C25.5194 22.0172 25.2923 22.3696 24.934 22.9202L24.7549 23.1964L24.7163 23.2552C24.5594 23.4957 24.388 23.7577 24.3426 24.0654C24.2972 24.3722 24.3854 24.6707 24.466 24.9469L24.4866 25.0149L24.5783 25.3316C24.7617 25.9635 24.8783 26.369 24.916 26.6601C24.9332 26.7927 24.9289 26.8624 24.9229 26.8947C24.8414 26.9051 24.7589 26.9042 24.6777 26.8922C24.3752 26.8599 23.9526 26.7554 23.2952 26.5904L22.9652 26.5075L22.8949 26.4892C22.6069 26.4163 22.2975 26.3367 21.9812 26.3856C21.664 26.4353 21.3957 26.6045 21.1497 26.7612L21.0889 26.7994L20.806 26.9768C20.2429 27.3326 19.8812 27.5573 19.6078 27.6792C19.5336 27.716 19.4542 27.7418 19.372 27.7555H19.3669C19.3257 27.6804 19.2968 27.5995 19.2812 27.5158C19.2152 27.2289 19.1826 26.811 19.1329 26.1584L19.1089 25.8317L19.1038 25.7612C19.0832 25.4751 19.0609 25.1674 18.9109 24.893C18.7618 24.6193 18.5115 24.4261 18.2783 24.2462L18.2209 24.2022L17.9552 23.9949C17.4238 23.5836 17.0826 23.3174 16.8735 23.0993C16.812 23.0418 16.76 22.9755 16.7192 22.9028C16.7772 22.8488 16.843 22.8033 16.9146 22.7676C17.1752 22.6225 17.5755 22.4691 18.2038 22.2311L18.5175 22.1117L18.5861 22.0868C18.8603 21.9832 19.1603 21.8712 19.3849 21.6498C19.6103 21.4276 19.7218 21.1357 19.8238 20.8704L19.8495 20.804L19.9669 20.498C20.2018 19.8877 20.3526 19.4988 20.4983 19.2451C20.5342 19.1749 20.5807 19.1103 20.6363 19.0535ZM16.7141 22.8812C16.7141 22.8812 16.7158 22.8854 16.7158 22.8912C16.7132 22.8846 16.7132 22.8812 16.7141 22.8812ZM16.7124 22.9119L16.7072 22.9219C16.7064 22.9219 16.7072 22.9186 16.7124 22.9119ZM24.916 26.9188C24.916 26.9188 24.9169 26.9146 24.9203 26.9097C24.9186 26.9163 24.9169 26.9196 24.916 26.9188ZM24.9392 26.8906C24.9419 26.8885 24.9452 26.8871 24.9486 26.8864C24.9486 26.8864 24.946 26.8889 24.9392 26.8906ZM20.6458 19.046C20.6526 19.0411 20.656 19.0402 20.656 19.0411L20.6458 19.046Z" fill="#4E5861"/>
</svg>
