<svg width="134" height="49" viewBox="0 0 134 49" fill="none" xmlns="http://www.w3.org/2000/svg">
<path d="M45.9543 22.3534L25.2317 1.27825C24.7362 0.774313 24.0642 0.491211 23.3635 0.491211C22.6628 0.491211 21.9907 0.774313 21.4952 1.27825L0.772679 22.3534C0.277869 22.858 0 23.5417 0 24.2544C0 24.9671 0.277869 25.6507 0.772679 26.1553L21.4952 47.2336C21.9907 47.7375 22.6628 48.0206 23.3635 48.0206C24.0642 48.0206 24.7362 47.7375 25.2317 47.2336L45.9543 26.1553C46.4498 25.6511 46.7282 24.9673 46.7282 24.2544C46.7282 23.5414 46.4498 22.8576 45.9543 22.3534ZM20.1726 30.2722L27.6042 32.1131C27.7372 32.1468 27.8725 32.1708 28.0088 32.1848L23.3742 42.2158L20.1726 30.2722ZM31.4036 28.3595C31.3913 28.2987 31.3775 28.2379 31.3607 28.1771L29.3177 20.553L41.5786 23.5817L31.4036 28.3595ZM28.9729 28.8396C29.0027 28.9517 29.0033 29.0698 28.9746 29.1822C28.9459 29.2946 28.8889 29.3975 28.8093 29.4807C28.7296 29.5639 28.63 29.6246 28.5203 29.6568C28.4106 29.689 28.2945 29.6915 28.1836 29.6642L19.4262 27.5006L17.023 18.5374C16.9966 18.4387 16.9927 18.3352 17.0117 18.2348C17.0306 18.1343 17.072 18.0396 17.1325 17.9579C17.193 17.8762 17.2711 17.8097 17.3607 17.7634C17.4504 17.7172 17.5493 17.6924 17.6499 17.691C17.7046 17.6913 17.7591 17.6981 17.8123 17.7112L26.5697 19.8749L28.9729 28.8396ZM14.5954 19.0191C14.6092 19.0783 14.6229 19.1391 14.6383 19.1999L16.6828 26.8256L4.42184 23.7968L14.5954 19.0191ZM18.3978 15.2686C18.2645 15.2359 18.1294 15.2114 17.9932 15.1953L22.6278 5.16593L25.8279 17.1049L18.3978 15.2686ZM15.3326 15.0394C15.0037 15.7508 14.4387 16.3215 13.7371 16.6513L6.55065 20.0261L18.7717 7.59611L15.3326 15.0394ZM17.4246 29.5941L21.0921 43.2711L4.51074 26.4016L17.4246 29.5941ZM30.6633 32.336C30.9922 31.6246 31.5571 31.0539 32.2588 30.7242L42.8538 25.7485L25.6011 43.3023L30.6633 32.336ZM40.9717 20.846L28.5744 17.7814L25.0494 4.65308L40.9717 20.846Z" fill="#539E83"/>
<path d="M70.7795 35.252H68.7032V15.8578H68.6403L64.2419 35.252H61.5195L57.1136 15.8578H57.0461V35.252H54.9744V13.2607H58.6142L62.8612 32.1497H62.8927L67.1397 13.2607H70.7795V35.252Z" fill="#539E83"/>
<path d="M83.8359 21.7593V30.9746C83.8382 31.534 83.7275 32.0883 83.51 32.606C83.2926 33.1237 82.9728 33.5946 82.5688 33.9917C82.1647 34.3889 81.6844 34.7045 81.1553 34.9207C80.6262 35.1368 80.0586 35.2492 79.4849 35.2515H77.9207C76.7585 35.2486 75.6447 34.797 74.8231 33.9955C74.0014 33.194 73.5387 32.1078 73.5362 30.9746V29.1178C73.5383 28.5585 73.6534 28.005 73.8749 27.4891C74.0963 26.9731 74.4199 26.5048 74.8271 26.1108C75.2342 25.7168 75.717 25.4049 76.2478 25.1929C76.7786 24.9809 77.3471 24.8729 77.9207 24.8752H81.6268V21.6924C81.6313 21.4154 81.5792 21.1402 81.4735 20.8831C81.3679 20.6259 81.2108 20.3917 81.0114 20.1943C80.8121 19.9969 80.5745 19.8401 80.3124 19.7331C80.0503 19.6261 79.769 19.571 79.4849 19.5711H77.9207C77.6348 19.5702 77.3515 19.6245 77.0872 19.7309C76.8228 19.8372 76.5827 19.9934 76.3805 20.1905C76.1783 20.3877 76.0181 20.6219 75.9091 20.8796C75.8 21.1374 75.7443 21.4136 75.7452 21.6924V22.5219H73.5282V21.7593C73.5303 21.2 73.6454 20.6465 73.8669 20.1306C74.0884 19.6146 74.4119 19.1463 74.8191 18.7523C75.2263 18.3583 75.709 18.0464 76.2398 17.8344C76.7706 17.6224 77.3391 17.5144 77.9127 17.5167H79.4769C80.0494 17.514 80.6168 17.6218 81.1464 17.834C81.676 18.0462 82.1572 18.3585 82.5624 18.7529C82.9676 19.1473 83.2888 19.616 83.5073 20.132C83.7259 20.648 83.8375 21.201 83.8359 21.7593ZM81.6268 26.9638H77.9127C77.3404 26.9601 76.7899 27.1779 76.382 27.5695C75.9742 27.961 75.7423 28.4944 75.7372 29.0524V31.0757C75.7427 31.6337 75.9747 32.1668 76.3825 32.5583C76.7902 32.9497 77.3405 33.1677 77.9127 33.1644H79.4769C79.7585 33.1654 80.0375 33.1121 80.2978 33.0075C80.5582 32.9029 80.7947 32.7491 80.9938 32.5549C81.193 32.3608 81.3507 32.1301 81.458 31.8762C81.5652 31.6224 81.6199 31.3503 81.6189 31.0757L81.6268 26.9638Z" fill="#539E83"/>
<path d="M90.6581 35.2515C88.152 35.2515 86.5965 33.1938 86.5965 30.67V29.674H88.6526V31.1018C88.6526 32.0979 89.5734 33.1938 90.6521 33.1938H92.1421C92.6713 33.1901 93.1778 32.9685 93.552 32.577C93.9263 32.1855 94.138 31.6555 94.1415 31.1018V29.967C94.1415 28.3723 93.0986 27.808 91.7577 27.211L89.7894 26.3147C88.2995 25.6506 86.5846 24.4893 86.5846 22.1308V21.8658C86.5846 19.4745 88.3934 17.5166 90.6462 17.5166H92.1361C92.6699 17.515 93.1988 17.6238 93.6923 17.8367C94.1857 18.0497 94.6341 18.3626 95.0116 18.7576C95.389 19.1525 95.6881 19.6216 95.8917 20.1379C96.0953 20.6542 96.1992 21.2075 96.1977 21.766V22.5298H94.1356V21.699C94.1334 21.1418 93.923 20.6077 93.5493 20.2107C93.1757 19.8137 92.6685 19.5853 92.1361 19.5743H90.6462C90.1131 19.5813 89.6042 19.8086 89.2308 20.2067C88.8573 20.6047 88.6494 21.1412 88.6526 21.699V22.0653C88.6526 23.1269 89.4781 23.8907 90.9695 24.522L93.0956 25.4183C94.9998 26.2149 96.2051 27.9125 96.2051 29.8002V30.6966C96.2051 33.1907 94.5558 35.2452 92.1436 35.2452L90.6581 35.2515Z" fill="#539E83"/>
<path d="M108.574 21.7154V30.8354C108.574 33.4924 106.542 35.0342 104.161 35.0342C102.891 35.0342 101.748 34.7061 101.017 33.8205V40.2172H98.9539V21.7154C98.9613 20.6042 99.3918 19.5407 100.152 18.7549C100.913 17.9691 101.942 17.5243 103.018 17.5166H104.479C105.015 17.5144 105.546 17.6213 106.042 17.8311C106.537 18.0409 106.988 18.3496 107.369 18.7395C107.749 19.1294 108.051 19.5929 108.258 20.1035C108.465 20.6142 108.572 21.1619 108.574 21.7154ZM106.511 21.6492C106.511 20.6003 105.59 19.5498 104.479 19.5498H103.018C102.753 19.5498 102.49 19.6043 102.245 19.7102C102 19.8161 101.778 19.9712 101.592 20.1666C101.406 20.362 101.259 20.5937 101.16 20.8482C101.062 21.1028 101.013 21.375 101.017 21.6492V30.934C101.017 31.9829 101.97 33.001 103.018 33.001H104.479C104.744 33.0055 105.008 32.9554 105.254 32.8535C105.501 32.7516 105.725 32.6 105.914 32.4076C106.104 32.2152 106.254 31.9858 106.356 31.7328C106.459 31.4798 106.511 31.2082 106.511 30.934V21.6492Z" fill="#539E83"/>
<path d="M119.564 29.9979H121.628V30.9943C121.62 32.125 121.186 33.2069 120.42 34.0042C119.653 34.8015 118.616 35.2498 117.535 35.2515H116.074C113.407 35.2515 112.01 33.0262 112.01 30.369V22.4318C112.01 19.7418 113.407 17.5166 116.074 17.5166H117.535C120.17 17.5166 121.631 19.7746 121.631 22.4318V27.0148H114.074V31.1004C114.082 31.6526 114.296 32.1798 114.669 32.5704C115.042 32.9609 115.546 33.1842 116.074 33.1931H117.535C118.07 33.1956 118.584 32.976 118.965 32.5825C119.345 32.189 119.561 31.6537 119.564 31.0942V29.9979ZM114.071 21.6942V24.9502C115.881 24.9502 117.722 24.9502 119.564 24.9159V21.6942C119.565 21.4148 119.513 21.1381 119.411 20.8798C119.31 20.6216 119.16 20.387 118.971 20.1894C118.782 19.9919 118.558 19.8354 118.311 19.7289C118.064 19.6223 117.799 19.5679 117.532 19.5687H116.071C115.806 19.5689 115.544 19.6243 115.299 19.7316C115.055 19.8389 114.833 19.9961 114.647 20.1939C114.461 20.3917 114.315 20.6262 114.216 20.8838C114.118 21.1413 114.069 21.4168 114.074 21.6942H114.071Z" fill="#539E83"/>
<path d="M128.45 35.2515C125.94 35.2515 124.385 33.1938 124.385 30.67V29.674H126.449V31.1018C126.449 32.0979 127.37 33.1938 128.45 33.1938H129.94C130.47 33.1901 130.977 32.9685 131.351 32.577C131.726 32.1855 131.938 31.6555 131.941 31.1018V29.967C131.941 28.3723 130.898 27.808 129.556 27.211L127.586 26.3147C126.095 25.6506 124.379 24.4893 124.379 22.1308V21.8658C124.379 19.4745 126.189 17.5166 128.444 17.5166H129.934C130.469 17.515 130.998 17.6238 131.492 17.8367C131.985 18.0497 132.434 18.3626 132.812 18.7576C133.189 19.1525 133.489 19.6216 133.692 20.1379C133.896 20.6542 134 21.2075 133.999 21.766V22.5298H131.935V21.699C131.933 21.1418 131.722 20.6077 131.349 20.2107C130.975 19.8137 130.467 19.5853 129.934 19.5743H128.444C127.909 19.5796 127.398 19.8062 127.023 20.2045C126.648 20.6027 126.44 21.1401 126.443 21.699V22.0653C126.443 23.1269 127.269 23.8907 128.761 24.522L130.889 25.4183C132.794 26.2149 134 27.9125 134 29.8002V30.6966C134 33.1907 132.35 35.2452 129.936 35.2452L128.45 35.2515Z" fill="#539E83"/>
</svg>
