<svg width="124" height="124" viewBox="0 0 124 124" fill="none" xmlns="http://www.w3.org/2000/svg">
<rect width="124" height="124" rx="62" fill="#EFFFF5"/>
<path d="M103.199 74.7084C104.421 76.9014 104.421 81.3605 103.23 83.3091C104.598 85.502 104.183 87.9576 103.877 90.2605C103.669 91.379 103.669 92.5261 103.877 93.6446C104.161 95.35 104.18 97.0891 103.932 98.8002C103.817 99.6446 103.39 100.415 102.736 100.961C102.082 101.507 101.247 101.789 100.395 101.751C91.8801 101.751 83.3629 101.751 74.8437 101.751C73.8979 101.775 72.981 101.424 72.2939 100.773C71.6069 100.123 71.2058 99.2266 71.1786 98.2809C71.1298 97.5173 71.1786 96.7538 71.1786 96.0391H64.1966C64.1966 96.5584 64.1966 97.2059 64.1966 97.8717C64.1966 100.315 62.7062 101.781 60.2933 101.781H35.2487C32.8053 101.781 31.3637 100.285 31.3454 97.8656C31.3454 96.9615 31.3454 96.033 31.3454 95.1473C31.2073 94.0252 31.5192 92.8942 32.2128 92.0015C30.9911 89.9674 30.9912 85.2822 32.164 83.4496C31.9079 82.9739 31.6873 82.4797 31.5042 81.9714C31.3861 81.4032 31.3065 80.8277 31.266 80.2488H28.7432C27.4238 80.2488 26.1044 80.2855 24.7849 80.2488C23.5236 80.1725 22.3357 79.6301 21.4518 78.7271C20.568 77.824 20.0513 76.6247 20.002 75.3621C20.002 75.2521 20.002 75.1421 20.002 75.0322C20.002 59.4475 20.002 43.8648 20.002 28.2842C19.9671 27.0469 20.3807 25.8386 21.1665 24.8822C21.9523 23.9258 23.0574 23.2856 24.278 23.0798C24.658 23.023 25.0421 22.9964 25.4263 23.0004H62.1992C65.4855 23.0004 67.654 25.1872 67.654 28.498C67.654 39.762 67.654 51.028 67.654 62.2961V63.31L71.203 63.6766V60.543C71.203 57.8491 72.6263 56.438 75.3323 56.438H99.98C102.68 56.438 104.103 57.8614 104.103 60.5491C104.103 61.4837 104.054 62.4182 104.103 63.3467C104.176 64.4462 103.333 65.4052 103.388 66.291C103.443 67.1767 104.152 68.1235 104.103 69.162C104.06 69.9561 104.067 70.7562 104.103 71.5503C104.215 72.6798 103.892 73.8094 103.199 74.7084ZM61.8082 64.3241L65.1374 63.4445V62.5832C65.1374 51.2622 65.1374 39.9412 65.1374 28.6202C65.1374 26.3967 64.1478 25.4072 61.9182 25.4072H25.6524C23.4228 25.4072 22.4454 26.3906 22.4454 28.6263V57.7269C22.4454 63.4281 22.4454 69.1436 22.4454 74.8734C22.4147 75.2526 22.4661 75.6341 22.5962 75.9916C22.7263 76.3492 22.9321 76.6745 23.1994 76.9453C23.4668 77.2161 23.7893 77.426 24.1452 77.5607C24.501 77.6954 24.8818 77.7519 25.2614 77.726C27.0939 77.726 28.8898 77.726 30.7041 77.726C30.8965 77.7165 31.0881 77.696 31.2782 77.6649L31.437 76.0034C30.5024 76.0034 29.6045 76.0034 28.6455 76.0034C28.2728 76.0132 27.9019 75.9483 27.5547 75.8124C27.2075 75.6765 26.8911 75.4724 26.624 75.2122C26.357 74.952 26.1448 74.6409 25.9999 74.2973C25.8551 73.9538 25.7805 73.5847 25.7806 73.2119C25.7317 71.6176 25.7379 70.0232 25.7806 68.4289C25.7757 67.7035 26.0571 67.0054 26.5637 66.4862C27.0703 65.967 27.7614 65.6686 28.4867 65.6557C30.1156 65.6109 31.7628 65.6109 33.4284 65.6557C34.1532 65.6702 34.8429 65.9703 35.3474 66.4909C35.852 67.0114 36.1304 67.7102 36.1222 68.435C36.1222 69.8888 36.1222 71.3427 36.1222 72.8026C36.1222 73.0347 36.1589 73.2668 36.1711 73.4867H38.5107C38.5437 73.423 38.5683 73.3553 38.584 73.2852C38.584 71.7214 38.584 70.1576 38.584 68.5877C38.5645 68.1944 38.628 67.8014 38.7702 67.4341C38.9125 67.0669 39.1304 66.7336 39.4097 66.456C39.6891 66.1784 40.0236 65.9626 40.3917 65.8226C40.7599 65.6826 41.1533 65.6216 41.5465 65.6435C42.9209 65.6435 44.2954 65.6435 45.6698 65.6435C47.8749 65.6435 48.95 66.7247 48.95 68.936C48.95 70.4386 48.95 71.9413 48.95 73.4806H51.43V72.5338C51.43 67.2399 51.43 61.9459 51.43 56.6519C51.43 54.685 52.5173 53.5977 54.4842 53.5977C55.7486 53.5977 57.0131 53.5977 58.2776 53.5977C60.7943 53.5977 61.7838 54.5811 61.7838 57.0733L61.8082 64.3241ZM87.5676 58.8265H75.1247C74.0068 58.8265 73.6465 59.193 73.6342 60.317C73.6342 61.3004 73.6342 62.29 73.6342 63.2795C73.6342 64.5012 74.0618 64.9288 75.2713 64.9288C83.5665 64.9288 91.8618 64.9288 100.157 64.9288C101.177 64.9288 101.58 64.489 101.586 63.4445C101.593 62.3999 101.586 61.4653 101.586 60.4818C101.586 59.1685 101.25 58.8265 99.9311 58.8265H87.5676ZM67.6479 93.6996C70.4062 93.7067 73.1047 92.8966 75.4028 91.3713C77.7009 89.846 79.4956 87.6741 80.5603 85.1296C81.625 82.5851 81.912 79.7823 81.3849 77.0748C80.8579 74.3674 79.5405 71.8768 77.5991 69.9176C75.6577 67.9583 73.1793 66.6181 70.4768 66.0662C67.7743 65.5144 64.969 65.7756 62.4149 66.8169C59.8608 67.8582 57.6724 69.6329 56.1261 71.917C54.5798 74.201 53.7449 76.892 53.7268 79.6501C53.7139 81.4888 54.0641 83.312 54.7573 85.015C55.4506 86.718 56.4732 88.2675 57.7665 89.5744C59.0599 90.8814 60.5985 91.9201 62.2942 92.6312C63.9898 93.3422 65.8092 93.7115 67.6479 93.7179V93.6996ZM87.6348 99.2644H99.986C101.208 99.2644 101.574 98.8857 101.58 97.7067C101.58 96.7721 101.58 95.8437 101.58 94.9091C101.58 93.4919 101.257 93.162 99.8516 93.162C93.0102 93.162 86.1749 93.162 79.3395 93.162C78.0507 93.2003 76.7839 93.5061 75.6195 94.06C73.7869 94.8114 73.4021 95.9475 73.6037 97.7251C73.7503 98.9468 74.0007 99.3072 75.2774 99.3072L87.6348 99.2644ZM47.6611 99.2644H60.2628C61.3074 99.2644 61.6983 98.8673 61.7167 97.8289C61.7167 97.1203 61.7167 96.4056 61.7167 95.6909C61.7432 95.5046 61.7032 95.315 61.6038 95.1552C61.5043 94.9955 61.3518 94.8759 61.173 94.8175C60.2812 94.4021 59.4382 93.8829 58.5647 93.4308C58.3082 93.2843 58.0223 93.1966 57.7278 93.1742C50.2063 93.1742 42.6847 93.1742 35.1632 93.1742C34.2164 93.1742 33.801 93.5897 33.7888 94.5182C33.7766 95.4466 33.7888 96.4423 33.7888 97.4013C33.7888 99.0078 34.0514 99.2766 35.6213 99.2766L47.6611 99.2644ZM78.7409 67.4516C79.535 68.3862 80.3413 69.2047 80.9949 70.1393C81.6485 71.0739 82.1677 72.1795 82.7847 73.1935C82.8641 73.2911 82.9636 73.3705 83.0763 73.4263C83.1891 73.4822 83.3125 73.5132 83.4383 73.5173C89.0417 73.5173 94.6432 73.5173 100.243 73.5173C101.153 73.5173 101.568 73.053 101.58 72.1123C101.593 71.1716 101.58 70.1332 101.58 69.1436C101.58 67.7265 101.269 67.415 99.8394 67.415H79.5655C79.3273 67.4272 79.0463 67.4516 78.7164 67.4699L78.7409 67.4516ZM79.9626 90.6637C86.8835 90.6637 93.615 90.6637 100.34 90.6637C100.504 90.6755 100.668 90.652 100.821 90.5948C100.975 90.5376 101.115 90.448 101.23 90.3321C101.346 90.2162 101.436 90.0768 101.493 89.9232C101.55 89.7696 101.574 89.6055 101.562 89.442C101.586 88.2203 101.586 87.0109 101.562 85.8136C101.577 85.6463 101.554 85.4777 101.496 85.3203C101.437 85.1628 101.344 85.0204 101.224 84.9034C101.103 84.7864 100.958 84.6976 100.799 84.6437C100.64 84.5899 100.47 84.5722 100.304 84.5919C94.8386 84.5919 89.3736 84.5919 83.9086 84.5919C83.7868 84.5987 83.6682 84.6337 83.5622 84.6941C83.4562 84.7545 83.3657 84.8387 83.2978 84.9401C82.5526 87.0555 81.4126 89.0103 79.9381 90.7004L79.9626 90.6637ZM55.4005 90.6637C53.9391 88.9777 52.8077 87.0319 52.0653 84.9278C52.0042 84.7446 51.6132 84.5736 51.375 84.5736C45.9629 84.5736 40.5509 84.5736 35.1388 84.5736C34.2103 84.5736 33.8132 84.9951 33.801 85.948C33.801 86.9925 33.801 88.0371 33.801 89.0816C33.801 90.3033 34.1675 90.6698 35.4381 90.6759H55.4066L55.4005 90.6637ZM83.9453 82.008C84.074 82.0388 84.2045 82.0613 84.3362 82.0752C89.6302 82.0752 94.9241 82.0752 100.218 82.0752C101.128 82.0752 101.556 81.6171 101.568 80.6825C101.58 79.7479 101.568 78.7095 101.568 77.7199C101.568 76.2905 101.25 75.9668 99.8455 75.9668H83.9636L83.9453 82.008ZM51.43 75.9912C51.4911 75.9912 51.43 75.9912 51.3934 75.9912C45.9324 75.9912 40.4714 75.9912 35.0044 75.9912C34.8397 75.9739 34.6732 75.9936 34.5171 76.0489C34.3611 76.1042 34.2193 76.1937 34.1023 76.3108C33.9852 76.4279 33.8957 76.5696 33.8405 76.7257C33.7852 76.8817 33.7654 77.0482 33.7827 77.2129C33.7827 78.2574 33.7827 79.302 33.7827 80.3404C33.7827 81.7453 34.1125 82.063 35.5419 82.063H51.4239L51.43 75.9912ZM53.9223 70.408C55.3428 68.5908 57.0513 67.0185 58.98 65.7534C59.0797 65.6732 59.1616 65.5731 59.2205 65.4595C59.2794 65.346 59.314 65.2214 59.3221 65.0937C59.3221 62.2899 59.3221 59.4923 59.3221 56.6885C59.3221 56.1448 59.1022 55.9677 58.583 55.9738C57.3186 55.9738 56.0541 56.0226 54.7957 55.9738C54.0383 55.9371 53.8795 56.2304 53.8856 56.9267C53.8856 61.2026 53.8856 65.4786 53.8856 69.7545L53.9223 70.408ZM30.9301 68.0747C30.2459 68.0747 29.5618 68.0747 28.8715 68.0747C28.4134 68.0747 28.2301 68.2518 28.2301 68.6855C28.2301 70.0843 28.2301 71.4832 28.2607 72.882C28.2982 73.0184 28.3701 73.1429 28.4696 73.2434C28.5691 73.344 28.6927 73.4172 28.8287 73.4562C30.2276 73.505 31.6264 73.4562 33.0252 73.4562C33.4772 73.4562 33.6361 73.279 33.6361 72.8453C33.6361 71.4709 33.6361 70.1026 33.6361 68.7282C33.6361 68.2334 33.465 68.0319 32.9642 68.0502C32.2922 68.1357 31.6203 68.1174 30.9301 68.1174V68.0747ZM46.5005 70.7929C46.5005 70.1087 46.5005 69.4246 46.5005 68.7343C46.5005 68.2396 46.305 68.0624 45.8163 68.0685C44.4419 68.0685 43.0737 68.0685 41.6993 68.0685C41.2411 68.0685 41.0884 68.2518 41.0884 68.6794C41.0884 70.0782 41.0884 71.4771 41.1189 72.8759C41.1587 73.0098 41.2317 73.1315 41.331 73.2297C41.4303 73.3279 41.5527 73.3995 41.687 73.4379C43.0859 73.4868 44.4847 73.4379 45.8835 73.4379C46.3417 73.4379 46.531 73.2424 46.4944 72.7904C46.4883 72.2101 46.5005 71.5076 46.5005 70.8357V70.7929Z" fill="#86E8CB"/>
<path d="M43.8494 28.3391H58.5952C60.7148 28.3391 61.796 29.4204 61.8082 31.5217C61.8082 33.2035 61.8082 34.8793 61.8082 36.5489C61.8082 38.5708 60.6598 39.7009 58.6196 39.7009H28.9692C26.8863 39.7009 25.7684 38.5708 25.7623 36.4939C25.7623 34.8202 25.7623 33.1403 25.7623 31.4666C25.7623 29.457 26.8679 28.3452 28.8593 28.3391H43.8494ZM43.7761 30.8131C38.8894 30.8131 34.0026 30.8131 29.1158 30.8131C28.4317 30.8131 28.1995 31.0146 28.2178 31.7049C28.2606 33.2381 28.2667 34.7591 28.2178 36.3168C28.2178 37.0498 28.4561 37.2575 29.1647 37.2514C32.4083 37.2514 35.6458 37.2514 38.8894 37.2514C45.3643 37.2514 51.8453 37.2514 58.3264 37.2514C59.1266 37.2514 59.3832 37.007 59.3527 36.2129C59.2977 34.7347 59.2916 33.2503 59.3527 31.7659C59.3527 30.9841 59.0961 30.8008 58.357 30.8008C53.4947 30.8253 48.6384 30.8131 43.7761 30.8131Z" fill="#86E8CB"/>
<path d="M30.924 51.7955C30.1543 51.7955 29.3846 51.7955 28.6149 51.7955C28.2489 51.8036 27.8849 51.7393 27.5438 51.6063C27.2027 51.4733 26.8913 51.2743 26.6273 51.0205C26.3634 50.7668 26.1522 50.4635 26.0058 50.1279C25.8595 49.7923 25.7809 49.4311 25.7745 49.065C25.7256 47.4463 25.7256 45.8215 25.7745 44.1783C25.7761 43.812 25.8502 43.4497 25.9926 43.1122C26.135 42.7748 26.3428 42.4688 26.6041 42.2121C26.8653 41.9554 27.1748 41.753 27.5147 41.6166C27.8546 41.4801 28.2182 41.4124 28.5845 41.4173C30.1523 41.3806 31.718 41.3806 33.2818 41.4173C33.6619 41.4103 34.0395 41.4811 34.3913 41.6252C34.7431 41.7694 35.0617 41.9839 35.3277 42.2555C35.5936 42.5272 35.8013 42.8503 35.9379 43.2051C36.0746 43.5599 36.1373 43.9389 36.1223 44.3188C36.1223 45.8276 36.1223 47.373 36.1223 48.8513C36.1402 49.2369 36.0781 49.622 35.9396 49.9824C35.8012 50.3427 35.5895 50.6705 35.318 50.9449C35.0465 51.2193 34.721 51.4344 34.3621 51.5766C34.0032 51.7188 33.6188 51.785 33.233 51.771C32.4633 51.8016 31.6814 51.7955 30.924 51.7955ZM30.924 49.3521C31.6081 49.3521 32.2984 49.3521 32.9825 49.3521C33.4712 49.3521 33.6728 49.1933 33.6666 48.6863C33.6666 47.318 33.6666 45.9436 33.6666 44.5754C33.6666 44.05 33.4284 43.9156 32.9642 43.9217C31.6447 43.9217 30.3253 43.9217 29.012 43.9217C28.45 43.9217 28.2179 44.105 28.2301 44.6853C28.2301 45.9986 28.2301 47.3181 28.2301 48.6314C28.2301 49.1567 28.4012 49.3827 28.9509 49.3582C29.5984 49.2972 30.2581 49.3216 30.9178 49.3216L30.924 49.3521Z" fill="#86E8CB"/>
<path d="M56.5733 51.7895C55.7792 51.7895 54.979 51.7895 54.1849 51.7895C53.4611 51.7815 52.7694 51.4896 52.2587 50.9766C51.748 50.4637 51.4592 49.7706 51.4544 49.0468C51.4544 47.4525 51.4544 45.8582 51.4544 44.2639C51.4447 43.8983 51.5079 43.5345 51.6405 43.1937C51.7731 42.8529 51.9725 42.542 52.2268 42.2792C52.481 42.0164 52.7852 41.8069 53.1214 41.6631C53.4576 41.5193 53.8192 41.4441 54.1849 41.4418C55.8036 41.3929 57.4285 41.3929 59.0716 41.4418C59.7985 41.4434 60.4952 41.7329 61.0092 42.2469C61.5232 42.7609 61.8127 43.4576 61.8143 44.1845C61.8754 45.8032 61.8754 47.4281 61.8143 49.0712C61.8106 49.4444 61.7317 49.813 61.5822 50.155C61.4327 50.4969 61.2156 50.8052 60.9441 51.0613C60.6726 51.3174 60.3523 51.5161 60.0022 51.6454C59.6521 51.7747 59.2795 51.832 58.9067 51.8139C58.1126 51.8017 57.3368 51.7956 56.5733 51.7895ZM53.9222 46.5423C53.9222 47.257 53.9222 47.9717 53.9222 48.6803C53.9222 49.1323 54.0688 49.3278 54.5331 49.3278C55.9319 49.3278 57.3246 49.3278 58.7235 49.3278C59.2122 49.3278 59.3343 49.0834 59.3343 48.662C59.3343 47.2937 59.3343 45.9193 59.3343 44.551C59.3343 44.044 59.09 43.8913 58.6135 43.8974C57.2778 43.8974 55.936 43.8974 54.588 43.8974C54.0994 43.8974 53.8856 44.0745 53.91 44.5754C53.9406 45.2413 53.9222 45.8887 53.9222 46.5423Z" fill="#86E8CB"/>
<path d="M30.8629 63.8842C30.0932 63.8842 29.3235 63.8842 28.5539 63.8842C28.1885 63.8875 27.8261 63.818 27.4879 63.6798C27.1496 63.5417 26.8421 63.3377 26.5835 63.0796C26.3248 62.8215 26.1201 62.5145 25.9812 62.1765C25.8423 61.8385 25.772 61.4763 25.7745 61.1109C25.7317 59.5166 25.7256 57.9224 25.7745 56.3342C25.7703 55.9678 25.8399 55.6044 25.9791 55.2655C26.1183 54.9266 26.3242 54.6192 26.5847 54.3616C26.8452 54.104 27.1549 53.9014 27.4952 53.766C27.8356 53.6305 28.1998 53.5649 28.5661 53.5731C30.1543 53.5365 31.7465 53.5365 33.3429 53.5731C33.716 53.5661 34.0867 53.6356 34.432 53.7775C34.7772 53.9193 35.0897 54.1304 35.3502 54.3977C35.6106 54.665 35.8136 54.9829 35.9463 55.3317C36.0791 55.6805 36.139 56.0529 36.1222 56.4258C36.1222 57.9611 36.1222 59.4983 36.1222 61.0376C36.1346 61.4096 36.0715 61.7803 35.9367 62.1273C35.8019 62.4742 35.5982 62.7902 35.3379 63.0562C35.0776 63.3223 34.766 63.5328 34.4221 63.6751C34.0781 63.8174 33.7089 63.8885 33.3367 63.8842C32.5121 63.9025 31.6814 63.8842 30.8629 63.8842ZM33.6544 58.7531C33.6544 58.0628 33.6544 57.3787 33.6544 56.6884C33.6544 56.2547 33.5322 56.0226 33.0436 56.0226C31.6447 56.0226 30.2398 56.0226 28.8409 56.0226C28.3828 56.0226 28.2301 56.2181 28.2301 56.6701C28.2301 58.0445 28.2301 59.4189 28.2607 60.7872C28.2887 60.9273 28.3531 61.0575 28.4475 61.1648C28.5418 61.272 28.6628 61.3525 28.7982 61.398C30.2194 61.4469 31.6448 61.4469 33.0741 61.398C33.2064 61.3571 33.3259 61.2827 33.4212 61.1822C33.5164 61.0816 33.5841 60.9582 33.6178 60.8239C33.6673 60.1348 33.6795 59.4435 33.6544 58.7531Z" fill="#86E8CB"/>
<path d="M43.7821 63.8841C42.988 63.8841 42.1878 63.8841 41.3937 63.8841C41.0281 63.889 40.6652 63.8208 40.3262 63.6837C39.9873 63.5466 39.6791 63.3433 39.4197 63.0856C39.1603 62.8279 38.9549 62.5211 38.8156 62.1831C38.6763 61.845 38.6057 61.4826 38.6082 61.1169C38.5756 59.5206 38.5756 57.9263 38.6082 56.334C38.6026 55.9753 38.6681 55.619 38.8011 55.2858C38.9341 54.9526 39.1319 54.6491 39.383 54.3929C39.6342 54.1366 39.9337 53.9328 40.2641 53.7931C40.5946 53.6534 40.9494 53.5807 41.3082 53.5791C42.9371 53.5303 44.5864 53.5303 46.256 53.5791C46.9679 53.5791 47.6509 53.8602 48.1565 54.3613C48.6622 54.8623 48.9495 55.5428 48.956 56.2546C49.0048 57.9039 49.0109 59.5532 48.956 61.1963C48.9415 61.9216 48.6403 62.6117 48.1182 63.1154C47.5962 63.6191 46.8958 63.8955 46.1705 63.8841C45.3764 63.9024 44.5762 63.8841 43.7821 63.8841ZM41.0761 58.6369C41.0761 59.3516 41.0761 60.0663 41.0761 60.7809C41.0761 61.2391 41.2532 61.3918 41.6869 61.3918C43.0918 61.3918 44.4907 61.3918 45.8895 61.3552C46.0251 61.3195 46.149 61.2488 46.2487 61.1502C46.3484 61.0516 46.4204 60.9284 46.4576 60.7932C46.5064 59.3964 46.5064 57.9975 46.4576 56.5967C46.4208 56.4606 46.349 56.3366 46.2494 56.2369C46.1497 56.1372 46.0256 56.0654 45.8895 56.0286C44.4907 55.9798 43.0918 56.0286 41.693 56.0286C41.241 56.0286 41.0394 56.1997 41.0822 56.6395C41.0944 57.3175 41.0761 57.9772 41.0761 58.6369Z" fill="#86E8CB"/>
<path d="M43.7334 51.7956C42.9637 51.7956 42.194 51.7956 41.4244 51.7956C41.0519 51.7997 40.6824 51.7291 40.3376 51.5879C39.9929 51.4467 39.68 51.2378 39.4174 50.9735C39.1549 50.7092 38.948 50.395 38.809 50.0494C38.6701 49.7038 38.6018 49.3337 38.6084 48.9613C38.5839 47.3975 38.5839 45.8317 38.6084 44.2639C38.6019 43.898 38.6681 43.5343 38.8031 43.1942C38.9382 42.854 39.1393 42.544 39.395 42.2821C39.6506 42.0202 39.9557 41.8116 40.2925 41.6684C40.6293 41.5252 40.9912 41.4503 41.3572 41.4479C42.9759 41.399 44.6008 41.399 46.2439 41.4479C46.6107 41.4519 46.9731 41.5285 47.3101 41.6735C47.647 41.8184 47.9519 42.0288 48.207 42.2924C48.4621 42.5561 48.6624 42.8677 48.7962 43.2092C48.93 43.5508 48.9947 43.9155 48.9866 44.2822C48.9866 45.846 49.0233 47.4158 48.9866 48.9796C48.9895 49.359 48.9151 49.7351 48.7681 50.0849C48.621 50.4347 48.4043 50.7509 48.1312 51.0144C47.8581 51.2778 47.5342 51.4828 47.1793 51.6171C46.8244 51.7515 46.4459 51.8122 46.0668 51.7956C45.2727 51.8017 44.5091 51.7956 43.7334 51.7956ZM43.7334 49.3522C44.442 49.3522 45.1566 49.3522 45.8713 49.3522C46.3356 49.3522 46.4822 49.1628 46.4822 48.7414C46.4822 47.367 46.4822 45.9987 46.4822 44.6243C46.4822 44.1295 46.2867 43.9401 45.798 43.9462C44.4236 43.9462 43.0553 43.9462 41.6809 43.9462C41.2289 43.9462 41.0701 44.1356 41.0701 44.5937C41.0701 45.9925 41.0701 47.3914 41.1007 48.7903C41.1422 48.9219 41.2159 49.041 41.3151 49.137C41.4143 49.233 41.5358 49.3027 41.6687 49.34C42.3547 49.3706 43.0419 49.3645 43.7273 49.3217L43.7334 49.3522Z" fill="#86E8CB"/>
<path d="M79.5837 79.7234C79.5922 82.0786 78.9019 84.3834 77.6002 86.3461C76.2985 88.3089 74.4439 89.8415 72.271 90.75C70.0982 91.6585 67.7046 91.9022 65.3932 91.4502C63.0818 90.9981 60.9565 89.8706 59.286 88.2104C57.6156 86.5502 56.475 84.4318 56.0087 82.1232C55.5424 79.8147 55.7713 77.4197 56.6665 75.2412C57.5616 73.0628 59.0827 71.1988 61.0374 69.8851C62.9922 68.5713 65.2926 67.8669 67.6478 67.8608C70.7988 67.8672 73.82 69.1167 76.0549 71.3379C78.2898 73.5591 79.558 76.5725 79.5837 79.7234ZM67.6784 70.3347C65.8135 70.3347 63.9905 70.8876 62.4398 71.9234C60.8891 72.9592 59.6802 74.4315 58.966 76.1541C58.2518 77.8768 58.0643 79.7725 58.4273 81.6017C58.7902 83.4309 59.6872 85.1114 61.005 86.4309C62.3228 87.7504 64.0021 88.6496 65.8308 89.0149C67.6596 89.3802 69.5556 89.1952 71.2792 88.4832C73.0027 87.7712 74.4766 86.5643 75.5144 85.0149C76.5522 83.4655 77.1074 81.6433 77.1098 79.7784C77.1017 77.2784 76.1059 74.8829 74.3392 73.1139C72.5725 71.345 70.1784 70.346 67.6784 70.3347Z" fill="#86E8CB"/>
<path d="M63.8547 82.5028C63.8259 82.1707 63.9299 81.8408 64.1441 81.5855C64.3582 81.3301 64.665 81.1701 64.9969 81.1406C65.7055 81.0917 66.1636 81.4949 66.3163 82.3073C66.5362 83.4741 67.3792 84.036 68.3932 83.529C68.6065 83.4097 68.7902 83.244 68.9308 83.0442C69.0714 82.8444 69.1654 82.6155 69.2057 82.3745C69.1164 81.8863 68.8457 81.4499 68.4482 81.1528C68.2221 80.9574 67.7702 80.9818 67.422 80.9634C66.5456 80.9536 65.6986 80.6459 65.0203 80.0908C64.342 79.5357 63.8727 78.7664 63.6897 77.9092C63.5112 77.0426 63.6413 76.1409 64.0573 75.3601C64.4734 74.5793 65.1493 73.9684 65.9682 73.6333C66.0896 73.5558 66.1936 73.4539 66.2735 73.334C66.3534 73.2141 66.4076 73.0789 66.4324 72.9369C66.5485 72.094 66.9822 71.5687 67.6541 71.5748C67.8271 71.5736 67.9983 71.6092 68.1565 71.6792C68.3147 71.7492 68.4562 71.852 68.5717 71.9808C68.6872 72.1095 68.774 72.2613 68.8264 72.4262C68.8788 72.591 68.8957 72.7651 68.8758 72.9369C68.8652 73.1233 68.9155 73.3082 69.019 73.4635C69.1226 73.6189 69.2738 73.7363 69.4499 73.7982C70.0207 74.0885 70.5054 74.5232 70.8559 75.0591C71.2063 75.5949 71.4103 76.2133 71.4474 76.8525C71.4904 77.0205 71.4971 77.1957 71.4671 77.3665C71.4371 77.5373 71.371 77.6998 71.2734 77.8431C71.1757 77.9864 71.0487 78.1072 70.9007 78.1976C70.7527 78.288 70.5872 78.3459 70.4151 78.3674C69.676 78.4651 69.1934 78.068 69.0102 77.2128C68.7841 76.1072 68.155 75.6491 67.1776 75.8812C66.865 75.9357 66.5829 76.102 66.3839 76.3491C66.1849 76.5963 66.0826 76.9074 66.096 77.2245C66.1095 77.5415 66.2378 77.8428 66.457 78.0722C66.6763 78.3016 66.9715 78.4434 67.2876 78.4712C67.7702 78.569 68.271 78.5506 68.7536 78.6544C69.5298 78.8177 70.2344 79.2225 70.7664 79.8108C71.2984 80.3991 71.6307 81.1406 71.7154 81.9292C71.8002 82.7178 71.6331 83.5131 71.2383 84.2009C70.8434 84.8888 70.2409 85.4341 69.5171 85.7586C69.3281 85.8119 69.1636 85.9296 69.0521 86.0913C68.9405 86.2531 68.8889 86.4486 68.9063 86.6443C68.9035 86.8048 68.8692 86.9631 68.8052 87.1102C68.7412 87.2574 68.6488 87.3905 68.5334 87.5019C68.418 87.6134 68.2817 87.701 68.1324 87.7598C67.9831 87.8186 67.8237 87.8474 67.6633 87.8446C67.5028 87.8418 67.3445 87.8074 67.1974 87.7434C67.0502 87.6794 66.9171 87.5871 66.8057 87.4717C66.6942 87.3563 66.6066 87.22 66.5478 87.0707C66.489 86.9214 66.4601 86.762 66.4629 86.6015C66.4798 86.4015 66.4287 86.2016 66.3178 86.0342C66.2069 85.8668 66.0428 85.7417 65.8521 85.6791C65.2734 85.3669 64.7855 84.9104 64.4355 84.3538C64.0855 83.7972 63.8854 83.1595 63.8547 82.5028Z" fill="#86E8CB"/>
</svg>
