<svg width="124" height="124" viewBox="0 0 124 124" fill="none" xmlns="http://www.w3.org/2000/svg">
<rect width="124" height="124" rx="62" fill="#F2E9FC"/>
<path d="M75.8088 63.5309V61.0718H86.8949V47.4686H89.3598V61.0078H91.8537V43.7073H91.0398C87.8367 43.7073 84.6451 43.7073 81.4362 43.7073C80.6893 43.737 79.958 43.4884 79.384 43.0097C78.2214 42.0796 77.0064 41.1901 75.7914 40.3181C75.5033 40.1184 75.1649 40.0036 74.8147 39.9868C69.4955 39.9868 64.1763 39.9868 58.8571 39.9868C57.8572 39.9868 57.2293 40.5041 57.1886 41.3238C57.1479 42.1435 57.7176 42.6667 58.671 42.7888C60.9964 43.0911 63.374 43.405 65.7285 43.6782C66.0374 43.6943 66.3343 43.8034 66.5801 43.9912C66.826 44.179 67.0094 44.4366 67.1062 44.7304C68.4375 48.0092 70.9314 49.6718 74.4717 49.9625V52.3808C72.5329 52.378 70.633 51.8367 68.9839 50.8171C69.013 51.0554 69.013 51.2123 69.0479 51.3635C69.9995 55.5397 71.4415 59.5887 73.3439 63.4262C76.5283 69.9455 78.2014 77.099 78.2388 84.3543C78.2737 88.0981 78.2388 91.842 78.2388 95.5858C78.2695 96.2728 78.1565 96.9588 77.9072 97.5997C77.6579 98.2407 77.2777 98.8226 76.7908 99.3084C76.3039 99.7942 75.7211 100.173 75.0796 100.421C74.4381 100.669 73.7519 100.78 73.0649 100.748H51.2299C50.5325 100.788 49.8345 100.679 49.1818 100.43C48.5291 100.182 47.9363 99.7975 47.4423 99.3036C46.9484 98.8096 46.5643 98.2168 46.3154 97.5641C46.0665 96.9114 45.9583 96.2135 45.9979 95.516C45.9979 91.6153 45.9979 87.7203 45.9979 83.8195C46.0353 80.6682 46.4016 77.5294 47.0908 74.4541L49.4162 74.9425C49.1778 76.547 48.8755 78.0701 48.7534 79.5932C48.579 81.8023 48.4802 84.023 48.4453 86.2378C48.3988 89.3131 48.4453 92.3826 48.4453 95.4578C48.4453 97.2425 49.4452 98.2366 51.2299 98.2366H72.9138C74.7101 98.2366 75.7216 97.2542 75.7042 95.4695C75.6751 90.8188 75.7449 86.1681 75.5472 81.5174C75.2905 75.7746 73.8413 70.1482 71.2918 64.9959C69.0585 60.4308 67.3688 55.6192 66.2575 50.6601C66.2051 50.4101 66.1238 50.1717 66.054 49.9043H61.2231C62.3451 51.5728 62.3858 53.2063 61.2231 54.7876C62.3858 56.9385 62.3858 57.9907 61.2929 59.6475C61.624 60.3863 61.8829 61.1553 62.066 61.9439C62.1241 62.4551 62.0736 62.9729 61.9179 63.4633C61.7622 63.9537 61.5047 64.4057 61.1624 64.7898C60.82 65.1739 60.4004 65.4813 59.931 65.6922C59.4616 65.903 58.9531 66.0124 58.4385 66.0132C56.6364 66.0481 54.8284 66.0132 53.0205 66.0132C52.8313 65.9822 52.6375 66.0253 52.4794 66.1336C52.3213 66.2419 52.2111 66.407 52.1717 66.5945C51.5904 68.17 51.009 69.7221 50.387 71.3382L48.0616 70.6348C48.7011 68.8559 49.329 67.1468 49.9568 65.4028C48.1663 63.2925 48.0268 62.0485 49.3755 59.8684C48.7937 59.1964 48.4691 58.3398 48.4596 57.451C48.45 56.5622 48.756 55.6987 49.3232 55.0143C49.0236 54.4404 48.7802 53.8388 48.5965 53.218C48.5322 52.5801 48.5322 51.9374 48.5965 51.2996C47.4048 50.8926 47.2652 50.7182 47.2652 49.3637V45.0095H45.3468C43.0622 45.0095 41.5856 43.9457 41.167 42.004C40.7775 40.1728 41.7484 38.516 43.7598 37.6963C43.3993 37.5044 42.8761 37.3824 42.632 37.051C42.4155 36.6506 42.3168 36.1971 42.3471 35.743C42.3471 33.935 42.3471 32.1271 42.3471 30.3191C42.3471 29.4181 42.7947 28.9065 43.6319 28.9065C47.7012 28.9065 51.7706 28.9065 55.9155 28.9065V31.3771H49.7417C49.7417 32.7724 49.7417 34.0804 49.7417 35.3884C49.7505 35.4854 49.7787 35.5796 49.8246 35.6655C49.8706 35.7514 49.9333 35.8272 50.0091 35.8883C51.695 37.1149 53.3925 38.3241 55.1598 39.5856C56.2236 37.8009 57.8688 37.5044 59.7291 37.5684C61.7637 37.6382 63.7984 37.6149 65.8447 37.5684C66.5055 37.5417 67.1583 37.4142 67.7806 37.1905C68.9956 36.7603 70.1699 36.2197 71.3791 35.7779C71.9023 35.5861 71.9604 35.3302 71.8034 34.8535C71.4892 33.8449 70.8615 32.9629 70.0115 32.3356C69.1615 31.7083 68.1336 31.3684 67.0772 31.3655C64.496 31.3655 61.9091 31.3655 59.3279 31.3655H58.4501V28.9356C58.6361 28.9356 58.8571 28.889 59.078 28.889C61.6824 28.889 64.31 28.889 66.8969 28.889C68.749 28.8475 70.55 29.4985 71.9477 30.7144C73.3453 31.9304 74.2391 33.6239 74.4543 35.464C74.5648 36.2197 74.5996 36.958 73.8323 37.4695C73.9427 37.5219 73.9834 37.5626 74.0241 37.5568C75.6751 37.2661 76.9308 38.0044 78.14 39.0334C79.0817 39.8298 80.0235 40.7773 81.1397 41.1727C82.2558 41.568 83.6394 41.2831 84.9067 41.2831H92.4641C93.9581 41.2831 94.2895 41.6145 94.3069 43.0853V43.7655H97.6845C98.8472 43.7655 99.2599 44.1956 99.2599 45.3641C99.2599 50.0846 99.2599 54.8089 99.2599 59.5371C99.2599 60.6998 98.8297 61.1125 97.6612 61.1125H94.3534C94.3534 61.5485 94.3534 61.9496 94.3534 62.3508C94.3605 62.5078 94.3357 62.6647 94.2804 62.8118C94.2252 62.959 94.1406 63.0934 94.032 63.2069C93.9233 63.3205 93.7927 63.4109 93.6481 63.4726C93.5035 63.5342 93.348 63.5659 93.1908 63.5657C87.4181 63.5425 81.6396 63.5309 75.8088 63.5309ZM96.7834 58.543V46.2478H94.3593V58.543H96.7834ZM47.8698 42.4633C48.8465 42.4633 49.8289 42.4633 50.8114 42.4633C50.9855 42.4835 51.1618 42.4673 51.3293 42.4156C51.4967 42.3639 51.6515 42.2778 51.7839 42.163C51.9163 42.0481 52.0233 41.9069 52.098 41.7485C52.1728 41.59 52.2137 41.4176 52.2182 41.2424C52.22 41.0667 52.1846 40.8925 52.1143 40.7315C52.0439 40.5704 51.9403 40.4261 51.8101 40.308C51.6799 40.1899 51.5262 40.1008 51.359 40.0464C51.1919 39.992 51.0152 39.9737 50.8404 39.9926C48.8813 39.9926 46.9164 39.9926 44.9573 39.9926C44.7837 39.9705 44.6073 39.9852 44.4398 40.036C44.2723 40.0867 44.1174 40.1721 43.9852 40.2868C43.8529 40.4015 43.7463 40.5428 43.6725 40.7014C43.5986 40.8601 43.559 41.0326 43.5563 41.2076C43.5563 41.9633 44.0969 42.4516 45.0038 42.4633C45.9107 42.4749 46.9106 42.4633 47.8698 42.4633ZM55.2876 53.6191C56.2934 53.6191 57.3049 53.6191 58.3106 53.6191C58.4825 53.6358 58.656 53.6164 58.8199 53.562C58.9839 53.5077 59.1347 53.4197 59.2626 53.3036C59.3905 53.1876 59.4927 53.046 59.5626 52.8881C59.6326 52.7302 59.6687 52.5594 59.6687 52.3866C59.6687 52.2139 59.6326 52.0431 59.5626 51.8852C59.4927 51.7273 59.3905 51.5858 59.2626 51.4697C59.1347 51.3537 58.9839 51.2656 58.8199 51.2113C58.656 51.1569 58.4825 51.1375 58.3106 51.1542C56.3224 51.1542 54.3343 51.1542 52.3461 51.1542C52.1742 51.1375 52.0007 51.1569 51.8367 51.2113C51.6728 51.2656 51.522 51.3537 51.3941 51.4697C51.2662 51.5858 51.164 51.7273 51.0941 51.8852C51.0241 52.0431 50.988 52.2139 50.988 52.3866C50.988 52.5594 51.0241 52.7302 51.0941 52.8881C51.164 53.046 51.2662 53.1876 51.3941 53.3036C51.522 53.4197 51.6728 53.5077 51.8367 53.562C52.0007 53.6164 52.1742 53.6358 52.3461 53.6191C53.3285 53.6365 54.3052 53.6191 55.2876 53.6191ZM55.4097 56.1014C54.404 56.1014 53.3925 56.1014 52.3868 56.1014C52.2128 56.081 52.0365 56.0974 51.8693 56.1496C51.7021 56.2017 51.5477 56.2885 51.4161 56.4041C51.2845 56.5198 51.1788 56.6618 51.1056 56.821C51.0325 56.9801 50.9937 57.1529 50.9916 57.328C50.9897 57.503 51.025 57.6764 51.0951 57.8367C51.1651 57.9971 51.2683 58.1408 51.398 58.2583C51.5276 58.3759 51.6807 58.4646 51.8471 58.5187C52.0136 58.5728 52.1896 58.591 52.3635 58.5721C54.3285 58.5721 56.2876 58.5721 58.2525 58.5721C58.4285 58.5963 58.6077 58.5825 58.778 58.5317C58.9483 58.4809 59.1057 58.3942 59.2397 58.2774C59.3736 58.1607 59.481 58.0165 59.5546 57.8548C59.6281 57.693 59.6662 57.5174 59.6662 57.3396C59.6662 57.1619 59.6281 56.9863 59.5546 56.8245C59.481 56.6628 59.3736 56.5186 59.2397 56.4019C59.1057 56.2851 58.9483 56.1984 58.778 56.1476C58.6077 56.0968 58.4285 56.083 58.2525 56.1072C57.3165 56.1014 56.3922 56.1014 55.4097 56.1014ZM55.3225 63.5367C56.2992 63.5367 57.2816 63.5367 58.2641 63.5367C58.4386 63.5575 58.6156 63.541 58.7834 63.4885C58.9511 63.4359 59.1058 63.3483 59.2372 63.2316C59.3686 63.1148 59.4739 62.9716 59.5459 62.8112C59.618 62.6509 59.6552 62.4771 59.6552 62.3014C59.6552 62.1256 59.618 61.9518 59.5459 61.7914C59.4739 61.6311 59.3686 61.4878 59.2372 61.3711C59.1058 61.2544 58.9511 61.1669 58.7834 61.1143C58.6156 61.0617 58.4386 61.0453 58.2641 61.066C56.2992 61.066 54.3401 61.066 52.3752 61.066C52.2006 61.0453 52.0236 61.0617 51.8559 61.1143C51.6882 61.1669 51.5335 61.2544 51.4021 61.3711C51.2706 61.4878 51.1654 61.6311 51.0934 61.7914C51.0213 61.9518 50.9841 62.1256 50.9841 62.3014C50.9841 62.4771 51.0213 62.6509 51.0934 62.8112C51.1654 62.9716 51.2706 63.1148 51.4021 63.2316C51.5335 63.3483 51.6882 63.4359 51.8559 63.4885C52.0236 63.541 52.2006 63.5575 52.3752 63.5367C53.3576 63.5483 54.3401 63.5367 55.3225 63.5367ZM65.7866 47.393C65.3215 46.8117 65.0425 46.1547 64.6646 46.0908C62.6183 45.7362 60.5487 45.5094 58.4618 45.2711V47.3814L65.7866 47.393ZM53.5785 48.6196H55.9387C55.8569 47.6874 55.8569 46.7498 55.9387 45.8176C56.2236 44.2945 55.09 43.3934 54.6714 42.19H54.3692L53.5785 48.6196ZM47.1838 35.0105V31.3597H44.8294V35.0105H47.1838ZM51.0962 48.6312L51.4857 44.9979H49.7417V48.6312H51.0962Z" fill="#9748E7"/>
<path d="M65.5365 73.4543H70.4953C71.6115 73.4543 72.0591 73.8903 72.0475 74.9948C72.1011 77.0058 72.0468 79.0181 71.8847 81.0233C71.6193 82.9753 70.6763 84.772 69.2204 86.0992C67.7646 87.4265 65.8887 88.1999 63.9204 88.2842C60.4673 88.4004 57.0025 88.3249 53.5436 88.3249C52.8285 88.3249 52.253 87.947 52.2588 87.2435C52.2937 84.8019 52.1426 82.308 52.5902 79.9304C53.282 76.2214 56.7991 73.5705 60.5836 73.4717C62.2346 73.4252 63.8855 73.4717 65.5365 73.4717V73.4543ZM54.8109 85.8309C57.828 85.8309 60.8452 85.9123 63.8565 85.8309C65.1863 85.7682 66.4559 85.2581 67.4594 84.3833C68.4629 83.5086 69.1414 82.3204 69.385 81.0116C69.5646 79.3435 69.65 77.6666 69.6408 75.9889C66.3969 75.9889 63.3042 75.8552 60.2231 76.0238C58.8798 76.1137 57.6094 76.6671 56.6286 77.5895C55.6479 78.5119 55.0178 79.7461 54.8458 81.0814C54.7301 82.6621 54.7185 84.2487 54.8109 85.8309Z" fill="#9748E7"/>
<path d="M26.0522 26.2149L27.151 24L31.5866 26.2149L30.4762 28.424L26.0522 26.2149Z" fill="#9748E7"/>
<path d="M33.813 30.0924L34.9118 27.8774L39.3415 30.0807L38.2428 32.2957L33.813 30.0924Z" fill="#9748E7"/>
<path d="M25 37.4985V35.1093H29.8716V37.4985H25Z" fill="#9748E7"/>
<path d="M33.6677 37.4521V35.0685H38.5277V37.4521H33.6677Z" fill="#9748E7"/>
<path d="M38.2428 40.1263L39.3415 42.3411L34.9176 44.5561L33.8073 42.3411L38.2428 40.1263Z" fill="#9748E7"/>
<path d="M26.0406 46.2186L30.4646 44.0095L31.5866 46.2128L27.1568 48.4277L26.0406 46.2186Z" fill="#9748E7"/>
</svg>
