<svg width="124" height="124" viewBox="0 0 124 124" fill="none" xmlns="http://www.w3.org/2000/svg">
<rect width="124" height="124" rx="62" fill="#EEF9FF"/>
<path d="M63.9885 27.0322C65.3361 27.2148 66.673 27.349 68.0314 27.5692C74.5172 28.6903 80.5463 31.6452 85.4058 36.0845C85.6505 36.2638 85.829 36.519 85.9134 36.8104C85.9979 37.1017 85.9837 37.4129 85.8729 37.6952C85.781 37.9673 85.6052 38.2033 85.3707 38.3692C85.1363 38.5351 84.8554 38.6225 84.5682 38.6187C81.0461 38.8281 79.1132 41.5664 80.23 44.9381C80.7213 46.2041 81.3064 47.4316 81.9803 48.6106C82.9253 50.4951 84.1279 52.2884 84.8044 54.2535C85.9735 57.7597 85.9603 61.5527 84.7668 65.0508C83.1561 70.1353 81.3414 75.1446 79.6125 80.1862C79.4998 80.5084 79.387 80.8305 79.2635 81.1473C79.1772 81.4332 78.9987 81.6824 78.756 81.8562C78.5132 82.0301 78.2197 82.1187 77.9213 82.1083C77.6325 82.1111 77.3506 82.0199 77.1182 81.8485C76.8858 81.6771 76.7154 81.4348 76.6327 81.158C76.3696 80.4601 76.1334 79.7459 75.8918 79.0426C72.3983 68.7984 68.9048 58.556 65.4113 48.3153C64.8744 46.7851 65.363 46.0925 66.9844 45.969C67.8864 45.9046 68.7938 45.7865 69.7012 45.7489C70.2381 45.7489 70.2757 45.4482 70.2649 45.0402C70.2542 44.6321 69.9804 44.5784 69.6207 44.5891C66.0986 44.7073 62.5818 44.863 59.0597 44.8952C57.1322 44.8952 55.1993 44.718 53.2718 44.616C52.3054 44.5623 52.2463 44.616 52.4933 45.6898C53.508 45.7865 54.5443 45.9046 55.5805 45.9637C55.9228 45.9654 56.2558 46.0761 56.5309 46.2798C56.8061 46.4835 57.0091 46.7696 57.1107 47.0965C58.3778 50.4952 59.6717 53.8884 60.9066 57.2978C61.0658 57.7647 61.0752 58.2696 60.9335 58.7421C58.5711 65.9009 56.1836 73.0686 53.7711 80.2453C53.7056 80.5717 53.5314 80.8662 53.2768 81.0808C53.0223 81.2953 52.7026 81.4172 52.3698 81.4265C51.6879 81.4265 51.2315 80.9862 50.9094 80.0305C47.4052 69.6037 43.9009 59.1751 40.3967 48.7448C39.6772 46.5972 39.9672 46.1462 42.2222 45.9153C42.9041 45.8509 43.5806 45.8079 44.2625 45.7381C45.1806 45.6415 45.2074 45.5824 44.9497 44.5516C43.5215 44.6321 42.0773 44.7448 40.6544 44.7878C38.4746 44.8522 36.2948 44.863 34.1149 44.9006C33.8405 44.9292 33.5639 44.8755 33.3201 44.7464C33.0763 44.6174 32.8763 44.4188 32.7458 44.1758C32.6101 43.9212 32.5535 43.6319 32.5831 43.345C32.6128 43.058 32.7273 42.7865 32.9122 42.565C37.0601 36.3243 43.1125 31.5901 50.1685 29.0672C53.0943 28.0033 56.1532 27.3492 59.2583 27.1235C59.4401 27.0956 59.6195 27.0542 59.7952 27L63.9885 27.0322ZM77.9481 76.4923C78.4474 75.0963 78.9038 73.8883 79.3065 72.6641C80.3266 69.5393 81.4112 66.4306 82.2971 63.2736C83.0899 60.6607 83.0561 57.8666 82.2004 55.2736C81.5444 53.6579 80.7765 52.09 79.9025 50.5811C79.2098 49.2334 78.3615 47.9448 77.8085 46.5435C76.6757 43.6764 76.8099 40.8684 78.8394 38.3986C79.5848 37.62 80.3909 36.9019 81.2501 36.251C73.1428 30.4041 64.1281 28.4336 54.2919 30.7477C47.2949 32.3696 41.0903 36.3983 36.7619 42.1301C39.2907 42.0764 41.7873 41.9422 44.2786 41.7811C46.3779 41.6415 47.5483 42.5489 47.8275 44.6321C48.053 46.3449 47.2154 48.4334 44.8906 48.4817C44.3537 48.4817 43.8759 48.5945 43.2799 48.6643C46.2973 57.6522 49.2879 66.5541 52.3268 75.5902C52.4342 75.3379 52.4825 75.2413 52.5147 75.1393C54.3724 69.5876 56.223 64.0396 58.0664 58.4951C58.1489 58.1975 58.1338 57.8815 58.0234 57.5931C57.1644 55.2468 56.1979 52.9434 55.4355 50.5703C55.0006 49.2066 54.4315 48.31 52.8476 48.5247C52.5758 48.5623 52.2988 48.5308 52.0423 48.4334C51.4623 48.2639 50.917 47.9931 50.4315 47.6334C49.4275 46.6992 49.2557 44.8254 49.8946 43.4241C50.4906 42.1462 51.4248 41.6684 53.0839 41.8134C57.1601 42.1918 61.2583 42.2779 65.3469 42.0711C66.9093 41.9637 68.4771 41.8617 70.0448 41.7919C70.5709 41.753 71.096 41.8796 71.5466 42.154C71.9972 42.4284 72.3507 42.8368 72.5576 43.322C72.8057 43.8111 72.9522 44.3453 72.9882 44.8925C73.0242 45.4397 72.9489 45.9886 72.767 46.5059C72.6168 47.0604 72.2927 47.5521 71.8423 47.9087C71.3919 48.2653 70.8391 48.468 70.2649 48.4871C69.669 48.5354 69.073 48.616 68.4233 48.6857C71.6394 57.9421 74.775 67.1286 77.9642 76.4923H77.9481Z" fill="#24ABF5"/>
<path d="M96.8633 63.993C96.6432 65.5393 96.4875 67.1017 96.1922 68.6319C95.2482 73.437 93.3068 77.9906 90.4935 81.9987C87.6802 86.0069 84.0575 89.3804 79.8594 91.9015C79.0594 92.3847 78.4366 92.4384 77.9158 91.9713C77.3037 91.4344 77.3789 90.7955 77.6097 90.1028C81.2965 79.5007 84.9761 68.8932 88.6486 58.2803C89.9508 54.6548 90.4349 50.7861 90.066 46.9515C90.0338 46.5918 90.0124 46.2267 90.0124 45.8777C90.0093 45.5816 90.1035 45.2927 90.2805 45.0553C90.4575 44.8179 90.7075 44.645 90.9921 44.5633C91.2768 44.4817 91.5803 44.4957 91.8563 44.6031C92.1322 44.7106 92.3653 44.9056 92.5197 45.1582C92.9137 45.8224 93.2721 46.507 93.5935 47.2092C95.3473 50.9831 96.4145 55.0393 96.7452 59.1877C96.7729 59.3889 96.8142 59.588 96.8687 59.7836L96.8633 63.993ZM81.5077 87.3646C92.9761 78.5969 96.1922 63.9608 92.7828 53.1474C92.7291 53.3729 92.6969 53.5179 92.6593 53.6575C92.1654 55.6387 91.811 57.6628 91.1613 59.5635C88.6325 67.0158 86.007 74.4305 83.4191 81.8667C82.7802 83.66 82.1735 85.4318 81.5077 87.3646Z" fill="#24ABF5"/>
<path d="M27.0008 60.1971C26.9686 57.475 27.9243 52.6804 29.9162 48.0522C30.1954 47.3972 30.5873 46.9086 31.3712 46.9408C32.1551 46.973 32.5094 47.4777 32.7511 48.1542L41.8785 73.2064C44.0261 79.1088 46.1738 85.0148 48.3214 90.9244C48.6113 91.7029 48.9711 92.4975 48.1711 93.1687C47.3711 93.8398 46.6516 93.3673 45.9107 92.9807C38.9544 89.4115 33.4073 83.5977 30.1685 76.4815C28.139 72.052 27.1243 67.3702 27.0008 60.1971ZM44.7188 89.0076C40.2356 76.7232 35.8061 64.5997 31.3551 52.4065C27.2907 64.4064 31.2316 80.6157 44.6973 89.0076H44.7188Z" fill="#24ABF5"/>
<path d="M62.587 96.8626C59.115 96.8841 55.6567 96.4251 52.3106 95.4988C51.2367 95.1927 50.8878 94.4787 51.2797 93.3512C52.5719 89.5498 53.8748 85.7521 55.1884 81.958C57.1213 76.3419 59.0559 70.7222 60.9924 65.099L61.089 64.8467C61.4112 63.9232 61.8407 63.5205 62.5172 63.5097C63.1937 63.499 63.6555 63.9124 63.983 64.8037C66.6675 72.1558 69.3521 79.5079 72.0366 86.8599C72.7937 88.9217 73.5722 90.978 74.3507 93.0397C74.4359 93.2221 74.4791 93.4213 74.4772 93.6226C74.4753 93.8238 74.4283 94.0222 74.3397 94.2029C74.2512 94.3837 74.1232 94.5423 73.9653 94.6671C73.8074 94.792 73.6235 94.8798 73.4272 94.9243C71.0111 95.5202 68.595 96.1162 66.136 96.5726C64.9601 96.7424 63.7748 96.8392 62.587 96.8626ZM54.2757 93.1417C59.8588 94.5062 65.7051 94.3543 71.2097 92.7015C68.3373 84.8304 65.4863 77.0184 62.5709 69.0453C59.7629 77.1902 57.03 85.1418 54.2757 93.1417Z" fill="#24ABF5"/>
<path d="M58.3294 92.2505C58.1366 92.2535 57.9454 92.2152 57.7688 92.138C57.5921 92.0608 57.434 91.9465 57.3053 91.803C57.1765 91.6595 57.08 91.49 57.0223 91.306C56.9647 91.122 56.9472 90.9278 56.971 90.7364C57.0013 90.5118 57.0534 90.2906 57.1268 90.0761C57.8194 87.9875 58.4851 85.8882 59.2314 83.8157C59.4072 83.3395 59.7407 82.9378 60.1764 82.6774C60.3852 82.5856 60.6146 82.5503 60.8413 82.5752C61.0681 82.6001 61.2843 82.6842 61.4683 82.8191C61.6522 82.9541 61.7974 83.1351 61.8892 83.344C61.981 83.5528 62.0161 83.7822 61.9911 84.009C61.9692 84.2341 61.9205 84.4557 61.8462 84.6693C61.1303 86.817 60.4144 88.9485 59.6985 91.0639C59.4623 91.8747 59.0113 92.2451 58.3294 92.2505Z" fill="#24ABF5"/>
<path d="M63.7254 78.7956C63.7254 79.8694 63.0328 80.7123 62.1845 80.7177C62.003 80.7163 61.8237 80.679 61.6568 80.608C61.4898 80.537 61.3386 80.4335 61.2118 80.3038C61.0851 80.174 60.9852 80.0204 60.9181 79.8519C60.851 79.6833 60.8179 79.5032 60.8207 79.3218C60.8207 78.248 61.5241 77.3997 62.3563 77.3997C62.5379 77.4011 62.7175 77.4383 62.8848 77.5092C63.052 77.5802 63.2036 77.6836 63.3308 77.8133C63.458 77.943 63.5583 78.0965 63.626 78.2651C63.6937 78.4336 63.7275 78.614 63.7254 78.7956Z" fill="#24ABF5"/>
</svg>
