<svg width="58" height="35" viewBox="0 0 58 35" fill="none" xmlns="http://www.w3.org/2000/svg">
<path d="M6.81505 32.7695L6.26432 33.6042L6.26733 33.6062L6.81505 32.7695ZM2.03699 26.9048L1.12084 27.3056L1.12145 27.3071L2.03699 26.9048ZM0.375061 17.6843L-0.624934 17.6813L0.375061 17.6843ZM2.05297 8.54368L1.13932 8.13718L1.13852 8.13898L2.05297 8.54368ZM6.81505 2.80682L7.35249 3.65012L7.35361 3.64941L6.81505 2.80682ZM21.5807 2.80682L21.0421 3.64942L21.0472 3.65262L21.5807 2.80682ZM26.3747 8.54368L27.2884 8.13718V8.13718L26.3747 8.54368ZM28.0366 17.6843L27.0366 17.6813V17.6843H28.0366ZM26.3587 26.9208L25.4426 26.52L26.3587 26.9208ZM21.5807 32.7855L22.1273 33.6229L22.1284 33.6222L21.5807 32.7855ZM18.3367 25.7223L19.1914 26.2414L19.1928 26.2391L18.3367 25.7223ZM19.9028 17.6843H18.9028L18.9028 17.6873L19.9028 17.6843ZM19.1837 11.8356L18.2286 12.132L18.2292 12.1339L19.1837 11.8356ZM17.1861 8.38388L17.8499 7.63595V7.63595L17.1861 8.38388ZM10.091 9.82209L10.9437 10.3444L10.9452 10.342L10.091 9.82209ZM8.50894 17.6843L9.50893 17.6887L9.50893 17.6873L8.50894 17.6843ZM9.19608 23.6449L8.23753 23.9299L8.23933 23.9358L9.19608 23.6449ZM11.2096 27.1765L10.5401 27.9193L10.5452 27.9239L11.2096 27.1765ZM14.1979 33.799C11.5063 33.799 9.24255 33.1635 7.36276 31.9329L6.26733 33.6062C8.52107 35.0816 11.1792 35.799 14.1979 35.799V33.799ZM7.36577 31.9348C5.47898 30.69 4.00354 28.8949 2.95253 26.5026L1.12145 27.3071C2.30766 30.0071 4.01759 32.1218 6.26433 33.6042L7.36577 31.9348ZM2.95315 26.504C1.90375 24.1054 1.3647 21.1767 1.37506 17.6873L-0.624934 17.6813C-0.635887 21.3723 -0.0669802 24.5906 1.12084 27.3056L2.95315 26.504ZM1.37506 17.6873C1.38542 14.1944 1.93001 11.2925 2.96743 8.94837L1.13852 8.13898C-0.0399673 10.8019 -0.613992 13.9938 -0.624934 17.6813L1.37506 17.6873ZM2.96663 8.95017C4.01603 6.59151 5.48266 4.84177 7.35249 3.65012L6.27761 1.96352C4.03522 3.3926 2.32713 5.46744 1.13932 8.13718L2.96663 8.95017ZM7.35361 3.64941C9.23461 2.44711 11.5017 1.82528 14.1979 1.82528V-0.174717C11.1838 -0.174717 8.529 0.524477 6.27649 1.96423L7.35361 3.64941ZM14.1979 1.82528C16.894 1.82528 19.1611 2.44711 21.0421 3.64941L22.1192 1.96423C19.8667 0.524477 17.2119 -0.174717 14.1979 -0.174717V1.82528ZM21.0472 3.65262C22.9375 4.84495 24.4129 6.59424 25.4611 8.95017L27.2884 8.13718C26.0993 5.46471 24.3787 3.38942 22.1142 1.96102L21.0472 3.65262ZM25.4611 8.95017C26.5078 11.3029 27.047 14.2022 27.0366 17.6813L29.0366 17.6873C29.0476 14.0073 28.4788 10.8128 27.2884 8.13718L25.4611 8.95017ZM27.0366 17.6843C27.0366 21.1856 26.4923 24.1205 25.4426 26.52L27.2749 27.3216C28.4623 24.6074 29.0366 21.3847 29.0366 17.6843H27.0366ZM25.4426 26.52C24.3914 28.9226 22.9167 30.7157 21.033 31.9488L22.1284 33.6222C24.3782 32.1494 26.0888 30.0326 27.2749 27.3216L25.4426 26.52ZM21.034 31.9482C19.1662 33.1676 16.9026 33.799 14.1979 33.799V35.799C17.2246 35.799 19.883 35.0881 22.1273 33.6229L21.034 31.9482ZM14.1979 29.3271C16.3237 29.3271 17.9962 28.2093 19.1914 26.2414L17.482 25.2032C16.5679 26.7083 15.4811 27.3271 14.1979 27.3271V29.3271ZM19.1928 26.2391C20.39 24.2559 20.9136 21.3537 20.9028 17.6814L18.9028 17.6873C18.9132 21.2379 18.3928 23.6944 17.4806 25.2055L19.1928 26.2391ZM20.9028 17.6843C20.9028 15.2611 20.6583 13.2018 20.1381 11.5373L18.2292 12.1339C18.6678 13.5375 18.9028 15.3774 18.9028 17.6843H20.9028ZM20.1387 11.5392C19.6268 9.88955 18.8843 8.55399 17.8499 7.63595L16.5224 9.1318C17.1925 9.72655 17.7817 10.6921 18.2286 12.132L20.1387 11.5392ZM17.8499 7.63595C16.8146 6.7171 15.5823 6.24929 14.1979 6.24929V8.24929C15.0932 8.24929 15.8531 8.53787 16.5224 9.1318L17.8499 7.63595ZM14.1979 6.24929C12.0852 6.24929 10.4228 7.35369 9.23677 9.30214L10.9452 10.342C11.8472 8.86009 12.9227 8.24929 14.1979 8.24929V6.24929ZM9.23822 9.29978C8.05007 11.2396 7.51978 14.0835 7.50894 17.6813L9.50893 17.6873C9.51941 14.2113 10.0438 11.8137 10.9437 10.3444L9.23822 9.29978ZM7.50895 17.6799C7.49804 20.1344 7.7313 22.227 8.23755 23.9299L10.1546 23.3599C9.72337 21.9093 9.49853 20.0283 9.50893 17.6887L7.50895 17.6799ZM8.23933 23.9358C8.75061 25.6173 9.497 26.9792 10.5401 27.9193L11.8791 26.4337C11.1963 25.8183 10.6004 24.8258 10.1528 23.354L8.23933 23.9358ZM10.5452 27.9239C11.5867 28.8496 12.8177 29.3271 14.1979 29.3271V27.3271C13.3195 27.3271 12.5583 27.0374 11.8739 26.4291L10.5452 27.9239ZM33.467 34H32.467V35H33.467V34ZM33.467 28.3111L32.8083 27.5587L32.467 27.8575V28.3111H33.467ZM45.4041 17.8601L46.0629 18.6125L46.069 18.6071L46.0751 18.6016L45.4041 17.8601ZM47.6893 15.6388L48.4192 16.3224L48.4245 16.3167L47.6893 15.6388ZM49.1275 13.5934L50.0275 14.0293L50.0301 14.0239L49.1275 13.5934ZM49.0316 9.02308L48.1766 9.54171L48.1805 9.54797L49.0316 9.02308ZM47.4017 7.52095L46.949 8.41262L47.4017 7.52095ZM42.6396 7.55291L43.1088 8.43609L43.1194 8.43028L42.6396 7.55291ZM41.0416 9.13494L40.1667 8.65041L40.1611 8.66084L41.0416 9.13494ZM40.4823 11.6598V12.6598H41.4823V11.6598H40.4823ZM32.9876 11.6598H31.9876V12.6598H32.9876V11.6598ZM34.4897 5.89098L35.3402 6.41695V6.41695L34.4897 5.89098ZM38.7085 2.15163L39.1429 3.05233L39.1451 3.05126L38.7085 2.15163ZM51.5245 2.07173L51.9375 1.161V1.161L51.5245 2.07173ZM55.7752 5.5554L54.945 6.11285L54.9496 6.11965L55.7752 5.5554ZM56.5423 14.4244L55.6166 14.046V14.046L56.5423 14.4244ZM53.8416 18.4833L53.0901 17.8237L53.0874 17.8267L53.8416 18.4833ZM48.3445 23.8047L47.6881 23.0502L47.6772 23.0598L47.6665 23.0697L48.3445 23.8047ZM44.4294 27.4162L43.7513 26.6812L43.4294 26.9782V27.4162H44.4294ZM44.4294 27.6239H43.4294V28.6239H44.4294V27.6239ZM57.6929 27.6239H58.6929V26.6239H57.6929V27.6239ZM57.6929 34V35H58.6929V34H57.6929ZM34.467 34V28.3111H32.467V34H34.467ZM34.1257 29.0635L46.0629 18.6125L44.7454 17.1077L32.8083 27.5587L34.1257 29.0635ZM46.0751 18.6016C46.9845 17.7788 47.767 17.0188 48.4192 16.3224L46.9594 14.9553C46.3545 15.6012 45.6136 16.3221 44.7332 17.1185L46.0751 18.6016ZM48.4245 16.3167C49.1053 15.5782 49.6462 14.8166 50.0275 14.0293L48.2275 13.1575C47.9483 13.7339 47.5304 14.3358 46.9541 14.961L48.4245 16.3167ZM50.0301 14.0239C50.428 13.1895 50.6229 12.2904 50.6229 11.3402H48.6229C48.6229 12.0093 48.4875 12.6123 48.2249 13.1629L50.0301 14.0239ZM50.6229 11.3402C50.6229 10.2876 50.3926 9.32493 49.8828 8.49819L48.1805 9.54797C48.459 9.99965 48.6229 10.5817 48.6229 11.3402H50.6229ZM49.8866 8.50447C49.3936 7.69156 48.7093 7.06332 47.8544 6.62928L46.949 8.41262C47.479 8.68171 47.8813 9.05489 48.1766 9.54169L49.8866 8.50447ZM47.8544 6.62928C47.0016 6.19637 46.0488 5.99361 45.0206 5.99361V7.99361C45.7822 7.99361 46.4167 8.14241 46.949 8.41262L47.8544 6.62928ZM45.0206 5.99361C43.9753 5.99361 43.0114 6.20983 42.1598 6.67554L43.1194 8.43028C43.6314 8.15026 44.2549 7.99361 45.0206 7.99361V5.99361ZM42.1704 6.6698C41.3132 7.12522 40.6416 7.79317 40.1668 8.65044L41.9164 9.61944C42.2086 9.09177 42.6024 8.70503 43.1087 8.43603L42.1704 6.6698ZM40.1611 8.66084C39.692 9.53208 39.4823 10.5457 39.4823 11.6598H41.4823C41.4823 10.7924 41.6454 10.1228 41.922 9.60904L40.1611 8.66084ZM40.4823 10.6598H32.9876V12.6598H40.4823V10.6598ZM33.9876 11.6598C33.9876 9.58708 34.4521 7.85309 35.3402 6.41695L33.6392 5.36501C32.5245 7.1675 31.9876 9.2794 31.9876 11.6598H33.9876ZM35.3402 6.41695C36.2357 4.96888 37.4933 3.84803 39.1429 3.05233L38.274 1.25094C36.3015 2.20239 34.7466 3.57444 33.6392 5.36501L35.3402 6.41695ZM39.1451 3.05126C40.8074 2.24442 42.7679 1.82528 45.0526 1.82528V-0.174717C42.522 -0.174717 40.253 0.290377 38.2718 1.25201L39.1451 3.05126ZM45.0526 1.82528C47.4248 1.82528 49.4355 2.2224 51.1115 2.98246L51.9375 1.161C49.9488 0.25913 47.6448 -0.174717 45.0526 -0.174717V1.82528ZM51.1115 2.98246C52.7956 3.74617 54.0592 4.79357 54.945 6.11283L56.6055 4.99796C55.4884 3.33427 53.9182 2.05923 51.9375 1.161L51.1115 2.98246ZM54.9496 6.11965C55.8375 7.41879 56.2934 8.93854 56.2934 10.717H58.2934C58.2934 8.57496 57.7371 6.65365 56.6008 4.99114L54.9496 6.11965ZM56.2934 10.717C56.2934 11.8258 56.0713 12.9335 55.6166 14.046L57.468 14.8027C58.0147 13.465 58.2934 12.101 58.2934 10.717H56.2934ZM55.6166 14.046C55.1731 15.1312 54.3488 16.3896 53.0901 17.8237L54.5932 19.143C55.9339 17.6154 56.9101 16.1678 57.468 14.8027L55.6166 14.046ZM53.0874 17.8267C51.8411 19.2584 50.0471 20.998 47.6881 23.0502L49.0008 24.5591C51.3933 22.4778 53.264 20.6699 54.5959 19.1399L53.0874 17.8267ZM47.6665 23.0697L43.7513 26.6812L45.1074 28.1512L49.0225 24.5397L47.6665 23.0697ZM43.4294 27.4162V27.6239H45.4294V27.4162H43.4294ZM44.4294 28.6239H57.6929V26.6239H44.4294V28.6239ZM56.6929 27.6239V34H58.6929V27.6239H56.6929ZM57.6929 33H33.467V35H57.6929V33Z" fill="#D8D8D8"/>
</svg>
