<svg width="60" height="35" viewBox="0 0 60 35" fill="none" xmlns="http://www.w3.org/2000/svg">
<path d="M7.15587 32.7695L6.60514 33.6042L6.60815 33.6062L7.15587 32.7695ZM2.37781 26.9048L1.46166 27.3056L1.46227 27.3071L2.37781 26.9048ZM0.715882 17.6843L-0.284114 17.6813L0.715882 17.6843ZM2.39379 8.54368L1.48014 8.13718L1.47934 8.13898L2.39379 8.54368ZM7.15587 2.80682L7.69331 3.65012L7.69443 3.64941L7.15587 2.80682ZM21.9215 2.80682L21.3829 3.64942L21.388 3.65262L21.9215 2.80682ZM26.7155 8.54368L27.6292 8.13718V8.13718L26.7155 8.54368ZM28.3775 17.6843L27.3775 17.6813V17.6843H28.3775ZM26.6995 26.9208L25.7834 26.52L26.6995 26.9208ZM21.9215 32.7855L22.4682 33.6229L22.4692 33.6222L21.9215 32.7855ZM18.6775 25.7223L19.5322 26.2414L19.5336 26.2391L18.6775 25.7223ZM20.2436 17.6843H19.2436L19.2436 17.6873L20.2436 17.6843ZM19.5245 11.8356L18.5694 12.132L18.57 12.1339L19.5245 11.8356ZM17.527 8.38388L18.1907 7.63595V7.63595L17.527 8.38388ZM10.4318 9.82209L11.2845 10.3444L11.286 10.342L10.4318 9.82209ZM8.84976 17.6843L9.84975 17.6887L9.84976 17.6873L8.84976 17.6843ZM9.5369 23.6449L8.57835 23.9299L8.58015 23.9358L9.5369 23.6449ZM11.5504 27.1765L10.8809 27.9193L10.886 27.9239L11.5504 27.1765ZM14.5387 33.799C11.8471 33.799 9.58337 33.1635 7.70358 31.9329L6.60815 33.6062C8.86189 35.0816 11.5201 35.799 14.5387 35.799V33.799ZM7.70659 31.9348C5.8198 30.69 4.34437 28.8949 3.29335 26.5026L1.46227 27.3071C2.64848 30.0071 4.35841 32.1218 6.60515 33.6042L7.70659 31.9348ZM3.29397 26.504C2.24457 24.1054 1.70552 21.1767 1.71588 17.6873L-0.284114 17.6813C-0.295066 21.3723 0.27384 24.5906 1.46166 27.3056L3.29397 26.504ZM1.71588 17.6873C1.72624 14.1944 2.27083 11.2925 3.30825 8.94837L1.47934 8.13898C0.300853 10.8019 -0.273172 13.9938 -0.284114 17.6813L1.71588 17.6873ZM3.30745 8.95017C4.35685 6.59151 5.82348 4.84177 7.69331 3.65012L6.61843 1.96352C4.37604 3.3926 2.66795 5.46744 1.48014 8.13718L3.30745 8.95017ZM7.69443 3.64941C9.57543 2.44711 11.8425 1.82528 14.5387 1.82528V-0.174717C11.5246 -0.174717 8.86982 0.524477 6.61731 1.96423L7.69443 3.64941ZM14.5387 1.82528C17.2349 1.82528 19.5019 2.44711 21.3829 3.64941L22.4601 1.96423C20.2075 0.524477 17.5527 -0.174717 14.5387 -0.174717V1.82528ZM21.388 3.65262C23.2783 4.84495 24.7537 6.59424 25.8019 8.95017L27.6292 8.13718C26.4402 5.46471 24.7195 3.38942 22.455 1.96102L21.388 3.65262ZM25.8019 8.95017C26.8487 11.3029 27.3878 14.2022 27.3775 17.6813L29.3775 17.6873C29.3884 14.0073 28.8196 10.8128 27.6292 8.13718L25.8019 8.95017ZM27.3775 17.6843C27.3775 21.1856 26.8331 24.1205 25.7834 26.52L27.6157 27.3216C28.8032 24.6074 29.3775 21.3847 29.3775 17.6843H27.3775ZM25.7834 26.52C24.7322 28.9226 23.2575 30.7157 21.3738 31.9488L22.4692 33.6222C24.719 32.1494 26.4296 30.0326 27.6157 27.3216L25.7834 26.52ZM21.3748 31.9482C19.507 33.1676 17.2434 33.799 14.5387 33.799V35.799C17.5655 35.799 20.2238 35.0881 22.4682 33.6229L21.3748 31.9482ZM14.5387 29.3271C16.6646 29.3271 18.337 28.2093 19.5322 26.2414L17.8228 25.2032C16.9087 26.7083 15.8219 27.3271 14.5387 27.3271V29.3271ZM19.5336 26.2391C20.7308 24.2559 21.2544 21.3537 21.2436 17.6814L19.2436 17.6873C19.2541 21.2379 18.7336 23.6944 17.8214 25.2055L19.5336 26.2391ZM21.2436 17.6843C21.2436 15.2611 20.9991 13.2018 20.479 11.5373L18.57 12.1339C19.0086 13.5375 19.2436 15.3774 19.2436 17.6843H21.2436ZM20.4795 11.5392C19.9676 9.88955 19.2252 8.55399 18.1907 7.63595L16.8632 9.1318C17.5333 9.72655 18.1226 10.6921 18.5694 12.132L20.4795 11.5392ZM18.1907 7.63595C17.1554 6.7171 15.9231 6.24929 14.5387 6.24929V8.24929C15.434 8.24929 16.194 8.53787 16.8632 9.1318L18.1907 7.63595ZM14.5387 6.24929C12.426 6.24929 10.7636 7.35369 9.57759 9.30214L11.286 10.342C12.188 8.86009 13.2635 8.24929 14.5387 8.24929V6.24929ZM9.57904 9.29978C8.39089 11.2396 7.8606 14.0835 7.84976 17.6813L9.84976 17.6873C9.86023 14.2113 10.3846 11.8137 11.2845 10.3444L9.57904 9.29978ZM7.84977 17.6799C7.83886 20.1344 8.07212 22.227 8.57837 23.9299L10.4954 23.3599C10.0642 21.9093 9.83935 20.0283 9.84975 17.6887L7.84977 17.6799ZM8.58015 23.9358C9.09143 25.6173 9.83782 26.9792 10.8809 27.9193L12.2199 26.4337C11.5371 25.8183 10.9412 24.8258 10.4937 23.354L8.58015 23.9358ZM10.886 27.9239C11.9275 28.8496 13.1585 29.3271 14.5387 29.3271V27.3271C13.6603 27.3271 12.8992 27.0374 12.2148 26.4291L10.886 27.9239ZM39.6246 33.169L39.2142 34.081L39.2203 34.0837L39.6246 33.169ZM35.0862 29.6055L34.2795 30.1963L35.0862 29.6055ZM33.3923 24.38V23.38H32.3815L32.3924 24.3908L33.3923 24.38ZM41.3504 24.38L42.3494 24.3352L42.3067 23.38H41.3504V24.38ZM42.0376 26.2816L41.2449 26.8913L41.2507 26.8987L42.0376 26.2816ZM43.7794 27.56L43.392 28.4819L43.7794 27.56ZM48.7652 27.5281L49.1851 28.4356L49.191 28.4329L48.7652 27.5281ZM50.4591 26.1378L51.2819 26.7062L51.2866 26.6993L50.4591 26.1378ZM51.0504 24.0923L50.0505 24.0784L50.0503 24.0923L50.0505 24.1062L51.0504 24.0923ZM50.3952 22.0469L49.5952 22.6469L50.3952 22.0469ZM48.4935 20.6566L48.1159 21.5825L48.1201 21.5842L48.4935 20.6566ZM42.4371 20.1612H41.4371V21.1612H42.4371V20.1612ZM42.4371 14.5362V13.5362H41.4371V14.5362H42.4371ZM48.1739 14.0568L47.78 13.1377L47.7752 13.1397L48.1739 14.0568ZM49.9158 12.7145L50.7265 13.3L50.7315 13.2929L49.9158 12.7145ZM50.523 10.701L49.5231 10.6865L49.5229 10.7008L49.5231 10.7151L50.523 10.701ZM49.9957 8.7674L49.1468 9.29596L49.1526 9.30537L49.1587 9.31465L49.9957 8.7674ZM48.5095 7.45703L48.0684 8.3545L48.0744 8.35738L48.5095 7.45703ZM43.9392 7.45703L43.542 6.5393L43.5369 6.54151L43.9392 7.45703ZM42.2613 8.7674L43.0667 9.36008L43.0667 9.36008L42.2613 8.7674ZM41.6061 10.733V11.733H42.578L42.6057 10.7615L41.6061 10.733ZM34.0475 10.733L33.0476 10.722L33.0365 11.733H34.0475V10.733ZM35.6775 5.58736L36.4893 6.17136L36.4912 6.1686L35.6775 5.58736ZM40.0241 2.08771L39.6087 1.17807L39.6067 1.17898L40.0241 2.08771ZM52.5046 2.05575L52.0858 2.96387V2.96387L52.5046 2.05575ZM56.6594 5.41158L55.8399 5.98463L55.8419 5.98753L56.6594 5.41158ZM58.1455 10.1896H57.1455L57.1456 10.1954L58.1455 10.1896ZM56.3398 14.744L55.639 14.0306L55.6358 14.0337L56.3398 14.744ZM51.6896 16.9492L51.545 15.9597L50.6896 16.0847V16.9492H51.6896ZM51.6896 17.2049H50.6896V18.0941L51.5727 18.1981L51.6896 17.2049ZM57.4264 19.6658L56.7052 20.3585L56.708 20.3615L57.4264 19.6658ZM59.36 24.6996L58.36 24.6943V24.6996H59.36ZM57.6821 29.7493L56.8863 29.1438L56.8856 29.1446L57.6821 29.7493ZM53.0479 33.201L53.4364 34.1224L53.4388 34.1214L53.0479 33.201ZM46.2563 33.4474C43.8776 33.4474 41.8087 33.0411 40.0288 32.2544L39.2203 34.0837C41.297 35.0016 43.6493 35.4474 46.2563 35.4474V33.4474ZM40.035 32.2571C38.2555 31.4563 36.8868 30.3716 35.893 29.0146L34.2795 30.1963C35.5015 31.8649 37.1585 33.1559 39.2142 34.081L40.035 32.2571ZM35.893 29.0146C34.915 27.6792 34.4115 26.1426 34.3923 24.3692L32.3924 24.3908C32.4158 26.5591 33.0416 28.5062 34.2795 30.1963L35.893 29.0146ZM33.3923 25.38H41.3504V23.38H33.3923V25.38ZM40.3514 24.4247C40.3924 25.3386 40.6907 26.1708 41.245 26.8913L42.8302 25.6719C42.5322 25.2844 42.3724 24.8489 42.3494 24.3352L40.3514 24.4247ZM41.2507 26.8987C41.7972 27.5955 42.5245 28.1173 43.392 28.4819L44.1669 26.6381C43.5642 26.3848 43.1303 26.0544 42.8244 25.6645L41.2507 26.8987ZM43.392 28.4819C44.2693 28.8506 45.2408 29.0234 46.2883 29.0234V27.0234C45.4608 27.0234 44.7597 26.8873 44.1669 26.6381L43.392 28.4819ZM46.2883 29.0234C47.3433 29.0234 48.3169 28.8373 49.1851 28.4356L48.3453 26.6205C47.786 26.8793 47.1082 27.0234 46.2883 27.0234V29.0234ZM49.191 28.4329C50.0549 28.0264 50.7647 27.4547 51.2818 26.7062L49.6364 25.5694C49.3439 25.9927 48.9244 26.3479 48.3394 26.6232L49.191 28.4329ZM51.2866 26.6993C51.814 25.922 52.0636 25.0366 52.0503 24.0784L50.0505 24.1062C50.0585 24.6822 49.9138 25.1604 49.6316 25.5763L51.2866 26.6993ZM52.0503 24.1062C52.0639 23.1249 51.7793 22.2258 51.1952 21.4469L49.5952 22.6469C49.9059 23.0612 50.0581 23.5257 50.0505 24.0784L52.0503 24.1062ZM51.1952 21.4469C50.6193 20.679 49.825 20.1146 48.867 19.729L48.1201 21.5842C48.8027 21.8591 49.2762 22.2216 49.5952 22.6469L51.1952 21.4469ZM48.8712 19.7307C47.9143 19.3403 46.8214 19.1612 45.6171 19.1612V21.1612C46.6288 21.1612 47.4535 21.3123 48.1159 21.5825L48.8712 19.7307ZM45.6171 19.1612H42.4371V21.1612H45.6171V19.1612ZM43.4371 20.1612V14.5362H41.4371V20.1612H43.4371ZM42.4371 15.5362H45.6171V13.5362H42.4371V15.5362ZM45.6171 15.5362C46.6957 15.5362 47.6883 15.3584 48.5727 14.9739L47.7752 13.1397C47.1894 13.3945 46.4775 13.5362 45.6171 13.5362V15.5362ZM48.5679 14.976C49.4559 14.5954 50.1904 14.0423 50.7265 13.3L49.1051 12.129C48.8102 12.5373 48.3835 12.879 47.78 13.1377L48.5679 14.976ZM50.7315 13.2929C51.2764 12.5245 51.5364 11.6433 51.5229 10.6869L49.5231 10.7151C49.531 11.2714 49.3861 11.7326 49.1 12.1361L50.7315 13.2929ZM51.5229 10.7155C51.5361 9.80405 51.3159 8.95918 50.8326 8.22015L49.1587 9.31465C49.3999 9.68358 49.5312 10.1278 49.5231 10.6865L51.5229 10.7155ZM50.8446 8.23884C50.3862 7.50271 49.7422 6.94215 48.9447 6.55668L48.0744 8.35738C48.5553 8.58981 48.902 8.90283 49.1468 9.29596L50.8446 8.23884ZM48.9506 6.55958C48.1615 6.17171 47.2759 5.99361 46.3203 5.99361V7.99361C47.0266 7.99361 47.6004 8.12446 48.0684 8.35448L48.9506 6.55958ZM46.3203 5.99361C45.3269 5.99361 44.3957 6.16977 43.542 6.53931L44.3364 8.37475C44.9102 8.12639 45.5665 7.99361 46.3203 7.99361V5.99361ZM43.5369 6.54151C42.6892 6.91399 41.9849 7.45579 41.4559 8.17472L43.0667 9.36008C43.3687 8.94975 43.783 8.61797 44.3415 8.37255L43.5369 6.54151ZM41.4559 8.17472C40.9118 8.91402 40.6333 9.76903 40.6065 10.7044L42.6057 10.7615C42.6216 10.2054 42.7798 9.75004 43.0667 9.36008L41.4559 8.17472ZM41.6061 9.73295H34.0475V11.733H41.6061V9.73295ZM35.0475 10.7439C35.0667 8.9852 35.5526 7.47334 36.4893 6.17135L34.8657 5.00336C33.6717 6.66302 33.071 8.58156 33.0476 10.722L35.0475 10.7439ZM36.4912 6.1686C37.4453 4.83286 38.7512 3.77279 40.4415 2.99644L39.6067 1.17898C37.6322 2.08588 36.0403 3.3589 34.8638 5.00612L36.4912 6.1686ZM40.4395 2.99736C42.1327 2.22417 44.0861 1.82528 46.3203 1.82528V-0.174717C43.8456 -0.174717 41.6016 0.268015 39.6087 1.17807L40.4395 2.99736ZM46.3203 1.82528C48.5474 1.82528 50.4612 2.2148 52.0858 2.96387L52.9233 1.14763C50.9896 0.256078 48.7806 -0.174717 46.3203 -0.174717V1.82528ZM52.0858 2.96387C53.7259 3.72005 54.9636 4.73147 55.8399 5.98462L57.4789 4.83853C56.3736 3.25787 54.8415 2.03208 52.9233 1.14763L52.0858 2.96387ZM55.8419 5.98753C56.7096 7.21916 57.1455 8.6092 57.1455 10.1896H59.1455C59.1455 8.21182 58.5907 6.41649 57.4769 4.83562L55.8419 5.98753ZM57.1456 10.1954C57.1548 11.7929 56.6437 13.0435 55.639 14.0306L57.0406 15.4573C58.4649 14.058 59.1576 12.2724 59.1455 10.1839L57.1456 10.1954ZM55.6358 14.0337C54.6033 15.0571 53.2587 15.7094 51.545 15.9597L51.8341 17.9387C53.9131 17.6351 55.6686 16.8172 57.0437 15.4542L55.6358 14.0337ZM50.6896 16.9492V17.2049H52.6896V16.9492H50.6896ZM51.5727 18.1981C53.9631 18.4793 55.6274 19.2362 56.7052 20.3585L58.1477 18.9732C56.6473 17.4108 54.487 16.5271 51.8064 16.2118L51.5727 18.1981ZM56.708 20.3615C57.8109 21.5005 58.3694 22.9199 58.36 24.6943L60.36 24.7049C60.3719 22.4523 59.6414 20.5159 58.1448 18.9702L56.708 20.3615ZM58.36 24.6996C58.36 26.3834 57.8687 27.8526 56.8863 29.1438L58.4779 30.3548C59.7327 28.7057 60.36 26.8084 60.36 24.6996H58.36ZM56.8856 29.1446C55.9001 30.4428 54.5063 31.4951 52.6569 32.2806L53.4388 34.1214C55.5525 33.2237 57.2482 31.9748 58.4786 30.3539L56.8856 29.1446ZM52.6594 32.2795C50.833 33.0496 48.7053 33.4474 46.2563 33.4474V35.4474C48.921 35.4474 51.321 35.0143 53.4364 34.1224L52.6594 32.2795Z" fill="#D8D8D8"/>
</svg>
