<svg width="60" height="35" viewBox="0 0 60 35" fill="none" xmlns="http://www.w3.org/2000/svg">
<path d="M7.02403 32.7695L6.47331 33.6042L6.47632 33.6062L7.02403 32.7695ZM2.24598 26.9048L1.32982 27.3056L1.33044 27.3071L2.24598 26.9048ZM0.584046 17.6843L-0.41595 17.6813L0.584046 17.6843ZM2.26196 8.54368L1.3483 8.13718L1.34751 8.13898L2.26196 8.54368ZM7.02403 2.80682L7.56147 3.65012L7.56259 3.64941L7.02403 2.80682ZM21.7897 2.80682L21.2511 3.64942L21.2562 3.65262L21.7897 2.80682ZM26.5837 8.54368L27.4973 8.13718V8.13718L26.5837 8.54368ZM28.2456 17.6843L27.2456 17.6813V17.6843H28.2456ZM26.5677 26.9208L25.6516 26.52L26.5677 26.9208ZM21.7897 32.7855L22.3363 33.6229L22.3374 33.6222L21.7897 32.7855ZM18.5457 25.7223L19.4004 26.2414L19.4018 26.2391L18.5457 25.7223ZM20.1117 17.6843H19.1117L19.1117 17.6873L20.1117 17.6843ZM19.3926 11.8356L18.4376 12.132L18.4382 12.1339L19.3926 11.8356ZM17.3951 8.38388L18.0589 7.63595V7.63595L17.3951 8.38388ZM10.3 9.82209L11.1527 10.3444L11.1542 10.342L10.3 9.82209ZM8.71792 17.6843L9.71792 17.6887L9.71792 17.6873L8.71792 17.6843ZM9.40507 23.6449L8.44651 23.9299L8.44832 23.9358L9.40507 23.6449ZM11.4186 27.1765L10.7491 27.9193L10.7542 27.9239L11.4186 27.1765ZM14.4068 33.799C11.7152 33.799 9.45154 33.1635 7.57175 31.9329L6.47632 33.6062C8.73005 35.0816 11.3882 35.799 14.4068 35.799V33.799ZM7.57475 31.9348C5.68797 30.69 4.21253 28.8949 3.16152 26.5026L1.33044 27.3071C2.51664 30.0071 4.22657 32.1218 6.47331 33.6042L7.57475 31.9348ZM3.16214 26.504C2.11274 24.1054 1.57369 21.1767 1.58404 17.6873L-0.41595 17.6813C-0.426902 21.3723 0.142004 24.5906 1.32982 27.3056L3.16214 26.504ZM1.58404 17.6873C1.59441 14.1944 2.13899 11.2925 3.17641 8.94837L1.34751 8.13898C0.169017 10.8019 -0.405008 13.9938 -0.41595 17.6813L1.58404 17.6873ZM3.17561 8.95017C4.22502 6.59151 5.69164 4.84177 7.56147 3.65012L6.48659 1.96352C4.24421 3.3926 2.53611 5.46744 1.34831 8.13718L3.17561 8.95017ZM7.56259 3.64941C9.4436 2.44711 11.7107 1.82528 14.4068 1.82528V-0.174717C11.3928 -0.174717 8.73799 0.524477 6.48547 1.96423L7.56259 3.64941ZM14.4068 1.82528C17.103 1.82528 19.3701 2.44711 21.2511 3.64941L22.3282 1.96423C20.0757 0.524477 17.4209 -0.174717 14.4068 -0.174717V1.82528ZM21.2562 3.65262C23.1464 4.84495 24.6218 6.59424 25.67 8.95017L27.4973 8.13718C26.3083 5.46471 24.5877 3.38942 22.3232 1.96102L21.2562 3.65262ZM25.67 8.95017C26.7168 11.3029 27.256 14.2022 27.2456 17.6813L29.2456 17.6873C29.2566 14.0073 28.6878 10.8128 27.4973 8.13718L25.67 8.95017ZM27.2456 17.6843C27.2456 21.1856 26.7013 24.1205 25.6516 26.52L27.4839 27.3216C28.6713 24.6074 29.2456 21.3847 29.2456 17.6843H27.2456ZM25.6516 26.52C24.6004 28.9226 23.1257 30.7157 21.2419 31.9488L22.3374 33.6222C24.5871 32.1494 26.2978 30.0326 27.4839 27.3216L25.6516 26.52ZM21.243 31.9482C19.3751 33.1676 17.1116 33.799 14.4068 33.799V35.799C17.4336 35.799 20.092 35.0881 22.3363 33.6229L21.243 31.9482ZM14.4068 29.3271C16.5327 29.3271 18.2052 28.2093 19.4004 26.2414L17.691 25.2032C16.7769 26.7083 15.6901 27.3271 14.4068 27.3271V29.3271ZM19.4018 26.2391C20.599 24.2559 21.1226 21.3537 21.1117 17.6814L19.1117 17.6873C19.1222 21.2379 18.6018 23.6944 17.6896 25.2055L19.4018 26.2391ZM21.1117 17.6843C21.1117 15.2611 20.8673 13.2018 20.3471 11.5373L18.4382 12.1339C18.8768 13.5375 19.1117 15.3774 19.1117 17.6843H21.1117ZM20.3477 11.5392C19.8357 9.88955 19.0933 8.55399 18.0589 7.63595L16.7313 9.1318C17.4015 9.72655 17.9907 10.6921 18.4376 12.132L20.3477 11.5392ZM18.0589 7.63595C17.0236 6.7171 15.7913 6.24929 14.4068 6.24929V8.24929C15.3022 8.24929 16.0621 8.53787 16.7313 9.1318L18.0589 7.63595ZM14.4068 6.24929C12.2942 6.24929 10.6318 7.35369 9.44576 9.30214L11.1542 10.342C12.0562 8.86009 13.1317 8.24929 14.4068 8.24929V6.24929ZM9.4472 9.29978C8.25905 11.2396 7.72877 14.0835 7.71793 17.6813L9.71792 17.6873C9.72839 14.2113 10.2528 11.8137 11.1527 10.3444L9.4472 9.29978ZM7.71793 17.6799C7.70702 20.1344 7.94028 22.227 8.44653 23.9299L10.3636 23.3599C9.93235 21.9093 9.70752 20.0283 9.71791 17.6887L7.71793 17.6799ZM8.44832 23.9358C8.9596 25.6173 9.70598 26.9792 10.7491 27.9193L12.088 26.4337C11.4053 25.8183 10.8093 24.8258 10.3618 23.354L8.44832 23.9358ZM10.7542 27.9239C11.7957 28.8496 13.0267 29.3271 14.4068 29.3271V27.3271C13.5285 27.3271 12.7673 27.0374 12.0829 26.4291L10.7542 27.9239ZM41.6501 33.5845L41.3137 34.5263L41.3192 34.5282L41.6501 33.5845ZM37.2715 30.804L36.5644 31.5111L36.5674 31.514L37.2715 30.804ZM34.2513 25.7862L33.3085 26.1198L33.3091 26.1213L34.2513 25.7862ZM33.1646 18.1957L32.1646 18.1917L32.1646 18.1921L33.1646 18.1957ZM34.1554 10.9407L35.1123 11.2311L35.1127 11.2298L34.1554 10.9407ZM36.9359 5.45952L36.1583 4.83079L36.1556 4.83415L36.9359 5.45952ZM41.2825 2.02379L41.7067 2.92939L41.7091 2.92822L41.2825 2.02379ZM53.0119 2.16761L52.556 3.05768L52.5625 3.06095L53.0119 2.16761ZM57.2307 5.74716L56.4123 6.32179L56.4142 6.32453L57.2307 5.74716ZM59.1003 10.733V11.733H60.2105L60.0949 10.6289L59.1003 10.733ZM51.318 10.733L50.3428 10.9541L50.5194 11.733H51.318V10.733ZM49.768 8.38388L49.2005 9.20727L49.2068 9.21165L49.2133 9.21593L49.768 8.38388ZM42.465 10.1737L41.5965 9.67808L41.5942 9.68212L42.465 10.1737ZM40.9629 17.141L39.9629 17.1337L39.9556 18.141H40.9629V17.141ZM41.1707 17.141V18.141H41.8134L42.0803 17.5563L41.1707 17.141ZM43.1043 14.6161L43.7454 15.3835L43.1043 14.6161ZM45.9967 13.0021L46.3212 13.948L46.3266 13.9461L45.9967 13.0021ZM54.6739 13.7852L54.1576 14.6416V14.6416L54.6739 13.7852ZM58.2055 17.5085L57.3258 17.984L57.3271 17.9865L58.2055 17.5085ZM59.4679 22.8938L58.4679 22.8886L58.4679 22.8985L59.4679 22.8938ZM57.8699 28.9343L58.7199 29.461L58.7214 29.4587L57.8699 28.9343ZM53.3954 32.9933L52.9423 32.1018L52.9402 32.1029L53.3954 32.9933ZM51.7974 23.1495L50.7975 23.1389L50.7974 23.1496L50.7975 23.1603L51.7974 23.1495ZM51.1582 20.4808L50.2812 20.9614L50.2863 20.9705L51.1582 20.4808ZM49.3685 18.6271L48.8504 19.4825L48.8557 19.4857L49.3685 18.6271ZM43.1522 19.4581L42.4292 18.7672L42.4288 18.7676L43.1522 19.4581ZM42.0975 21.12L43.0238 21.4968L43.026 21.4914L42.0975 21.12ZM41.698 23.1655L40.6981 23.151L40.6979 23.1637L40.6981 23.1765L41.698 23.1655ZM42.3692 25.8022L41.4945 26.2868L42.3692 25.8022ZM44.1589 27.6879L43.6321 28.5379L43.6409 28.5432L44.1589 27.6879ZM46.7957 33.4474C45.1152 33.4474 43.5121 33.1777 41.981 32.6409L41.3192 34.5282C43.0693 35.1419 44.8966 35.4474 46.7957 35.4474V33.4474ZM41.9864 32.6428C40.4886 32.1078 39.1535 31.262 37.9757 30.0939L36.5674 31.514C37.9463 32.8815 39.5303 33.8893 41.3137 34.5263L41.9864 32.6428ZM37.9786 30.0969C36.8252 28.9435 35.8892 27.4073 35.1935 25.4511L33.3091 26.1213C34.0835 28.2987 35.161 30.1077 36.5644 31.5111L37.9786 30.0969ZM35.194 25.4526C34.5081 23.5142 34.1542 21.1053 34.1646 18.1992L32.1646 18.1921C32.1537 21.252 32.5243 23.9034 33.3085 26.1198L35.194 25.4526ZM34.1646 18.1996C34.175 15.5822 34.4957 13.2629 35.1123 11.2311L33.1985 10.6503C32.5154 12.9012 32.1756 15.4185 32.1646 18.1917L34.1646 18.1996ZM35.1127 11.2298C35.7317 9.17994 36.6046 7.47201 37.7163 6.08488L36.1556 4.83415C34.8596 6.45129 33.8788 8.39747 33.1981 10.6516L35.1127 11.2298ZM37.7136 6.08824C38.8366 4.69924 40.1662 3.65089 41.7067 2.92939L40.8584 1.11819C39.0324 1.9734 37.4643 3.21553 36.1583 4.83079L37.7136 6.08824ZM41.7091 2.92822C43.255 2.19905 44.9978 1.82528 46.9555 1.82528V-0.174717C44.737 -0.174717 42.6978 0.25052 40.8559 1.11936L41.7091 2.92822ZM46.9555 1.82528C49.1139 1.82528 50.9718 2.2462 52.556 3.05766L53.4678 1.27757C51.5578 0.299253 49.378 -0.174717 46.9555 -0.174717V1.82528ZM52.5625 3.06095C54.1839 3.87652 55.4592 4.96438 56.4123 6.32179L58.0491 5.17253C56.8928 3.52567 55.3556 2.22717 53.4613 1.27427L52.5625 3.06095ZM56.4142 6.32453C57.3691 7.67485 57.9317 9.17353 58.1058 10.837L60.0949 10.6289C59.8855 8.6276 59.2017 6.80242 58.0472 5.16979L56.4142 6.32453ZM59.1003 9.73295H51.318V11.733H59.1003V9.73295ZM52.2933 10.5118C52.0086 9.25656 51.3578 8.24194 50.3227 7.55183L49.2133 9.21593C49.7761 9.59115 50.1587 10.1426 50.3428 10.9541L52.2933 10.5118ZM50.3354 7.56048C49.3583 6.88705 48.2165 6.56889 46.9555 6.56889V8.56889C47.8678 8.56889 48.6009 8.79405 49.2005 9.20727L50.3354 7.56048ZM46.9555 6.56889C44.5943 6.56889 42.7656 7.62899 41.5965 9.67809L43.3336 10.6692C44.146 9.2453 45.3109 8.56889 46.9555 8.56889V6.56889ZM41.5942 9.68212C40.501 11.6189 39.985 14.1281 39.9629 17.1337L41.9629 17.1483C41.9835 14.3371 42.4688 12.2014 43.3359 10.6652L41.5942 9.68212ZM40.9629 18.141H41.1707V16.141H40.9629V18.141ZM42.0803 17.5563C42.4646 16.7146 43.0164 15.9926 43.7454 15.3835L42.4631 13.8487C41.5089 14.6459 40.7716 15.6071 40.261 16.7257L42.0803 17.5563ZM43.7454 15.3835C44.4889 14.7624 45.3445 14.2831 46.3212 13.948L45.6721 12.0563C44.4755 12.4669 43.4029 13.0636 42.4631 13.8487L43.7454 15.3835ZM46.3266 13.9461C47.3122 13.6016 48.3614 13.4268 49.4803 13.4268V11.4268C48.1489 11.4268 46.8757 11.6356 45.6667 12.0581L46.3266 13.9461ZM49.4803 13.4268C51.2806 13.4268 52.8291 13.8407 54.1576 14.6416L55.1901 12.9287C53.5144 11.9185 51.6005 11.4268 49.4803 11.4268V13.4268ZM54.1576 14.6416C55.5032 15.4528 56.5565 16.5609 57.3258 17.984L59.0852 17.033C58.1499 15.3028 56.8487 13.9286 55.1901 12.9287L54.1576 14.6416ZM57.3271 17.9865C58.0883 19.3853 58.4778 21.01 58.4679 22.8886L60.4679 22.8991C60.4793 20.7293 60.0272 18.7639 59.0838 17.0305L57.3271 17.9865ZM58.4679 22.8985C58.4778 25.013 57.9858 26.8391 57.0184 28.4099L58.7214 29.4587C59.9059 27.5352 60.4793 25.3343 60.4679 22.8891L58.4679 22.8985ZM57.0198 28.4076C56.0449 29.981 54.6941 31.2112 52.9423 32.1018L53.8486 33.8847C55.9107 32.8364 57.5429 31.3606 58.7199 29.461L57.0198 28.4076ZM52.9402 32.1029C51.2076 32.9886 49.1687 33.4474 46.7957 33.4474V35.4474C49.4298 35.4474 51.7907 34.9368 53.8506 33.8836L52.9402 32.1029ZM46.7477 29.375C47.8818 29.375 48.9301 29.1049 49.8652 28.5464L48.8397 26.8293C48.2408 27.187 47.5525 27.375 46.7477 27.375V29.375ZM49.8652 28.5464C50.7852 27.997 51.5114 27.2441 52.0329 26.3028L50.2835 25.3335C49.9315 25.9689 49.4538 26.4626 48.8397 26.8293L49.8652 28.5464ZM52.0329 26.3028C52.5618 25.3482 52.8097 24.2851 52.7974 23.1388L50.7975 23.1603C50.8065 23.9955 50.6282 24.7114 50.2835 25.3335L52.0329 26.3028ZM52.7974 23.1601C52.8097 22.0056 52.5628 20.9396 52.0301 19.9911L50.2863 20.9705C50.6272 21.5775 50.8065 22.2906 50.7975 23.1389L52.7974 23.1601ZM52.0352 20.0003C51.5228 19.0652 50.7999 18.3173 49.8812 17.7686L48.8557 19.4857C49.4711 19.8532 49.9414 20.3411 50.2813 20.9614L52.0352 20.0003ZM49.8865 17.7718C48.9573 17.209 47.9061 16.94 46.7637 16.94V18.94C47.5815 18.94 48.2668 19.129 48.8504 19.4825L49.8865 17.7718ZM46.7637 16.94C45.9222 16.94 45.1208 17.0977 44.3704 17.4212L45.162 19.2578C45.6474 19.0486 46.1776 18.94 46.7637 18.94V16.94ZM44.3704 17.4212C43.6311 17.7398 42.9814 18.1894 42.4292 18.7672L43.8752 20.149C44.2392 19.768 44.6655 19.4718 45.162 19.2578L44.3704 17.4212ZM42.4288 18.7676C41.8879 19.3343 41.4691 19.9984 41.169 20.7486L43.026 21.4914C43.2373 20.9632 43.5216 20.5194 43.8755 20.1486L42.4288 18.7676ZM41.1712 20.7432C40.8649 21.4962 40.7104 22.302 40.6981 23.151L42.6979 23.18C42.7069 22.5588 42.8187 22.001 43.0238 21.4968L41.1712 20.7432ZM40.6981 23.1765C40.7104 24.2988 40.9713 25.3425 41.4945 26.2868L43.2439 25.3176C42.8935 24.6852 42.7069 23.971 42.6979 23.1545L40.6981 23.1765ZM41.4945 26.2868C42.013 27.2227 42.7285 27.9779 43.6322 28.5379L44.6857 26.8378C44.0766 26.4603 43.5989 25.9584 43.2439 25.3176L41.4945 26.2868ZM43.6409 28.5432C44.5684 29.1049 45.6138 29.375 46.7477 29.375V27.375C45.9427 27.375 45.2623 27.187 44.677 26.8325L43.6409 28.5432Z" fill="#D8D8D8"/>
</svg>
