<svg width="60" height="35" viewBox="0 0 60 35" fill="none" xmlns="http://www.w3.org/2000/svg">
<path d="M6.95811 32.7695L6.40739 33.6042L6.4104 33.6062L6.95811 32.7695ZM2.18006 26.9048L1.2639 27.3056L1.26452 27.3071L2.18006 26.9048ZM0.518128 17.6843L-0.481868 17.6813L0.518128 17.6843ZM2.19604 8.54368L1.28239 8.13718L1.28159 8.13898L2.19604 8.54368ZM6.95811 2.80682L7.49555 3.65012L7.49668 3.64941L6.95811 2.80682ZM21.7237 2.80682L21.1852 3.64942L21.1902 3.65262L21.7237 2.80682ZM26.5178 8.54368L27.4314 8.13718V8.13718L26.5178 8.54368ZM28.1797 17.6843L27.1797 17.6813V17.6843H28.1797ZM26.5018 26.9208L25.5856 26.52L26.5018 26.9208ZM21.7237 32.7855L22.2704 33.6229L22.2715 33.6222L21.7237 32.7855ZM18.4798 25.7223L19.3345 26.2414L19.3359 26.2391L18.4798 25.7223ZM20.0458 17.6843H19.0458L19.0458 17.6873L20.0458 17.6843ZM19.3267 11.8356L18.3717 12.132L18.3722 12.1339L19.3267 11.8356ZM17.3292 8.38388L17.993 7.63595V7.63595L17.3292 8.38388ZM10.234 9.82209L11.0868 10.3444L11.0882 10.342L10.234 9.82209ZM8.65201 17.6843L9.652 17.6887L9.652 17.6873L8.65201 17.6843ZM9.33915 23.6449L8.3806 23.9299L8.3824 23.9358L9.33915 23.6449ZM11.3526 27.1765L10.6832 27.9193L10.6883 27.9239L11.3526 27.1765ZM14.3409 33.799C11.6493 33.799 9.38562 33.1635 7.50583 31.9329L6.4104 33.6062C8.66413 35.0816 11.3223 35.799 14.3409 35.799V33.799ZM7.50884 31.9348C5.62205 30.69 4.14661 28.8949 3.0956 26.5026L1.26452 27.3071C2.45072 30.0071 4.16066 32.1218 6.40739 33.6042L7.50884 31.9348ZM3.09622 26.504C2.04682 24.1054 1.50777 21.1767 1.51812 17.6873L-0.481868 17.6813C-0.49282 21.3723 0.076086 24.5906 1.2639 27.3056L3.09622 26.504ZM1.51812 17.6873C1.52849 14.1944 2.07307 11.2925 3.11049 8.94837L1.28159 8.13898C0.103099 10.8019 -0.470926 13.9938 -0.481868 17.6813L1.51812 17.6873ZM3.10969 8.95017C4.1591 6.59151 5.62572 4.84177 7.49555 3.65012L6.42067 1.96352C4.17829 3.3926 2.4702 5.46744 1.28239 8.13718L3.10969 8.95017ZM7.49668 3.64941C9.37768 2.44711 11.6448 1.82528 14.3409 1.82528V-0.174717C11.3269 -0.174717 8.67207 0.524477 6.41955 1.96423L7.49668 3.64941ZM14.3409 1.82528C17.0371 1.82528 19.3042 2.44711 21.1852 3.64941L22.2623 1.96423C20.0098 0.524477 17.355 -0.174717 14.3409 -0.174717V1.82528ZM21.1902 3.65262C23.0805 4.84495 24.5559 6.59424 25.6041 8.95017L27.4314 8.13718C26.2424 5.46471 24.5218 3.38942 22.2572 1.96102L21.1902 3.65262ZM25.6041 8.95017C26.6509 11.3029 27.1901 14.2022 27.1797 17.6813L29.1797 17.6873C29.1907 14.0073 28.6219 10.8128 27.4314 8.13718L25.6041 8.95017ZM27.1797 17.6843C27.1797 21.1856 26.6354 24.1205 25.5856 26.52L27.4179 27.3216C28.6054 24.6074 29.1797 21.3847 29.1797 17.6843H27.1797ZM25.5856 26.52C24.5345 28.9226 23.0598 30.7157 21.176 31.9488L22.2715 33.6222C24.5212 32.1494 26.2319 30.0326 27.4179 27.3216L25.5856 26.52ZM21.1771 31.9482C19.3092 33.1676 17.0457 33.799 14.3409 33.799V35.799C17.3677 35.799 20.026 35.0881 22.2704 33.6229L21.1771 31.9482ZM14.3409 29.3271C16.4668 29.3271 18.1392 28.2093 19.3345 26.2414L17.6251 25.2032C16.7109 26.7083 15.6241 27.3271 14.3409 27.3271V29.3271ZM19.3359 26.2391C20.533 24.2559 21.0567 21.3537 21.0458 17.6814L19.0458 17.6873C19.0563 21.2379 18.5359 23.6944 17.6237 25.2055L19.3359 26.2391ZM21.0458 17.6843C21.0458 15.2611 20.8014 13.2018 20.2812 11.5373L18.3722 12.1339C18.8109 13.5375 19.0458 15.3774 19.0458 17.6843H21.0458ZM20.2818 11.5392C19.7698 9.88955 19.0274 8.55399 17.993 7.63595L16.6654 9.1318C17.3356 9.72655 17.9248 10.6921 18.3717 12.132L20.2818 11.5392ZM17.993 7.63595C16.9577 6.7171 15.7254 6.24929 14.3409 6.24929V8.24929C15.2363 8.24929 15.9962 8.53787 16.6654 9.1318L17.993 7.63595ZM14.3409 6.24929C12.2283 6.24929 10.5659 7.35369 9.37984 9.30214L11.0882 10.342C11.9903 8.86009 13.0658 8.24929 14.3409 8.24929V6.24929ZM9.38128 9.29978C8.19313 11.2396 7.66285 14.0835 7.65201 17.6813L9.652 17.6873C9.66247 14.2113 10.1869 11.8137 11.0868 10.3444L9.38128 9.29978ZM7.65202 17.6799C7.64111 20.1344 7.87437 22.227 8.38061 23.9299L10.2977 23.3599C9.86643 21.9093 9.6416 20.0283 9.652 17.6887L7.65202 17.6799ZM8.3824 23.9358C8.89368 25.6173 9.64006 26.9792 10.6832 27.9193L12.0221 26.4337C11.3394 25.8183 10.7434 24.8258 10.2959 23.354L8.3824 23.9358ZM10.6883 27.9239C11.7297 28.8496 12.9608 29.3271 14.3409 29.3271V27.3271C13.4626 27.3271 12.7014 27.0374 12.017 26.4291L10.6883 27.9239ZM39.5707 33.233L39.1899 34.1577L39.1959 34.1601L39.5707 33.233ZM34.8725 29.9091L34.0928 30.5352L34.098 30.5417L34.8725 29.9091ZM34.1534 21.4237L35.0201 21.9224L34.1534 21.4237ZM36.7901 18.6112L37.3485 19.4407L37.3503 19.4395L36.7901 18.6112ZM40.5295 17.157L40.6827 18.1452L41.5295 18.0139V17.157H40.5295ZM40.5295 16.9013H41.5295V16.068L40.7099 15.9177L40.5295 16.9013ZM36.103 14.3924L35.3407 15.0397L35.3437 15.0432L36.103 14.3924ZM35.9432 5.12393L35.1562 4.50694L35.1531 4.51087L35.9432 5.12393ZM40.2099 1.97585L39.8199 1.05503L39.8179 1.05586L40.2099 1.97585ZM52.5625 1.97585L52.1705 2.89584L52.1725 2.89667L52.5625 1.97585ZM56.8292 5.12393L56.0391 5.73701L56.0422 5.74092L56.8292 5.12393ZM56.6534 14.4084L55.8971 13.7541L55.8967 13.7546L56.6534 14.4084ZM52.2589 16.9013L52.0764 15.9181L51.2589 16.0698V16.9013H52.2589ZM52.2589 17.157H51.2589V18.0128L52.1045 18.145L52.2589 17.157ZM55.9662 18.6112L55.4024 19.4371L55.4115 19.4432L55.9662 18.6112ZM58.6189 21.4237L57.7522 21.9224L57.7558 21.9285L58.6189 21.4237ZM57.8998 29.9091L58.6743 30.5417L58.6767 30.5388L57.8998 29.9091ZM53.2017 33.233L53.5799 34.1587L53.5824 34.1576L53.2017 33.233ZM48.951 28.2951L49.393 29.1922L49.4034 29.1869L48.951 28.2951ZM50.6768 26.745L49.8365 26.2029L49.8304 26.2126L50.6768 26.745ZM50.6768 22.2386L49.8365 22.7808L50.6768 22.2386ZM48.919 20.6886L48.4565 21.5751L48.4641 21.5791L48.4718 21.583L48.919 20.6886ZM43.8693 20.6886L44.3165 21.583L44.3266 21.5779L43.8693 20.6886ZM42.1115 22.2386L41.2712 21.6965L42.1115 22.2386ZM42.0955 26.745L41.249 27.2775L41.2541 27.2855L41.2593 27.2934L42.0955 26.745ZM43.8373 28.2791L43.385 29.171L43.3901 29.1735L43.8373 28.2791ZM48.5994 14.0249L48.1349 13.1393L48.1288 13.1425L48.5994 14.0249ZM50.1175 12.6026L49.2653 12.0793L49.2587 12.0903L50.1175 12.6026ZM50.1175 8.51172L49.2669 9.03759L49.2739 9.04859L50.1175 8.51172ZM48.6154 7.13743L48.1448 8.01986L48.1564 8.02585L48.6154 7.13743ZM44.1729 7.13743L44.626 8.02899L44.6375 8.02297L44.1729 7.13743ZM42.6548 8.51172L43.5054 9.03754V9.03754L42.6548 8.51172ZM42.6548 12.6026L41.796 13.1149L41.8013 13.1238L41.8068 13.1326L42.6548 12.6026ZM44.1889 14.0249L43.713 14.9045L43.7244 14.9104L44.1889 14.0249ZM46.3942 33.4474C43.9539 33.4474 41.8099 33.0596 39.9454 32.3058L39.1959 34.1601C41.337 35.0257 43.7421 35.4474 46.3942 35.4474V33.4474ZM39.9514 32.3083C38.0827 31.5388 36.6632 30.5207 35.647 29.2765L34.098 30.5417C35.3616 32.0887 37.0742 33.2865 39.1899 34.1576L39.9514 32.3083ZM35.6522 29.283C34.6625 28.0504 34.1786 26.6829 34.1786 25.147H32.1786C32.1786 27.148 32.824 28.9553 34.0928 30.5352L35.6522 29.283ZM34.1786 25.147C34.1786 23.9621 34.461 22.894 35.0201 21.9224L33.2867 20.9249C32.5461 22.2118 32.1786 23.626 32.1786 25.147H34.1786ZM35.0201 21.9224C35.5919 20.9289 36.3639 20.1034 37.3485 19.4407L36.2317 17.7816C35.0004 18.6104 34.0146 19.6599 33.2867 20.9249L35.0201 21.9224ZM37.3503 19.4395C38.343 18.7683 39.4497 18.3363 40.6827 18.1452L40.3763 16.1688C38.8607 16.4037 37.4745 16.9412 36.23 17.7828L37.3503 19.4395ZM41.5295 17.157V16.9013H39.5295V17.157H41.5295ZM40.7099 15.9177C39.1262 15.6272 37.8581 14.9034 36.8622 13.7416L35.3437 15.0432C36.649 16.566 38.3319 17.5149 40.349 17.8849L40.7099 15.9177ZM36.8652 13.7451C35.8825 12.5879 35.3931 11.2474 35.3931 9.67827H33.3931C33.3931 11.71 34.0436 13.5122 35.3407 15.0397L36.8652 13.7451ZM35.3931 9.67827C35.3931 8.19301 35.8376 6.89117 36.7332 5.737L35.1531 4.51087C33.982 6.02006 33.3931 7.75443 33.3931 9.67827H35.3931ZM36.7301 5.74092C37.6549 4.5614 38.932 3.60723 40.6018 2.89584L39.8179 1.05586C37.8868 1.87856 36.3195 3.02311 35.1562 4.50695L36.7301 5.74092ZM40.5998 2.89667C42.2679 2.19021 44.1932 1.82528 46.3942 1.82528V-0.174717C43.9715 -0.174717 41.774 0.227398 39.8199 1.05503L40.5998 2.89667ZM46.3942 1.82528C48.5953 1.82528 50.5144 2.19026 52.1705 2.89584L52.9544 1.05586C51.0097 0.227349 48.8166 -0.174717 46.3942 -0.174717V1.82528ZM52.1725 2.89667C53.8526 3.60823 55.1269 4.56144 56.0391 5.737L57.6192 4.51087C56.4647 3.02308 54.8946 1.87757 52.9525 1.05503L52.1725 2.89667ZM56.0422 5.74092C56.9471 6.89516 57.3952 8.19564 57.3952 9.67827H59.3952C59.3952 7.7518 58.7993 6.01607 57.6161 4.50695L56.0422 5.74092ZM57.3952 9.67827C57.3952 11.2544 56.8977 12.5975 55.8971 13.7541L57.4097 15.0626C58.7316 13.5346 59.3952 11.7243 59.3952 9.67827H57.3952ZM55.8967 13.7546C54.8991 14.9093 53.6391 15.628 52.0764 15.9181L52.4414 17.8845C54.4369 17.5141 56.1066 16.5708 57.4101 15.0622L55.8967 13.7546ZM51.2589 16.9013V17.157H53.2589V16.9013H51.2589ZM52.1045 18.145C53.3256 18.3358 54.4208 18.7669 55.4024 19.437L56.5301 17.7853C55.2958 16.9426 53.9193 16.4043 52.4132 16.1689L52.1045 18.145ZM55.4115 19.4432C56.4061 20.1062 57.1818 20.9312 57.7522 21.9224L59.4857 20.9249C58.7564 19.6576 57.7636 18.6076 56.5209 17.7791L55.4115 19.4432ZM57.7558 21.9285C58.3235 22.8992 58.6097 23.9651 58.6097 25.147H60.6097C60.6097 23.6229 60.2354 22.2066 59.4821 20.9188L57.7558 21.9285ZM58.6097 25.147C58.6097 26.6804 58.1222 28.0467 57.123 29.2794L58.6767 30.5388C59.9573 28.959 60.6097 27.1506 60.6097 25.147H58.6097ZM57.1254 29.2765C56.1091 30.5207 54.6896 31.5388 52.8209 32.3083L53.5824 34.1576C55.6982 33.2865 57.4107 32.0887 58.6743 30.5417L57.1254 29.2765ZM52.8234 32.3072C50.9829 33.0593 48.846 33.4474 46.3942 33.4474V35.4474C49.056 35.4474 51.4574 35.0259 53.5799 34.1587L52.8234 32.3072ZM46.3942 29.8384C47.489 29.8384 48.4974 29.6334 49.393 29.1921L48.509 27.3981C47.9344 27.6812 47.2382 27.8384 46.3942 27.8384V29.8384ZM49.4034 29.1869C50.2904 28.737 51.0059 28.1 51.5233 27.2775L49.8304 26.2126C49.5168 26.7111 49.0817 27.1075 48.4986 27.4033L49.4034 29.1869ZM51.5171 27.2872C52.0536 26.4556 52.316 25.5196 52.316 24.5078H50.316C50.316 25.158 50.1523 25.7134 49.8365 26.2029L51.5171 27.2872ZM52.316 24.5078C52.316 23.4801 52.0563 22.5322 51.5171 21.6965L49.8365 22.7808C50.1496 23.2661 50.316 23.831 50.316 24.5078H52.316ZM51.5171 21.6965C50.9879 20.8763 50.2621 20.2421 49.3662 19.7941L48.4718 21.583C49.0674 21.8808 49.5135 22.28 49.8365 22.7808L51.5171 21.6965ZM49.3816 19.802C48.4844 19.3339 47.4801 19.1133 46.3942 19.1133V21.1133C47.2045 21.1133 47.8835 21.2762 48.4565 21.5751L49.3816 19.802ZM46.3942 19.1133C45.3166 19.1133 44.3152 19.3348 43.412 19.7993L44.3266 21.5779C44.9149 21.2753 45.5967 21.1133 46.3942 21.1133V19.1133ZM43.4221 19.7941C42.5262 20.2421 41.8004 20.8763 41.2712 21.6965L42.9518 22.7808C43.2749 22.28 43.7209 21.8808 44.3165 21.583L43.4221 19.7941ZM41.2712 21.6965C40.732 22.5322 40.4723 23.4801 40.4723 24.5078H42.4723C42.4723 23.831 42.6387 23.2661 42.9518 22.7808L41.2712 21.6965ZM40.4723 24.5078C40.4723 25.5144 40.7267 26.447 41.249 27.2775L42.942 26.2126C42.6334 25.722 42.4723 25.1631 42.4723 24.5078H40.4723ZM41.2593 27.2934C41.787 28.0982 42.5039 28.724 43.385 29.1709L44.2897 27.3873C43.7006 27.0885 43.2563 26.6916 42.9318 26.1967L41.2593 27.2934ZM43.3901 29.1735C44.2942 29.6256 45.3035 29.8384 46.3942 29.8384V27.8384C45.5673 27.8384 44.872 27.6784 44.2846 27.3847L43.3901 29.1735ZM46.3942 15.5362C47.3649 15.5362 48.2659 15.3361 49.07 14.9072L48.1288 13.1425C47.6545 13.3955 47.0853 13.5362 46.3942 13.5362V15.5362ZM49.064 14.9104C49.8707 14.4872 50.516 13.8867 50.9763 13.1149L49.2587 12.0903C48.9947 12.533 48.6279 12.8807 48.1349 13.1393L49.064 14.9104ZM50.9697 13.1259C51.4466 12.3492 51.6768 11.4783 51.6768 10.5412H49.6768C49.6768 11.1382 49.5342 11.6416 49.2654 12.0794L50.9697 13.1259ZM51.6768 10.5412C51.6768 9.60453 51.4467 8.73774 50.9612 7.97484L49.2739 9.04859C49.5341 9.45757 49.6768 9.94377 49.6768 10.5412H51.6768ZM50.9681 7.9859C50.5063 7.23884 49.8671 6.65856 49.0744 6.249L48.1564 8.02585C48.6421 8.27681 49.0043 8.61272 49.2669 9.03754L50.9681 7.9859ZM49.086 6.25507C48.2801 5.82528 47.3733 5.62606 46.3942 5.62606V7.62606C47.0983 7.62606 47.6723 7.76776 48.1448 8.01978L49.086 6.25507ZM46.3942 5.62606C45.423 5.62606 44.5196 5.82634 43.7084 6.25188L44.6375 8.02297C45.126 7.76669 45.7034 7.62606 46.3942 7.62606V5.62606ZM43.7199 6.24594C42.9164 6.65427 42.2686 7.2347 41.8042 7.9859L43.5054 9.03754C43.7655 8.61686 44.1297 8.2811 44.626 8.02891L43.7199 6.24594ZM41.8042 7.9859C41.3335 8.74734 41.1115 9.61012 41.1115 10.5412H43.1115C43.1115 9.93818 43.2517 9.44798 43.5054 9.03754L41.8042 7.9859ZM41.1115 10.5412C41.1115 11.4728 41.3336 12.3397 41.796 13.1149L43.5136 12.0903C43.2516 11.6511 43.1115 11.1437 43.1115 10.5412H41.1115ZM41.8068 13.1326C42.2761 13.8834 42.919 14.4748 43.7131 14.9044L44.6647 13.1453C44.1591 12.8718 43.7793 12.515 43.5028 12.0726L41.8068 13.1326ZM43.7244 14.9104C44.5337 15.335 45.4314 15.5362 46.3942 15.5362V13.5362C45.7163 13.5362 45.1438 13.3965 44.6535 13.1393L43.7244 14.9104Z" fill="#D8D8D8"/>
</svg>
