<svg width="60" height="35" viewBox="0 0 60 35" fill="none" xmlns="http://www.w3.org/2000/svg">
<path d="M7.02403 32.7695L6.47331 33.6042L6.47632 33.6062L7.02403 32.7695ZM2.24598 26.9048L1.32982 27.3056L1.33044 27.3071L2.24598 26.9048ZM0.584046 17.6843L-0.41595 17.6813L0.584046 17.6843ZM2.26196 8.54368L1.3483 8.13718L1.34751 8.13898L2.26196 8.54368ZM7.02403 2.80682L7.56147 3.65012L7.56259 3.64941L7.02403 2.80682ZM21.7897 2.80682L21.2511 3.64942L21.2562 3.65262L21.7897 2.80682ZM26.5837 8.54368L27.4973 8.13718V8.13718L26.5837 8.54368ZM28.2456 17.6843L27.2456 17.6813V17.6843H28.2456ZM26.5677 26.9208L25.6516 26.52L26.5677 26.9208ZM21.7897 32.7855L22.3363 33.6229L22.3374 33.6222L21.7897 32.7855ZM18.5457 25.7223L19.4004 26.2414L19.4018 26.2391L18.5457 25.7223ZM20.1117 17.6843H19.1117L19.1117 17.6873L20.1117 17.6843ZM19.3926 11.8356L18.4376 12.132L18.4382 12.1339L19.3926 11.8356ZM17.3951 8.38388L18.0589 7.63595V7.63595L17.3951 8.38388ZM10.3 9.82209L11.1527 10.3444L11.1542 10.342L10.3 9.82209ZM8.71792 17.6843L9.71792 17.6887L9.71792 17.6873L8.71792 17.6843ZM9.40507 23.6449L8.44651 23.9299L8.44832 23.9358L9.40507 23.6449ZM11.4186 27.1765L10.7491 27.9193L10.7542 27.9239L11.4186 27.1765ZM14.4068 33.799C11.7152 33.799 9.45154 33.1635 7.57175 31.9329L6.47632 33.6062C8.73005 35.0816 11.3882 35.799 14.4068 35.799V33.799ZM7.57475 31.9348C5.68797 30.69 4.21253 28.8949 3.16152 26.5026L1.33044 27.3071C2.51664 30.0071 4.22657 32.1218 6.47331 33.6042L7.57475 31.9348ZM3.16214 26.504C2.11274 24.1054 1.57369 21.1767 1.58404 17.6873L-0.41595 17.6813C-0.426902 21.3723 0.142004 24.5906 1.32982 27.3056L3.16214 26.504ZM1.58404 17.6873C1.59441 14.1944 2.13899 11.2925 3.17641 8.94837L1.34751 8.13898C0.169017 10.8019 -0.405008 13.9938 -0.41595 17.6813L1.58404 17.6873ZM3.17561 8.95017C4.22502 6.59151 5.69164 4.84177 7.56147 3.65012L6.48659 1.96352C4.24421 3.3926 2.53611 5.46744 1.34831 8.13718L3.17561 8.95017ZM7.56259 3.64941C9.4436 2.44711 11.7107 1.82528 14.4068 1.82528V-0.174717C11.3928 -0.174717 8.73799 0.524477 6.48547 1.96423L7.56259 3.64941ZM14.4068 1.82528C17.103 1.82528 19.3701 2.44711 21.2511 3.64941L22.3282 1.96423C20.0757 0.524477 17.4209 -0.174717 14.4068 -0.174717V1.82528ZM21.2562 3.65262C23.1464 4.84495 24.6218 6.59424 25.67 8.95017L27.4973 8.13718C26.3083 5.46471 24.5877 3.38942 22.3232 1.96102L21.2562 3.65262ZM25.67 8.95017C26.7168 11.3029 27.256 14.2022 27.2456 17.6813L29.2456 17.6873C29.2566 14.0073 28.6878 10.8128 27.4973 8.13718L25.67 8.95017ZM27.2456 17.6843C27.2456 21.1856 26.7013 24.1205 25.6516 26.52L27.4839 27.3216C28.6713 24.6074 29.2456 21.3847 29.2456 17.6843H27.2456ZM25.6516 26.52C24.6004 28.9226 23.1257 30.7157 21.2419 31.9488L22.3374 33.6222C24.5871 32.1494 26.2978 30.0326 27.4839 27.3216L25.6516 26.52ZM21.243 31.9482C19.3751 33.1676 17.1116 33.799 14.4068 33.799V35.799C17.4336 35.799 20.092 35.0881 22.3363 33.6229L21.243 31.9482ZM14.4068 29.3271C16.5327 29.3271 18.2052 28.2093 19.4004 26.2414L17.691 25.2032C16.7769 26.7083 15.6901 27.3271 14.4068 27.3271V29.3271ZM19.4018 26.2391C20.599 24.2559 21.1226 21.3537 21.1117 17.6814L19.1117 17.6873C19.1222 21.2379 18.6018 23.6944 17.6896 25.2055L19.4018 26.2391ZM21.1117 17.6843C21.1117 15.2611 20.8673 13.2018 20.3471 11.5373L18.4382 12.1339C18.8768 13.5375 19.1117 15.3774 19.1117 17.6843H21.1117ZM20.3477 11.5392C19.8357 9.88955 19.0933 8.55399 18.0589 7.63595L16.7313 9.1318C17.4015 9.72655 17.9907 10.6921 18.4376 12.132L20.3477 11.5392ZM18.0589 7.63595C17.0236 6.7171 15.7913 6.24929 14.4068 6.24929V8.24929C15.3022 8.24929 16.0621 8.53787 16.7313 9.1318L18.0589 7.63595ZM14.4068 6.24929C12.2942 6.24929 10.6318 7.35369 9.44576 9.30214L11.1542 10.342C12.0562 8.86009 13.1317 8.24929 14.4068 8.24929V6.24929ZM9.4472 9.29978C8.25905 11.2396 7.72877 14.0835 7.71793 17.6813L9.71792 17.6873C9.72839 14.2113 10.2528 11.8137 11.1527 10.3444L9.4472 9.29978ZM7.71793 17.6799C7.70702 20.1344 7.94028 22.227 8.44653 23.9299L10.3636 23.3599C9.93235 21.9093 9.70752 20.0283 9.71791 17.6887L7.71793 17.6799ZM8.44832 23.9358C8.9596 25.6173 9.70598 26.9792 10.7491 27.9193L12.088 26.4337C11.4053 25.8183 10.8093 24.8258 10.3618 23.354L8.44832 23.9358ZM10.7542 27.9239C11.7957 28.8496 13.0267 29.3271 14.4068 29.3271V27.3271C13.5285 27.3271 12.7673 27.0374 12.0829 26.4291L10.7542 27.9239ZM45.9967 0.825283L45.9924 1.82528H45.9967V0.825283ZM51.1263 1.70419L50.788 2.64525L50.7934 2.64718L51.1263 1.70419ZM55.4888 4.46875L54.7847 5.17882L54.7877 5.18177L55.4888 4.46875ZM58.5091 9.43856L57.5675 9.77521V9.77521L58.5091 9.43856ZM59.6117 16.9652H58.6117L58.6117 16.9691L59.6117 16.9652ZM58.6529 24.3001L59.6102 24.5892L59.6106 24.5879L58.6529 24.3001ZM55.8564 29.7972L55.0766 29.1712L55.0739 29.1746L55.8564 29.7972ZM51.5098 33.2649L51.9317 34.1715L51.9364 34.1693L51.5098 33.2649ZM39.7484 33.1211L39.2925 34.0112L39.2991 34.0144L39.7484 33.1211ZM35.5457 29.5096L34.7226 30.0776L34.7253 30.0815L35.5457 29.5096ZM33.676 24.4279V23.4279H32.5622L32.6818 24.5352L33.676 24.4279ZM41.4583 24.4279L42.4338 24.2079L42.2579 23.4279H41.4583V24.4279ZM43.0084 26.8888L42.4334 27.7071L42.4409 27.7122L43.0084 26.8888ZM50.3273 25.0991L51.1958 25.5946V25.5946L50.3273 25.0991ZM51.8134 18.0199H52.8134V17.0199H51.8134V18.0199ZM51.6217 18.0199V17.0199H50.9852L50.7157 17.5965L51.6217 18.0199ZM49.6721 20.5447L49.0309 19.7773L49.0261 19.7814L49.6721 20.5447ZM46.7797 22.1587L46.4579 21.2119L46.7797 22.1587ZM38.1185 21.3757L37.604 22.2332L37.6067 22.2348L38.1185 21.3757ZM34.6028 17.6843L33.722 18.1577L33.7245 18.1623L34.6028 17.6843ZM33.3244 12.315L32.3244 12.3197V12.3203L33.3244 12.315ZM34.9065 6.33842L35.7574 6.86369L35.7588 6.86135L34.9065 6.33842ZM39.3649 2.27947L39.8181 3.1709L39.822 3.16888L39.3649 2.27947ZM43.4239 7.58487L42.9111 6.72631L42.9058 6.72951L43.4239 7.58487ZM41.6341 9.43856L40.7622 8.94887L41.6341 9.43856ZM40.9949 12.0593L41.9948 12.0483L40.9949 12.0593ZM41.6501 14.68L40.773 15.1606L40.7782 15.1697L41.6501 14.68ZM43.4239 16.5337L42.9004 17.3858L42.9058 17.3891L43.4239 16.5337ZM48.0261 16.8214L48.422 17.7397L48.0261 16.8214ZM49.6401 15.7188L50.3554 16.4177L50.3631 16.4096L49.6401 15.7188ZM50.7108 14.0568L49.79 13.6667L49.7872 13.6733L49.7845 13.68L50.7108 14.0568ZM51.0943 12.0433L50.0944 12.0546L50.0944 12.0582L51.0943 12.0433ZM50.4231 9.45454L49.5513 9.94424V9.94424L50.4231 9.45454ZM48.6174 7.60085L48.0906 8.45086L48.0976 8.45519L48.1047 8.45939L48.6174 7.60085ZM45.9967 1.82528C47.675 1.82528 49.2701 2.0996 50.788 2.64523L51.4646 0.763145C49.7225 0.136901 47.8979 -0.174717 45.9967 -0.174717V1.82528ZM50.7934 2.64718C52.2781 3.17118 53.6068 4.01075 54.7847 5.17881L56.193 3.75869C54.814 2.39123 53.2344 1.38777 51.4591 0.761199L50.7934 2.64718ZM54.7877 5.18177C55.9377 6.31263 56.8723 7.83068 57.5675 9.77521L59.4507 9.10192C58.6757 6.93423 57.5968 5.13907 56.19 3.75573L54.7877 5.18177ZM57.5675 9.77521C58.2529 11.6924 58.6117 14.0801 58.6117 16.9652H60.6117C60.6117 13.927 60.2355 11.2969 59.4507 9.10192L57.5675 9.77521ZM58.6117 16.9691C58.6221 19.6174 58.3115 21.9615 57.6952 24.0123L59.6106 24.5879C60.2941 22.3134 60.6227 19.7676 60.6117 16.9613L58.6117 16.9691ZM57.6956 24.011C57.077 26.0596 56.1992 27.7729 55.0766 29.1712L56.6362 30.4233C57.9426 28.796 58.9291 26.8446 59.6102 24.5892L57.6956 24.011ZM55.0739 29.1746C53.9623 30.5714 52.6339 31.629 51.0832 32.3605L51.9364 34.1693C53.7735 33.3028 55.3428 32.0486 56.6389 30.4199L55.0739 29.1746ZM51.0878 32.3583C49.5409 33.0783 47.7964 33.4474 45.8369 33.4474V35.4474C48.0534 35.4474 50.0909 35.0283 51.9317 34.1715L51.0878 32.3583ZM45.8369 33.4474C43.6654 33.4474 41.7944 33.0309 40.1978 32.2278L39.2991 34.0144C41.2181 34.9798 43.406 35.4474 45.8369 35.4474V33.4474ZM40.2043 32.2311C38.5932 31.4058 37.321 30.3076 36.366 28.9377L34.7253 30.0815C35.8797 31.7372 37.4094 33.0466 39.2926 34.0111L40.2043 32.2311ZM36.3687 28.9416C35.4217 27.5694 34.8553 26.0347 34.6702 24.3206L32.6818 24.5352C32.9016 26.5712 33.5816 28.4242 34.7226 30.0776L36.3687 28.9416ZM33.676 25.4279H41.4583V23.4279H33.676V25.4279ZM40.4828 24.6479C40.7733 25.9364 41.4104 26.9882 42.4334 27.707L43.5833 26.0707C43.0296 25.6816 42.6333 25.0927 42.4338 24.2079L40.4828 24.6479ZM42.4409 27.7122C43.4197 28.3868 44.5674 28.7038 45.8369 28.7038V26.7038C44.9117 26.7038 44.1738 26.4776 43.5758 26.0655L42.4409 27.7122ZM45.8369 28.7038C48.198 28.7038 50.0267 27.6437 51.1958 25.5946L49.4587 24.6035C48.6463 26.0274 47.4814 26.7038 45.8369 26.7038V28.7038ZM51.1958 25.5946C52.305 23.6507 52.8134 21.0974 52.8134 18.0199H50.8134C50.8134 20.9083 50.3311 23.0744 49.4587 24.6035L51.1958 25.5946ZM51.8134 17.0199H51.6217V19.0199H51.8134V17.0199ZM50.7157 17.5965C50.3205 18.442 49.7618 19.1668 49.0309 19.7773L50.3132 21.3122C51.2656 20.5165 52.0066 19.558 52.5276 18.4433L50.7157 17.5965ZM49.0261 19.7814C48.2969 20.3984 47.4444 20.8767 46.4579 21.2119L47.1014 23.1056C48.3096 22.695 49.3854 22.0973 50.318 21.3081L49.0261 19.7814ZM46.4579 21.2119C45.4691 21.5479 44.4223 21.718 43.312 21.718V23.718C44.6306 23.718 45.8956 23.5153 47.1014 23.1056L46.4579 21.2119ZM43.312 21.718C41.5096 21.718 39.9595 21.3085 38.6303 20.5166L37.6067 22.2348C39.2817 23.2327 41.1939 23.718 43.312 23.718V21.718ZM38.633 20.5182C37.2984 19.7175 36.2504 18.6198 35.4812 17.2063L33.7245 18.1623C34.6598 19.8809 35.9556 21.2442 37.604 22.2332L38.633 20.5182ZM35.4837 17.2109C34.7292 15.807 34.3343 14.1817 34.3244 12.3097L32.3244 12.3203C32.3358 14.4753 32.7932 16.4295 33.722 18.1577L35.4837 17.2109ZM34.3244 12.3103C34.3145 10.217 34.8013 8.41264 35.7574 6.86369L34.0555 5.81315C32.881 7.71591 32.313 9.89596 32.3244 12.3197L34.3244 12.3103ZM35.7588 6.86135C36.7227 5.2902 38.067 4.06109 39.8181 3.17089L38.9117 1.38806C36.8489 2.43677 35.2209 3.91363 34.0541 5.81549L35.7588 6.86135ZM39.822 3.16888C41.5636 2.27379 43.611 1.81518 45.9924 1.82527L46.0009 -0.174708C43.3539 -0.185925 40.9802 0.324932 38.9078 1.39007L39.822 3.16888ZM46.0446 5.89773C44.902 5.89773 43.848 6.16681 42.9111 6.72633L43.9366 8.44341C44.5338 8.08674 45.227 7.89773 46.0446 7.89773V5.89773ZM42.9058 6.72951C42.0006 7.27775 41.2827 8.02218 40.7622 8.94887L42.506 9.92826C42.8591 9.29955 43.3343 8.80818 43.9419 8.44023L42.9058 6.72951ZM40.7622 8.94887C40.2322 9.89249 39.9825 10.9413 39.9949 12.0703L41.9948 12.0483C41.9859 11.2384 42.1624 10.54 42.506 9.92826L40.7622 8.94887ZM39.9949 12.0703C40.0072 13.1883 40.2608 14.2257 40.7731 15.1606L42.527 14.1995C42.187 13.579 42.0038 12.8692 41.9948 12.0483L39.9949 12.0703ZM40.7782 15.1697C41.2967 16.093 42.0067 16.8368 42.9004 17.3858L43.9473 15.6817C43.3495 15.3145 42.877 14.8225 42.522 14.1903L40.7782 15.1697ZM42.9058 17.3891C43.8333 17.9508 44.8787 18.2209 46.0126 18.2209V16.2209C45.2077 16.2209 44.5272 16.0329 43.9419 15.6784L42.9058 17.3891ZM46.0126 18.2209C46.8626 18.2209 47.6697 18.0639 48.422 17.7397L47.6303 15.9031C47.1468 16.1115 46.6115 16.2209 46.0126 16.2209V18.2209ZM48.422 17.7397C49.1563 17.4232 49.8036 16.9822 50.3553 16.4177L48.9249 15.0198C48.5604 15.3928 48.1317 15.6869 47.6303 15.9031L48.422 17.7397ZM50.3631 16.4096C50.9102 15.8371 51.3351 15.1759 51.6371 14.4336L49.7845 13.68C49.5751 14.1948 49.2863 14.6416 48.9171 15.0279L50.3631 16.4096ZM51.6315 14.447C51.9546 13.6845 52.1068 12.8747 52.0942 12.0284L50.0944 12.0582C50.1031 12.6395 49.9996 13.172 49.79 13.6667L51.6315 14.447ZM52.0942 12.0321C52.0818 10.9272 51.8191 9.89801 51.295 8.96485L49.5513 9.94424C49.9007 10.5665 50.0855 11.2632 50.0944 12.0546L52.0942 12.0321ZM51.295 8.96485C50.7726 8.0347 50.0468 7.28975 49.1301 6.74231L48.1047 8.45939C48.7221 8.82815 49.2001 9.31899 49.5513 9.94424L51.295 8.96485ZM49.1442 6.75084C48.2173 6.17644 47.1745 5.89773 46.0446 5.89773V7.89773C46.8323 7.89773 47.5047 8.08777 48.0906 8.45086L49.1442 6.75084Z" fill="#D8D8D8"/>
</svg>
