<svg width="40" height="40" viewBox="0 0 40 40" fill="none" xmlns="http://www.w3.org/2000/svg">
<rect width="40" height="40" rx="20" fill="#F2FFFA"/>
<path d="M16.71 12.7151C16.1581 12.2768 15.4649 12.0557 14.7611 12.0934C14.0574 12.1312 13.3918 12.4253 12.89 12.9201C12.3923 13.4211 12.0976 14.0884 12.0625 14.7937C12.0274 15.499 12.2545 16.1923 12.7 16.7401C13.5023 14.9551 14.928 13.5241 16.71 12.7151Z" fill="#4E5861"/>
<path d="M20.43 15.75C20.43 15.6307 20.3826 15.5162 20.2982 15.4319C20.2138 15.3475 20.0993 15.3 19.98 15.3C19.8607 15.3 19.7462 15.3475 19.6618 15.4319C19.5774 15.5162 19.53 15.6307 19.53 15.75V20.25L23.06 22C23.1674 22.0524 23.2912 22.06 23.4042 22.0211C23.5172 21.9822 23.6101 21.9 23.6625 21.7925C23.7149 21.6851 23.7224 21.5613 23.6835 21.4483C23.6446 21.3353 23.5624 21.2424 23.455 21.19L20.425 19.69L20.43 15.75Z" fill="#4E5861"/>
<path d="M25 24.89C25.7934 24.089 26.3796 23.1067 26.708 22.0282C27.0365 20.9496 27.0972 19.8073 26.885 18.7H25.885C26.1759 19.9854 26.0381 21.3307 25.4926 22.5304C24.947 23.7301 24.0238 24.7183 22.8639 25.3439C21.7039 25.9695 20.3711 26.1983 19.0689 25.9952C17.7668 25.7922 16.5669 25.1684 15.6525 24.2193C14.7382 23.2701 14.1597 22.0478 14.0054 20.7389C13.8511 19.4301 14.1294 18.1067 14.798 16.971C15.4665 15.8352 16.4884 14.9495 17.7076 14.4492C18.9269 13.9488 20.2764 13.8613 21.55 14.2L22.05 13.3C20.5578 12.8457 18.9566 12.9027 17.5005 13.4621C16.0444 14.0215 14.8169 15.0512 14.0127 16.3878C13.2086 17.7244 12.8739 19.2913 13.0619 20.8397C13.2498 22.3882 13.9495 23.8296 15.05 24.935L13.78 26.215C13.6865 26.3105 13.6348 26.4392 13.6362 26.5728C13.6376 26.7065 13.692 26.8341 13.7875 26.9275C13.883 27.021 14.0117 27.0728 14.1453 27.0714C14.2789 27.07 14.4065 27.0155 14.5 26.92L15.83 25.59C17.0463 26.5104 18.5315 27.0051 20.0568 26.9979C21.582 26.9907 23.0625 26.4819 24.27 25.55L25.64 26.92C25.7356 27.002 25.8587 27.0448 25.9845 27.0399C26.1104 27.035 26.2297 26.9829 26.3188 26.8938C26.4078 26.8048 26.46 26.6854 26.4648 26.5596C26.4697 26.4337 26.4269 26.3107 26.345 26.215L25 24.89Z" fill="#4E5861"/>
<path d="M24.425 11.5699L21.565 16.4999C21.4985 16.5976 21.4603 16.7118 21.4546 16.8298C21.449 16.9478 21.4762 17.0651 21.5331 17.1687C21.5901 17.2722 21.6746 17.358 21.7773 17.4165C21.88 17.4749 21.9969 17.5038 22.115 17.4999H27.84C27.9581 17.5038 28.075 17.4749 28.1777 17.4165C28.2804 17.358 28.3649 17.2722 28.4219 17.1687C28.4788 17.0651 28.506 16.9478 28.5004 16.8298C28.4947 16.7118 28.4565 16.5976 28.39 16.4999L25.53 11.5699C25.4736 11.4734 25.3929 11.3934 25.296 11.3378C25.1991 11.2822 25.0893 11.2529 24.9775 11.2529C24.8658 11.2529 24.756 11.2822 24.659 11.3378C24.5621 11.3934 24.4814 11.4734 24.425 11.5699Z" fill="#4E5861"/>
</svg>
