<svg width="124" height="124" viewBox="0 0 124 124" fill="none" xmlns="http://www.w3.org/2000/svg">
<rect width="124" height="124" rx="62" fill="#FFEFFA"/>
<path d="M18 27.622C18.0574 27.4327 18.1263 27.2457 18.1699 27.0541C19.0218 23.3482 22.0436 20.8869 25.8391 20.8823C35.5779 20.8653 45.316 20.8653 55.0533 20.8823C67.6057 20.8823 80.1512 20.8823 92.6898 20.8823C96.4992 20.8823 99.5439 23.2466 100.393 26.8855C100.564 27.7013 100.641 28.5341 100.623 29.3676C100.637 47.4835 100.637 65.5994 100.623 83.7154C100.597 84.0375 100.656 84.3607 100.794 84.6529C100.931 84.945 101.142 85.1957 101.406 85.3801C102.554 86.2783 103.647 87.2619 104.765 88.2039C105.748 89.0305 106.23 90.0511 105.893 91.3349C105.555 92.6186 104.694 93.3113 103.413 93.533C102.38 93.7131 101.346 93.9208 100.224 94.1333C100.772 95.3524 101.319 96.4422 101.769 97.5967C102.13 98.5647 102.113 99.6341 101.723 100.59C101.332 101.547 100.596 102.319 99.6631 102.753C98.7298 103.186 97.668 103.249 96.6906 102.928C95.7133 102.607 94.8927 101.927 94.3936 101.023C93.9986 100.291 93.6772 99.52 93.3213 98.765C93.1536 98.4071 92.986 98.0469 92.7771 97.5943C91.9895 98.2478 91.2478 98.8204 90.5544 99.4415C89.5073 100.388 88.3501 100.804 87.0137 100.178C85.6773 99.5524 85.2962 98.3771 85.3398 96.9617C85.388 95.417 85.3513 93.8678 85.3513 92.2146H26.3397C22.6658 92.2146 19.8714 90.4713 18.6062 87.3889C18.3582 86.7862 18.2021 86.1444 18.0023 85.5187L18 27.622ZM97.7207 82.2261V34.057H20.8702C20.8564 34.3711 20.8335 34.6274 20.8335 34.8814C20.8335 51.2409 20.8335 67.5982 20.8335 83.9532C20.8335 87.3242 22.8449 89.3284 26.179 89.3284H85.3467V88.2986C85.3467 84.8998 85.3283 81.5011 85.3467 78.1023C85.3604 76.1582 86.892 74.8075 88.7381 75.1792C89.3964 75.3564 90.0043 75.6861 90.513 76.142C92.9011 78.1023 95.2455 80.1296 97.7207 82.2261ZM97.7712 31.0531C97.7712 30.1295 97.8057 29.2937 97.7712 28.4625C97.6656 26.3845 96.6461 24.8998 94.7495 24.1448C93.9148 23.8515 93.034 23.7138 92.1502 23.7384C70.2738 23.7184 48.3975 23.7138 26.5211 23.7246C26.061 23.7212 25.601 23.7435 25.1434 23.7915C23.1365 24.0224 21.3708 25.5071 20.9965 27.4858C20.783 28.6264 20.845 29.8202 20.7807 31.0416L97.7712 31.0531ZM88.2513 97.4974L91.9872 94.5258C93.2822 93.496 94.0997 93.6877 94.8 95.1931C95.4659 96.6246 96.1019 98.0746 96.7954 99.4923C97.2776 100.483 98.5336 100.621 98.9698 99.7117C99.1432 99.2422 99.1334 98.7241 98.9423 98.2617C98.32 96.7493 97.5784 95.2854 96.9148 93.7869C96.4349 92.7017 96.9148 91.8336 98.0629 91.6027C98.4555 91.5242 98.8527 91.4711 99.2477 91.3995L103.248 90.6583L88.2513 77.9591V97.4974Z" fill="#FF77D9"/>
<path d="M45.2029 48.6623H77.4879C79.4946 48.6623 80.865 49.7051 81.1112 51.4821C81.1626 52.0157 81.1106 52.554 80.9579 53.0688C79.9561 56.8118 78.9372 60.5481 77.9013 64.2775C77.1278 67.0859 74.9864 68.6748 71.9832 68.6771C65.2629 68.6771 58.5435 68.6771 51.8248 68.6771H50.6798C50.8934 69.4274 51.0421 70.087 51.2744 70.7171C51.5368 71.4357 52.15 71.6102 52.8793 71.608C56.2681 71.5966 59.6568 71.608 63.0456 71.608C67.0437 71.608 71.041 71.608 75.0375 71.608C75.4068 71.608 75.8968 71.5649 76.1221 71.7643C76.5077 72.1089 76.9513 72.6257 76.9583 73.0768C76.9583 73.4825 76.4938 73.9834 76.0873 74.2736C75.8086 74.4776 75.3092 74.43 74.9097 74.43C67.6971 74.43 60.4852 74.43 53.2742 74.43C50.4103 74.43 49.0121 73.3986 48.2712 70.7058C46.0894 62.7739 43.9123 54.8405 41.7398 46.9057C41.4216 45.7406 41.3148 45.6613 40.0699 45.6545C39.5473 45.6545 39.0247 45.6749 38.5067 45.6341C38.1371 45.6296 37.7845 45.482 37.5264 45.2238C37.2683 44.9655 37.1259 44.6178 37.1305 44.2571C37.1352 43.8964 37.2864 43.5523 37.551 43.3004C37.8156 43.0485 38.172 42.9096 38.5416 42.9141C39.4372 42.8479 40.3369 42.8555 41.2312 42.9368C42.8176 43.1272 43.8581 44.0452 44.325 45.5366C44.6385 46.5566 44.9033 47.5947 45.2029 48.6623ZM69.6884 51.4935H63.6983V57.2712C65.3241 57.2712 66.878 57.2871 68.4342 57.2485C68.5564 57.2175 68.6687 57.1571 68.7609 57.0727C68.853 56.9884 68.9219 56.8828 68.9614 56.7657C69.2285 55.043 69.4445 53.3159 69.6884 51.4935ZM60.6904 51.4935H54.6933C54.9604 53.4315 55.2206 55.3151 55.483 57.2146H60.6904V51.4935ZM52.5774 57.2599C52.3033 55.2788 52.0455 53.4065 51.7877 51.5206H45.981C46.492 53.3793 46.9658 55.1473 47.4745 56.8972C47.5196 56.9889 47.5869 57.0685 47.6707 57.1289C47.7545 57.1894 47.8522 57.2289 47.9553 57.244C49.4534 57.2803 50.9492 57.269 52.5774 57.269V57.2599ZM71.8066 57.2599C73.4046 57.2599 74.8749 57.278 76.3474 57.2417C76.4744 57.2236 76.5949 57.1757 76.6989 57.1023C76.8028 57.0289 76.887 56.9322 76.9444 56.8202C77.3973 55.306 77.7991 53.7783 78.2102 52.2505C78.3542 51.7178 78.1405 51.4368 77.5622 51.439C76.0873 51.439 74.6124 51.4209 73.1491 51.4572C73.024 51.4746 72.9052 51.5217 72.8032 51.5944C72.7011 51.6671 72.6189 51.7633 72.5638 51.8743C72.2781 53.6377 72.0575 55.3967 71.8066 57.2712V57.2599ZM63.6634 65.8415C64.9269 65.8415 66.1092 65.8551 67.2914 65.8257C67.3926 65.8094 67.4881 65.7687 67.5692 65.7074C67.6503 65.646 67.7145 65.5659 67.7559 65.4743C68.0254 63.6972 68.2553 61.9134 68.5015 60.1H63.6634V65.8415ZM60.6997 65.8007V60.0955H55.8895C56.1543 62.0244 56.4144 63.9035 56.6745 65.8007H60.6997ZM48.3339 60.0842C48.8332 61.8975 49.3187 63.6927 49.8273 65.4743C49.859 65.5585 49.911 65.6339 49.979 65.6943C50.0469 65.7547 50.1287 65.7982 50.2175 65.8211C51.3789 65.8483 52.5402 65.837 53.7782 65.837C53.4971 63.8287 53.2347 61.97 52.9722 60.0842H48.3339ZM70.6174 65.8324C71.2748 65.8324 71.8206 65.846 72.3641 65.8324C73.4697 65.7984 74.3964 65.327 74.7889 64.3387C75.3255 62.9787 75.6599 61.5598 76.1036 60.0887H71.4118L70.6174 65.8324Z" fill="#FF77D9"/>
<path d="M53.3917 78.6851C53.3924 78.2442 53.4816 77.8079 53.6541 77.4021C53.8265 76.9962 54.0786 76.629 54.3956 76.3221C54.7126 76.0152 55.0879 75.7748 55.4995 75.6152C55.9111 75.4555 56.3505 75.3799 56.7919 75.3927C57.6687 75.4099 58.504 75.7687 59.1196 76.3923C59.7352 77.0159 60.0824 77.8551 60.087 78.7307C60.0756 79.6209 59.715 80.471 59.0826 81.0986C58.4503 81.7262 57.5966 82.081 56.705 82.0869C56.2636 82.0813 55.8277 81.9888 55.4221 81.8147C55.0166 81.6406 54.6494 81.3882 54.3416 81.0723C54.0339 80.7563 53.7915 80.3827 53.6285 79.9731C53.4655 79.5635 53.385 79.1258 53.3917 78.6851ZM56.7119 78.0211C56.4834 78.336 56.2297 78.5367 56.2549 78.7056C56.2939 78.8113 56.3597 78.905 56.4458 78.9778C56.5319 79.0506 56.6354 79.0999 56.7462 79.1209C56.9016 79.1209 57.1781 78.8471 57.1895 78.6805C57.2009 78.514 56.9404 78.3223 56.7119 78.0211Z" fill="#FF77D9"/>
<path d="M70.1077 75.3914C70.5479 75.3878 70.9844 75.4711 71.3923 75.6365C71.8002 75.802 72.1713 76.0463 72.4845 76.3554C72.7977 76.6645 73.0467 77.0325 73.2172 77.438C73.3877 77.8436 73.4764 78.2788 73.4782 78.7187C73.4842 79.6059 73.1373 80.4593 72.5138 81.0909C71.8902 81.7226 71.0411 82.0808 70.1533 82.0869C69.2654 82.0929 68.4115 81.7462 67.7794 81.1231C67.1473 80.5 66.7889 79.6515 66.7828 78.7642C66.778 78.3241 66.8603 77.8875 67.0251 77.4794C67.1899 77.0713 67.4338 76.6998 67.7429 76.3863C68.0519 76.0728 68.42 75.8235 68.8258 75.6528C69.2317 75.482 69.6674 75.3932 70.1077 75.3914ZM70.862 78.7392C70.5202 78.4818 70.331 78.2313 70.1578 78.2404C69.9846 78.2495 69.8046 78.5091 69.6269 78.6594C69.7864 78.8211 69.9277 79.083 70.1077 79.1149C70.2877 79.1468 70.4974 78.9327 70.862 78.7392Z" fill="#FF77D9"/>
<path d="M33.2658 28.5192C31.0664 28.5192 28.8662 28.5192 26.6653 28.5192C26.351 28.53 26.0366 28.5062 25.7269 28.448C25.4247 28.4 25.1506 28.2313 24.9599 27.9759C24.7693 27.7205 24.6761 27.3974 24.6991 27.0715C24.6991 26.3355 25.0983 25.8742 25.7522 25.7049C26.0342 25.6556 26.3205 25.6408 26.6056 25.6607H39.9811C40.2938 25.6402 40.6077 25.6633 40.9149 25.7294C41.2145 25.7929 41.4817 25.9726 41.665 26.2339C41.8484 26.4952 41.935 26.8197 41.9083 27.1452C41.912 27.4559 41.8111 27.7576 41.6241 27.9954C41.4372 28.2332 41.1765 28.3913 40.8896 28.4407C40.5811 28.5024 40.2673 28.5287 39.9536 28.5192C37.7236 28.5224 35.4943 28.5224 33.2658 28.5192Z" fill="#FF77D9"/>
<path d="M87.8253 27.039C87.8317 27.2321 87.7991 27.4246 87.7294 27.6048C87.6596 27.785 87.5542 27.9493 87.4194 28.0878C87.2846 28.2262 87.1232 28.3361 86.9449 28.4106C86.7666 28.4852 86.5751 28.523 86.3818 28.5217C86.1886 28.5204 85.9976 28.4801 85.8203 28.4032C85.643 28.3263 85.4831 28.2144 85.3501 28.0741C85.2172 27.9339 85.1139 27.7683 85.0465 27.5871C84.9792 27.406 84.9491 27.2131 84.9581 27.0201C84.9753 26.6499 85.1352 26.3008 85.4041 26.0458C85.673 25.7908 86.0302 25.6498 86.4007 25.6522C86.7713 25.6546 87.1266 25.8004 87.3921 26.0589C87.6577 26.3174 87.8129 26.6686 87.8253 27.039Z" fill="#FF77D9"/>
<path d="M82.0869 27.1011C82.0831 27.4816 81.9284 27.845 81.6567 28.1114C81.3849 28.3778 81.0185 28.5254 80.638 28.5217C80.2575 28.5179 79.8941 28.3631 79.6277 28.0914C79.3613 27.8197 79.2137 27.4533 79.2175 27.0728C79.2193 26.8844 79.2583 26.6982 79.3321 26.5248C79.4059 26.3515 79.5131 26.1944 79.6477 26.0624C79.7822 25.9305 79.9414 25.8264 80.1162 25.756C80.291 25.6856 80.4779 25.6504 80.6663 25.6522C80.8547 25.6541 81.0409 25.6931 81.2143 25.7669C81.3876 25.8407 81.5448 25.9479 81.6767 26.0825C81.8086 26.217 81.9127 26.3762 81.9831 26.551C82.0535 26.7258 82.0887 26.9127 82.0869 27.1011Z" fill="#FF77D9"/>
<path d="M92.081 28.5209C91.7007 28.5078 91.3412 28.3441 91.0815 28.0659C90.8219 27.7877 90.6834 27.4178 90.6965 27.0375C90.7096 26.6572 90.8733 26.2977 91.1515 26.038C91.4296 25.7784 91.7996 25.6399 92.1799 25.653C92.5602 25.6661 92.9197 25.8298 93.1793 26.108C93.439 26.3862 93.5775 26.7561 93.5644 27.1364C93.5512 27.5167 93.3876 27.8762 93.1094 28.1358C92.8312 28.3955 92.4613 28.534 92.081 28.5209Z" fill="#FF77D9"/>
</svg>
