<svg width="40" height="40" viewBox="0 0 40 40" fill="none" xmlns="http://www.w3.org/2000/svg">
<rect width="40" height="40" rx="20" fill="#F2FFFA"/>
<path fill-rule="evenodd" clip-rule="evenodd" d="M15.1251 11C14.3366 11 13.678 11 13.1565 11.0702C12.6051 11.144 12.1072 11.3073 11.7077 11.7068C11.3073 12.1072 11.144 12.6051 11.0702 13.1556C11 13.678 11 14.3366 11 15.1251V15.2164C11 16.0049 11 16.6634 11.0702 17.185C11.144 17.7364 11.3073 18.2342 11.7068 18.6338C12.1072 19.0341 12.6051 19.1975 13.1556 19.2712C13.678 19.3415 14.3366 19.3415 15.1251 19.3415H15.2164C16.0049 19.3415 16.6634 19.3415 17.185 19.2712C17.7364 19.1975 18.2342 19.0341 18.6338 18.6338C19.0341 18.2342 19.1975 17.7364 19.2712 17.185C19.3415 16.6634 19.3415 16.0049 19.3415 15.2164V15.1251C19.3415 14.3366 19.3415 13.678 19.2712 13.1565C19.1975 12.6051 19.0341 12.1072 18.6338 11.7077C18.2342 11.3073 17.7364 11.144 17.185 11.0702C16.6634 11 16.0049 11 15.2164 11H15.1251ZM12.6384 12.6384C12.7526 12.5243 12.9264 12.4303 13.3321 12.375C13.7553 12.3188 14.3243 12.3171 15.1707 12.3171C16.0172 12.3171 16.5861 12.3188 17.0102 12.3759C17.415 12.4303 17.5889 12.5243 17.703 12.6393C17.8172 12.7535 17.9111 12.9264 17.9664 13.3312C18.0226 13.7553 18.0244 14.3243 18.0244 15.1707C18.0244 16.0172 18.0226 16.5861 17.9656 17.0102C17.9111 17.415 17.8172 17.5889 17.7021 17.703C17.588 17.8172 17.415 17.9111 17.0102 17.9664C16.5861 18.0226 16.0172 18.0244 15.1707 18.0244C14.3243 18.0244 13.7553 18.0226 13.3312 17.9656C12.9264 17.9111 12.7526 17.8172 12.6384 17.7021C12.5243 17.588 12.4303 17.415 12.375 17.0102C12.3188 16.5861 12.3171 16.0172 12.3171 15.1707C12.3171 14.3243 12.3188 13.7553 12.3759 13.3312C12.4303 12.9264 12.5243 12.7526 12.6393 12.6384H12.6384Z" fill="#4E5861"/>
<path d="M25.4878 12.5367C25.4878 12.3621 25.4184 12.1946 25.2949 12.0711C25.1714 11.9476 25.0039 11.8782 24.8293 11.8782C24.6546 11.8782 24.4871 11.9476 24.3636 12.0711C24.2401 12.1946 24.1707 12.3621 24.1707 12.5367V14.5123H22.1951C22.0205 14.5123 21.853 14.5817 21.7295 14.7052C21.606 14.8287 21.5366 14.9962 21.5366 15.1709C21.5366 15.3455 21.606 15.513 21.7295 15.6365C21.853 15.76 22.0205 15.8294 22.1951 15.8294H24.1707V17.805C24.1707 17.9797 24.2401 18.1472 24.3636 18.2707C24.4871 18.3942 24.6546 18.4635 24.8293 18.4635C25.0039 18.4635 25.1714 18.3942 25.2949 18.2707C25.4184 18.1472 25.4878 17.9797 25.4878 17.805V15.8294H27.4634C27.6381 15.8294 27.8056 15.76 27.9291 15.6365C28.0526 15.513 28.122 15.3455 28.122 15.1709C28.122 14.9962 28.0526 14.8287 27.9291 14.7052C27.8056 14.5817 27.6381 14.5123 27.4634 14.5123H25.4878V12.5367Z" fill="#4E5861"/>
<path fill-rule="evenodd" clip-rule="evenodd" d="M24.7836 20.6584H24.8749C25.6643 20.6584 26.322 20.6584 26.8435 20.7287C27.3949 20.8024 27.8928 20.9658 28.2923 21.3662C28.6927 21.7657 28.856 22.2635 28.9298 22.8149C29 23.3365 29 23.9942 29 24.7835V24.8748C29 25.6642 29 26.3219 28.9298 26.8434C28.856 27.3948 28.6927 27.8927 28.2923 28.2922C27.8928 28.6926 27.3949 28.8559 26.8435 28.9297C26.322 28.9999 25.6643 28.9999 24.8749 28.9999H24.7836C23.9951 28.9999 23.3366 28.9999 22.815 28.9297C22.2636 28.8559 21.7658 28.6926 21.3662 28.2922C20.9659 27.8927 20.8025 27.3948 20.7288 26.8434C20.6585 26.3219 20.6585 25.6642 20.6585 24.8748V24.7835C20.6585 23.9942 20.6585 23.3365 20.7288 22.8149C20.8025 22.2635 20.9659 21.7657 21.3662 21.3662C21.7658 20.9658 22.2636 20.8024 22.815 20.7287C23.3366 20.6584 23.9942 20.6584 24.7836 20.6584ZM22.9898 22.0335C22.585 22.0888 22.4111 22.1827 22.297 22.2969C22.1828 22.411 22.0889 22.5849 22.0336 22.9905C21.9774 23.4138 21.9756 23.9827 21.9756 24.8292C21.9756 25.6756 21.9774 26.2446 22.0336 26.6687C22.0889 27.0735 22.1828 27.2473 22.297 27.3615C22.4111 27.4756 22.585 27.5696 22.9906 27.6249C23.4139 27.6811 23.9828 27.6828 24.8293 27.6828C25.6757 27.6828 26.2447 27.6811 26.6688 27.624C27.0736 27.5696 27.2474 27.4756 27.3616 27.3606C27.4757 27.2464 27.5697 27.0735 27.625 26.6687C27.6812 26.2446 27.6829 25.6756 27.6829 24.8292C27.6829 23.9827 27.6812 23.4138 27.6241 22.9897C27.5697 22.5849 27.4757 22.411 27.3607 22.2969C27.2465 22.1827 27.0736 22.0888 26.6688 22.0335C26.2447 21.9773 25.6757 21.9755 24.8293 21.9755C23.9828 21.9755 23.4139 21.9773 22.9898 22.0335ZM15.1251 20.6584C14.3366 20.6584 13.678 20.6584 13.1565 20.7287C12.6051 20.8024 12.1072 20.9658 11.7077 21.3662C11.3073 21.7657 11.144 22.2635 11.0702 22.8149C11 23.3365 11 23.9942 11 24.7835V24.8748C11 25.6642 11 26.3219 11.0702 26.8434C11.144 27.3948 11.3073 27.8927 11.7068 28.2922C12.1072 28.6926 12.6051 28.8559 13.1556 28.9297C13.678 28.9999 14.3366 28.9999 15.1251 28.9999H15.2164C16.0049 28.9999 16.6634 28.9999 17.185 28.9297C17.7364 28.8559 18.2342 28.6926 18.6338 28.2922C19.0341 27.8927 19.1975 27.3948 19.2712 26.8434C19.3415 26.3219 19.3415 25.6642 19.3415 24.8748V24.7835C19.3415 23.9942 19.3415 23.3365 19.2712 22.8149C19.1975 22.2635 19.0341 21.7657 18.6338 21.3662C18.2342 20.9658 17.7364 20.8024 17.185 20.7287C16.6634 20.6584 16.0049 20.6584 15.2164 20.6584H15.1251ZM12.6384 22.2969C12.7526 22.1827 12.9264 22.0888 13.3321 22.0335C13.7553 21.9773 14.3243 21.9755 15.1707 21.9755C16.0172 21.9755 16.5861 21.9773 17.0102 22.0335C17.415 22.0888 17.5889 22.1827 17.703 22.2969C17.8172 22.411 17.9111 22.5849 17.9664 22.9905C18.0226 23.4138 18.0244 23.9827 18.0244 24.8292C18.0244 25.6756 18.0226 26.2446 17.9656 26.6687C17.9111 27.0735 17.8172 27.2473 17.7021 27.3615C17.588 27.4756 17.415 27.5696 17.0102 27.6249C16.5861 27.6811 16.0172 27.6828 15.1707 27.6828C14.3243 27.6828 13.7553 27.6811 13.3312 27.624C12.9264 27.5696 12.7526 27.4756 12.6384 27.3606C12.5243 27.2464 12.4303 27.0735 12.375 26.6687C12.3188 26.2446 12.3171 25.6756 12.3171 24.8292C12.3171 23.9827 12.3188 23.4138 12.3759 22.9897C12.4303 22.5849 12.5243 22.411 12.6393 22.2969H12.6384Z" fill="#4E5861"/>
</svg>
