<svg width="50" height="50" viewBox="0 0 50 50" fill="none" xmlns="http://www.w3.org/2000/svg">
<circle cx="25" cy="25" r="24.5" stroke="#539E83" stroke-dasharray="4 4"/>
<path d="M29.853 16.4431C31.0375 16.4466 32.1725 16.9188 33.0101 17.7563C33.8476 18.5939 34.3197 19.7289 34.3233 20.9134V29.8531C34.3197 31.0376 33.8476 32.1726 33.0101 33.0101C32.1725 33.8477 31.0375 34.3198 29.853 34.3234H20.9133C19.7288 34.3198 18.5938 33.8477 17.7562 33.0101C16.9187 32.1726 16.4466 31.0376 16.443 29.8531V20.9134C16.4466 19.7289 16.9187 18.5939 17.7562 17.7563C18.5938 16.9188 19.7288 16.4466 20.9133 16.4431H29.853ZM29.853 14.6553H20.9133C17.4713 14.6553 14.6552 17.4714 14.6552 20.9134V29.8531C14.6552 33.2951 17.4713 36.1112 20.9133 36.1112H29.853C33.295 36.1112 36.1111 33.2951 36.1111 29.8531V20.9134C36.1111 17.4714 33.295 14.6553 29.853 14.6553Z" fill="#539E83"/>
<path d="M31.194 20.9134C30.9288 20.9134 30.6695 20.8348 30.449 20.6874C30.2284 20.5401 30.0566 20.3307 29.9551 20.0856C29.8536 19.8406 29.827 19.571 29.8787 19.3108C29.9305 19.0507 30.0582 18.8118 30.2457 18.6242C30.4333 18.4367 30.6722 18.309 30.9324 18.2572C31.1925 18.2055 31.4621 18.232 31.7072 18.3335C31.9522 18.435 32.1616 18.6069 32.309 18.8274C32.4563 19.048 32.535 19.3072 32.535 19.5724C32.5354 19.7487 32.5009 19.9232 32.4337 20.0861C32.3664 20.2489 32.2676 20.3969 32.1431 20.5215C32.0185 20.6461 31.8705 20.7449 31.7076 20.8121C31.5447 20.8794 31.3702 20.9138 31.194 20.9134ZM25.3832 21.8071C26.0904 21.8071 26.7819 22.0169 27.37 22.4098C27.9581 22.8028 28.4164 23.3613 28.6871 24.0147C28.9578 24.6682 29.0286 25.3872 28.8906 26.0809C28.7526 26.7746 28.412 27.4119 27.9119 27.912C27.4117 28.4121 26.7745 28.7527 26.0808 28.8907C25.3871 29.0287 24.6681 28.9579 24.0146 28.6872C23.3612 28.4165 22.8026 27.9582 22.4097 27.3701C22.0167 26.782 21.807 26.0906 21.807 25.3833C21.808 24.4351 22.1851 23.5261 22.8556 22.8557C23.526 22.1852 24.435 21.8081 25.3832 21.8071ZM25.3832 20.0193C24.3223 20.0193 23.2852 20.3339 22.4031 20.9233C21.521 21.5127 20.8335 22.3504 20.4275 23.3306C20.0215 24.3107 19.9153 25.3892 20.1222 26.4297C20.3292 27.4702 20.8401 28.426 21.5902 29.1762C22.3404 29.9263 23.2962 30.4372 24.3367 30.6442C25.3772 30.8512 26.4557 30.7449 27.4359 30.3389C28.416 29.933 29.2537 29.2454 29.8431 28.3633C30.4325 27.4812 30.7471 26.4442 30.7471 25.3833C30.7471 23.9606 30.182 22.5963 29.1761 21.5904C28.1701 20.5844 26.8058 20.0193 25.3832 20.0193Z" fill="#539E83"/>
</svg>
