<svg width="40" height="40" viewBox="0 0 40 40" fill="none" xmlns="http://www.w3.org/2000/svg">
<rect width="40" height="40" rx="20" fill="#F2FFFA"/>
<path d="M20.8077 17.9359C20.8077 17.7625 20.7388 17.5962 20.6162 17.4736C20.4936 17.3509 20.3273 17.282 20.1538 17.282H14.9231C14.7497 17.282 14.5834 17.3509 14.4607 17.4736C14.3381 17.5962 14.2692 17.7625 14.2692 17.9359C14.2692 18.1093 14.3381 18.2756 14.4607 18.3982C14.5834 18.5208 14.7497 18.5897 14.9231 18.5897H20.1538C20.3273 18.5897 20.4936 18.5208 20.6162 18.3982C20.7388 18.2756 20.8077 18.1093 20.8077 17.9359ZM19.9359 20.5513C19.9359 20.3779 19.867 20.2116 19.7444 20.0889C19.6218 19.9663 19.4555 19.8974 19.282 19.8974H14.9231C14.7497 19.8974 14.5834 19.9663 14.4607 20.0889C14.3381 20.2116 14.2692 20.3779 14.2692 20.5513C14.2692 20.7247 14.3381 20.891 14.4607 21.0136C14.5834 21.1362 14.7497 21.2051 14.9231 21.2051H19.282C19.4555 21.2051 19.6218 21.1362 19.7444 21.0136C19.867 20.891 19.9359 20.7247 19.9359 20.5513ZM20.1538 22.5128C20.3273 22.5128 20.4936 22.5817 20.6162 22.7043C20.7388 22.8269 20.8077 22.9932 20.8077 23.1667C20.8077 23.3401 20.7388 23.5064 20.6162 23.629C20.4936 23.7516 20.3273 23.8205 20.1538 23.8205H14.9231C14.7497 23.8205 14.5834 23.7516 14.4607 23.629C14.3381 23.5064 14.2692 23.3401 14.2692 23.1667C14.2692 22.9932 14.3381 22.8269 14.4607 22.7043C14.5834 22.5817 14.7497 22.5128 14.9231 22.5128H20.1538Z" fill="#4E5861"/>
<path fill-rule="evenodd" clip-rule="evenodd" d="M14.2692 28.3971H25.6026C26.2384 28.3971 26.8482 28.1445 27.2978 27.6949C27.7474 27.2453 28 26.6355 28 25.9997V21.2048C28 21.0314 27.9311 20.8651 27.8085 20.7425C27.6859 20.6199 27.5196 20.551 27.3462 20.551H24.5128V13.7449C24.5128 12.5043 23.1101 11.7825 22.1006 12.5034L21.948 12.6124C21.6139 12.8496 21.2142 12.9767 20.8045 12.976C20.3948 12.9754 19.9955 12.8471 19.6622 12.6089C19.1056 12.2128 18.4395 12 17.7564 12C17.0733 12 16.4072 12.2128 15.8507 12.6089C15.5173 12.8471 15.118 12.9754 14.7083 12.976C14.2986 12.9767 13.8989 12.8496 13.5648 12.6124L13.4123 12.5034C12.4027 11.7825 11 12.5034 11 13.7449V25.1279C11 25.9949 11.3444 26.8265 11.9575 27.4396C12.5706 28.0527 13.4022 28.3971 14.2692 28.3971ZM16.6109 13.6725C16.9456 13.4349 17.3459 13.3073 17.7564 13.3073C18.1669 13.3073 18.5672 13.4349 18.9019 13.6725C19.457 14.0693 20.1221 14.283 20.8044 14.2837C21.4867 14.2845 22.1522 14.0724 22.7082 13.6769L22.8608 13.5679C22.8933 13.5447 22.9316 13.5309 22.9715 13.5281C23.0114 13.5252 23.0513 13.5333 23.0868 13.5516C23.1224 13.5699 23.1522 13.5976 23.1731 13.6316C23.1939 13.6657 23.205 13.7049 23.2051 13.7449V25.9997C23.2051 26.392 23.2993 26.7625 23.4667 27.0894H14.2692C13.749 27.0894 13.2501 26.8828 12.8822 26.5149C12.5144 26.1471 12.3077 25.6481 12.3077 25.1279V13.7449C12.3078 13.7049 12.3189 13.6657 12.3398 13.6316C12.3606 13.5976 12.3905 13.5699 12.426 13.5516C12.4616 13.5333 12.5015 13.5252 12.5413 13.5281C12.5812 13.5309 12.6195 13.5447 12.6521 13.5679L12.8046 13.6769C13.3606 14.0724 14.0261 14.2845 14.7084 14.2837C15.3907 14.283 16.0558 14.0693 16.6109 13.6725ZM24.5128 25.9997V21.8587H26.6923V25.9997C26.6923 26.2887 26.5775 26.5659 26.3731 26.7703C26.1688 26.9746 25.8916 27.0894 25.6026 27.0894C25.3135 27.0894 25.0364 26.9746 24.832 26.7703C24.6276 26.5659 24.5128 26.2887 24.5128 25.9997Z" fill="#4E5861"/>
</svg>
