<svg width="124" height="124" viewBox="0 0 124 124" fill="none" xmlns="http://www.w3.org/2000/svg">
<rect width="124" height="124" rx="62" fill="#C3F7E4"/>
<path d="M99.0159 27.1872V84.1509C97.9709 86.7311 97.0077 87.379 94.194 87.379H73.231C74.0658 89.0603 74.8247 90.6073 75.6245 92.1309C75.7059 92.2242 75.8064 92.2991 75.9192 92.3504C76.0319 92.4018 76.1544 92.4284 76.2783 92.4286C77.5625 92.4578 78.8468 92.4286 80.1311 92.4286C80.9525 92.4421 81.7467 92.7246 82.392 93.2328C83.0374 93.7411 83.4982 94.4471 83.7037 95.2424C83.9162 96.0628 83.8483 96.9307 83.5109 97.7081C83.1735 98.4856 82.5859 99.1279 81.8415 99.533C81.4971 99.7198 81.1293 99.8482 80.7733 100H41.3167C41.2125 99.9435 41.1053 99.8929 40.9956 99.8482C40.114 99.5868 39.3573 99.0141 38.8663 98.2367C38.3752 97.4592 38.1832 96.5298 38.3259 95.6214C38.4686 94.713 38.9364 93.8873 39.6422 93.2979C40.348 92.7085 41.2438 92.3954 42.1631 92.4169C43.3307 92.4169 44.4982 92.4169 45.6657 92.4169C45.8694 92.4497 46.0781 92.4089 46.2546 92.302C46.431 92.195 46.5637 92.0289 46.6289 91.8332C47.1485 90.7123 47.7264 89.6207 48.2693 88.5174C48.4503 88.1555 48.6079 87.7877 48.818 87.3499H27.5691C24.6502 87.3499 23.0741 85.7971 23.0741 82.8841V28.5591C23.0741 25.6052 24.6036 24.0699 27.5399 24.0699H92.1099C93.1257 24.0699 94.1414 24.0699 95.1513 24.0699C95.9353 24.078 96.6984 24.3233 97.3403 24.7734C97.9821 25.2236 98.4727 25.8575 98.7473 26.5918C98.829 26.7961 98.9225 26.9829 99.0159 27.1872ZM96.4765 79.7668H39.0459C38.7007 79.7807 38.3551 79.765 38.0126 79.7201C37.7376 79.6871 37.4844 79.554 37.3014 79.3462C37.1183 79.1383 37.0182 78.8704 37.0202 78.5934C36.9871 78.3079 37.0605 78.02 37.2263 77.7852C37.3922 77.5504 37.6389 77.385 37.9192 77.3208C38.282 77.2468 38.6527 77.2193 39.0225 77.2391H96.4882V28.5357C96.4882 27.0355 96.0503 26.6093 94.5326 26.6093H27.5749C26.0104 26.6093 25.6018 27.0179 25.6018 28.5883V77.2391H32.9922C33.6694 77.2391 34.2882 77.4667 34.3757 78.1906C34.3959 78.6585 34.2397 79.1168 33.9379 79.4749C33.6175 79.6973 33.2286 79.7986 32.8404 79.761C30.7097 79.761 28.5848 79.761 26.4599 79.761H25.7127C25.6602 79.9011 25.6251 79.9419 25.6251 79.9887C25.6251 80.9052 25.6251 81.8158 25.6251 82.7323C25.6251 84.4836 26.0046 84.8397 27.7033 84.8397H94.4158C94.6858 84.8632 94.9573 84.8632 95.2272 84.8397C95.5553 84.8208 95.8644 84.6797 96.0935 84.4441C96.3226 84.2085 96.4551 83.8956 96.4648 83.5671C96.5173 82.3179 96.4765 81.0861 96.4765 79.7668ZM49.1917 92.3995H72.8983C72.1452 90.8934 71.4097 89.4806 70.7325 88.0387C70.6623 87.8207 70.5185 87.634 70.3258 87.5104C70.133 87.3869 69.9032 87.3343 69.6759 87.3616C67.7028 87.3966 65.7297 87.3616 63.7507 87.3616C59.9504 87.3616 56.1618 87.3616 52.344 87.3616C52.0871 87.3616 51.6843 87.4491 51.5909 87.6242C50.7736 89.1887 50.0089 90.7591 49.1917 92.3995ZM61.1238 94.968H42.671C42.4492 94.968 42.2215 94.968 41.9997 94.968C41.6951 94.9835 41.407 95.1115 41.1914 95.3272C40.9757 95.5429 40.8477 95.8309 40.8322 96.1355C40.8145 96.4647 40.9271 96.7876 41.1456 97.0344C41.364 97.2813 41.6708 97.4323 41.9997 97.4548C42.2213 97.4694 42.4436 97.4694 42.6652 97.4548H79.5007C79.7474 97.4754 79.9953 97.4754 80.242 97.4548C80.552 97.4141 80.8352 97.2581 81.0354 97.018C81.2355 96.7778 81.3379 96.4711 81.322 96.1589C81.3065 95.8542 81.1785 95.5662 80.9628 95.3505C80.7471 95.1348 80.4591 95.0068 80.1545 94.9913C79.9093 94.9913 79.6583 94.9913 79.4131 94.9913L61.1238 94.968Z" fill="#33E7A6"/>
<path d="M39.4428 65.8556H38.5088C36.3839 65.8556 34.259 65.8556 32.1341 65.8556C30.447 65.8556 29.4255 64.8341 29.4255 63.1879C29.4255 54.8361 29.4255 46.4805 29.4255 38.121C29.3992 37.7673 29.4497 37.4121 29.5734 37.0796C29.6971 36.7472 29.8911 36.4454 30.1422 36.1949C30.3933 35.9443 30.6955 35.751 31.0282 35.6281C31.3609 35.5051 31.7162 35.4554 32.0699 35.4825C34.5159 35.4825 36.9618 35.4825 39.5362 35.4825C39.5362 34.7236 39.5362 33.9938 39.5362 33.2641C39.5362 31.4019 40.4995 30.4212 42.3558 30.4212C54.8094 30.4212 67.2631 30.4212 79.7167 30.4212C81.5789 30.4212 82.5421 31.3961 82.5479 33.2583C82.5479 33.9705 82.5479 34.6827 82.5479 35.4825H83.406C85.6068 35.4825 87.8076 35.4825 90.0084 35.4825C90.362 35.4547 90.7175 35.5035 91.0505 35.6257C91.3834 35.7479 91.6861 35.9407 91.9377 36.1907C92.1894 36.4406 92.3841 36.742 92.5085 37.0741C92.6329 37.4063 92.6842 37.7614 92.6587 38.1152C92.6587 46.4669 92.6587 54.8225 92.6587 63.182C92.6587 64.8341 91.6371 65.8381 89.9559 65.8556C87.7784 65.8556 85.6068 65.8556 83.4294 65.8556H82.6472C82.0634 67.8463 81.3746 68.3892 79.3547 68.3892H42.7353C40.7096 68.3892 39.9741 67.8463 39.4428 65.8556ZM42.1048 32.9781V58.3367C42.3383 58.0624 42.4959 57.8873 42.6477 57.7005L54.6849 42.6569C55.6248 41.4893 56.3661 41.4893 57.2943 42.6569C60.0691 46.1945 62.8459 49.7302 65.6246 53.2639C65.7822 53.4682 65.9574 53.6608 66.1442 53.8826C67.8955 52.1313 69.5475 50.4676 71.2287 48.7922C72.1569 47.864 72.7232 47.864 73.663 48.7922C75.572 50.6895 77.4692 52.5984 79.3781 54.5015C79.5532 54.6824 79.74 54.8517 79.9618 55.0852V32.9606L42.1048 32.9781ZM80.0494 65.8206C80.0494 63.5264 80.0494 61.3023 80.0494 59.084C80.0034 58.8002 79.8587 58.5418 79.6408 58.3543C77.3991 56.0893 75.14 53.836 72.8866 51.5826C72.779 51.4831 72.6659 51.3896 72.5481 51.3024L67.8312 56.0251C67.9071 56.1185 68.0239 56.2761 68.1406 56.4337C69.0571 57.6012 69.9795 58.7687 70.8785 59.9363C70.9921 60.0645 71.0784 60.2147 71.1321 60.3774C71.1858 60.5402 71.2058 60.7121 71.1908 60.8829C71.1758 61.0536 71.1261 61.2195 71.0448 61.3704C70.9636 61.5213 70.8524 61.654 70.7181 61.7605C70.5838 61.867 70.4292 61.945 70.2638 61.9897C70.0983 62.0344 69.9255 62.0449 69.7559 62.0206C69.5862 61.9963 69.4233 61.9377 69.2771 61.8483C69.1308 61.7589 69.0044 61.6407 68.9054 61.5008C68.8236 61.4074 68.7478 61.3081 68.6719 61.2147L58.1641 47.7882L56.0626 45.1262C56.0018 45.1698 55.9433 45.2165 55.8875 45.2663L42.3733 62.1954C42.2518 62.3166 42.1686 62.4709 42.134 62.6391C42.134 63.6899 42.134 64.7465 42.134 65.8323L80.0494 65.8206ZM32.0057 38.0335V63.2696H39.4895V38.0335H32.0057ZM82.6063 38.0335V63.2987H90.1193V38.0335H82.583H82.6063Z" fill="#33E7A6"/>
<path d="M52.163 72.1953C52.1607 72.3617 52.1257 72.526 52.0599 72.6788C51.9941 72.8316 51.8989 72.97 51.7796 73.086C51.6604 73.202 51.5194 73.2934 51.3649 73.3549C51.2103 73.4165 51.0451 73.4469 50.8787 73.4446C50.5566 73.4234 50.2535 73.2844 50.0274 73.0539C49.8013 72.8235 49.6679 72.5178 49.6528 72.1953C49.6528 71.8593 49.7863 71.5371 50.0238 71.2996C50.2614 71.062 50.5836 70.9286 50.9196 70.9286C51.0858 70.9253 51.2509 70.9559 51.4048 71.0187C51.5587 71.0815 51.6981 71.1751 51.8145 71.2937C51.931 71.4123 52.022 71.5535 52.0819 71.7085C52.1418 71.8636 52.1694 72.0292 52.163 72.1953Z" fill="#33E7A6"/>
<path d="M72.4138 72.1837C72.4018 72.5188 72.2609 72.8363 72.0206 73.0701C71.7802 73.3039 71.459 73.4359 71.1237 73.4387C70.9575 73.4334 70.7941 73.3954 70.6427 73.3268C70.4914 73.2581 70.3551 73.1602 70.2417 73.0387C70.1283 72.9171 70.0401 72.7744 69.982 72.6186C69.924 72.4629 69.8974 72.2972 69.9036 72.1311C69.9043 71.9709 69.9369 71.8125 69.9994 71.665C70.062 71.5176 70.1532 71.3839 70.2678 71.272C70.3824 71.1601 70.5181 71.0722 70.6671 71.0132C70.816 70.9543 70.9752 70.9255 71.1353 70.9286C71.3017 70.927 71.4667 70.9583 71.621 71.0205C71.7753 71.0827 71.9158 71.1747 72.0345 71.2913C72.1532 71.4078 72.2478 71.5466 72.3129 71.6997C72.378 71.8529 72.4122 72.0173 72.4138 72.1837Z" fill="#33E7A6"/>
<path d="M57.2359 72.1837C57.2359 72.3503 57.2029 72.5152 57.1388 72.6689C57.0747 72.8227 56.9808 72.9622 56.8625 73.0795C56.7442 73.1967 56.6038 73.2894 56.4494 73.352C56.2951 73.4147 56.1299 73.4462 55.9633 73.4446C55.6283 73.4266 55.3132 73.2799 55.0837 73.0352C54.8542 72.7905 54.7281 72.4666 54.7316 72.1311C54.7451 71.8085 54.8825 71.5034 55.1152 71.2794C55.3478 71.0555 55.6579 70.9298 55.9808 70.9286C56.1472 70.9229 56.3129 70.9514 56.4678 71.0125C56.6226 71.0736 56.7633 71.1658 56.881 71.2835C56.9987 71.4012 57.0909 71.5419 57.152 71.6967C57.2131 71.8516 57.2416 72.0174 57.2359 72.1837Z" fill="#33E7A6"/>
<path d="M67.37 72.1603C67.3656 72.4965 67.2313 72.818 66.9952 73.0574C66.759 73.2968 66.4394 73.4355 66.1033 73.4445C65.9372 73.4415 65.7733 73.4057 65.6211 73.3392C65.4689 73.2726 65.3313 73.1766 65.2163 73.0568C65.1013 72.9369 65.0112 72.7954 64.951 72.6406C64.8908 72.4857 64.8618 72.3205 64.8657 72.1545C64.8634 71.9943 64.8929 71.8353 64.9526 71.6866C65.0123 71.538 65.1009 71.4027 65.2134 71.2886C65.3258 71.1746 65.4598 71.084 65.6076 71.0222C65.7553 70.9604 65.9139 70.9285 66.0741 70.9286C66.2402 70.9239 66.4055 70.9521 66.5607 71.0116C66.7158 71.071 66.8577 71.1606 66.9781 71.275C67.0985 71.3895 67.1952 71.5266 67.2624 71.6785C67.3297 71.8304 67.3663 71.9942 67.37 72.1603Z" fill="#33E7A6"/>
<path d="M62.2971 72.1894C62.3036 72.3608 62.2748 72.5317 62.2127 72.6915C62.1505 72.8514 62.0562 72.9968 61.9357 73.1188C61.8152 73.2408 61.6709 73.3368 61.5118 73.4008C61.3527 73.4649 61.1822 73.4957 61.0108 73.4913C60.8393 73.4869 60.6706 73.4474 60.515 73.3753C60.3594 73.3031 60.2203 73.1998 60.1061 73.0718C59.992 72.9438 59.9053 72.7938 59.8514 72.631C59.7975 72.4682 59.7776 72.296 59.7928 72.1252C59.8211 71.8073 59.9695 71.5122 60.2077 71.2998C60.4459 71.0874 60.7561 70.9737 61.0751 70.9819C61.3941 70.9901 61.6981 71.1195 61.9251 71.3438C62.1521 71.5682 62.2852 71.8705 62.2971 72.1894Z" fill="#33E7A6"/>
<path d="M68.6368 35.4766C69.3148 35.456 69.99 35.5721 70.6221 35.8179C71.2543 36.0636 71.8305 36.4341 72.3165 36.9072C72.8025 37.3803 73.1884 37.9465 73.4511 38.5718C73.7137 39.1971 73.8479 39.8689 73.8455 40.5472C73.8432 41.2255 73.7044 41.8962 73.4374 42.5197C73.1704 43.1432 72.7806 43.7067 72.2913 44.1764C71.8021 44.6461 71.2233 45.0126 70.5894 45.254C69.9556 45.4954 69.2796 45.6068 68.6018 45.5815C67.2915 45.5326 66.0515 44.9767 65.1434 44.0308C64.2354 43.085 63.7303 41.8233 63.7348 40.5121C63.7394 39.2009 64.2532 37.9428 65.1678 37.0033C66.0824 36.0638 67.3263 35.5164 68.6368 35.4766ZM68.666 38.0043C67.9956 38.0043 67.3527 38.2706 66.8787 38.7446C66.4046 39.2186 66.1383 39.8616 66.1383 40.5319C66.1383 41.2023 66.4046 41.8453 66.8787 42.3193C67.3527 42.7933 67.9956 43.0597 68.666 43.0597C69.3364 43.0597 69.9793 42.7933 70.4534 42.3193C70.9274 41.8453 71.1937 41.2023 71.1937 40.5319C71.1937 39.8616 70.9274 39.2186 70.4534 38.7446C69.9793 38.2706 69.3364 38.0043 68.666 38.0043Z" fill="#33E7A6"/>
</svg>
