<svg width="124" height="124" viewBox="0 0 124 124" fill="none" xmlns="http://www.w3.org/2000/svg">
<rect width="124" height="124" rx="62" fill="#FFEDE8"/>
<path d="M42.1253 77.9242C39.8408 68.6518 41.2686 60.1576 46.7111 52.1002C46.224 51.6914 45.664 51.2826 45.1825 50.7955C44.8924 50.5381 44.6602 50.2221 44.5012 49.8684C44.3421 49.5147 44.2599 49.1312 44.2599 48.7434C44.2599 48.3556 44.3421 47.9721 44.5012 47.6184C44.6602 47.2647 44.8924 46.9486 45.1825 46.6912C46.2128 45.6199 47.2617 44.5709 48.3293 43.5444C48.5899 43.2571 48.9084 43.0283 49.2639 42.8731C49.6194 42.718 50.0037 42.6399 50.3915 42.6442C50.7794 42.6484 51.1619 42.7348 51.5139 42.8977C51.8659 43.0606 52.1794 43.2963 52.4336 43.5892C52.9095 44.0539 53.3351 44.5635 53.811 45.0786C57.5199 42.4519 61.7654 40.6809 66.2415 39.8936V37.2899C63.8506 36.5788 63.3355 35.8789 63.3355 33.3704C63.3355 32.8105 63.3355 32.2506 63.3355 31.6906C63.3336 31.2962 63.4118 30.9056 63.5655 30.5424C63.7191 30.1792 63.9449 29.8509 64.2292 29.5776C64.5135 29.3042 64.8504 29.0916 65.2194 28.9524C65.5884 28.8132 65.9819 28.7504 66.3759 28.7678C67.7086 28.7678 69.0412 28.7678 70.4074 28.7678C70.5026 28.3199 70.5642 27.9223 70.6705 27.536C70.9367 26.5444 71.517 25.6657 72.3246 25.0317C73.1322 24.3978 74.1235 24.0426 75.15 24.0196C83.7356 23.9935 92.3101 23.9935 100.873 24.0196C102.084 24.0351 103.241 24.5182 104.103 25.3678C104.965 26.2173 105.465 27.3675 105.498 28.5774C105.562 34.5501 105.562 40.5114 105.498 46.4616C105.449 47.6994 104.92 48.8695 104.023 49.7243C103.127 50.5791 101.933 51.0516 100.694 51.0419C98.9584 51.0755 97.2169 51.0419 95.3356 51.0419C95.5315 51.3555 95.6492 51.5683 95.7947 51.7586C109.16 69.9956 98.7063 95.842 76.4098 99.6888C69.6709 100.804 62.7527 99.6161 56.7719 96.3164C50.7912 93.0167 46.0969 87.7978 43.4467 81.5022C43.2003 80.9087 42.9316 80.6063 42.2597 80.6846C41.7008 80.7335 41.1387 80.7335 40.5799 80.6846C40.3898 80.6883 40.201 80.6523 40.0256 80.5788C39.8503 80.5053 39.6922 80.3959 39.5615 80.2579C39.4308 80.1198 39.3304 79.956 39.2666 79.7769C39.2028 79.5978 39.1771 79.4072 39.1912 79.2176C39.196 79.0354 39.2378 78.8561 39.3138 78.6905C39.3898 78.5249 39.4986 78.3763 39.6336 78.2539C39.7686 78.1314 39.927 78.0376 40.0993 77.9781C40.2715 77.9185 40.454 77.8945 40.6358 77.9074C41.1062 77.9074 41.5709 77.9242 42.1253 77.9242ZM76.8746 51.0475C76.2475 51.0475 75.7548 51.0475 75.1948 51.0475C73.8958 50.9915 72.6247 50.6107 71.8912 49.5525C71.1577 48.4942 70.329 48.539 69.3435 48.6454C68.8228 48.7014 68.3021 48.7574 67.787 48.8525C63.4328 49.5943 59.4182 51.6755 56.3026 54.8063C53.1869 57.9371 51.1252 61.9616 50.4045 66.3194C49.6839 70.6771 50.3402 75.1511 52.282 79.1182C54.2239 83.0854 57.3546 86.3483 61.2382 88.4523C65.1217 90.5564 69.5648 91.3969 73.9486 90.8569C78.3324 90.3169 82.4386 88.4232 85.6955 85.4396C88.9523 82.4559 91.1976 78.5308 92.1185 74.211C93.0395 69.8912 92.5904 65.3916 90.8337 61.3391C89.3688 57.9085 87.0048 54.9371 83.9913 52.7385C82.4739 54.3231 80.9789 55.8629 79.5119 57.4195C79.3158 57.6947 79.0352 57.8983 78.7128 57.9994C78.3904 58.1004 78.0438 58.0934 77.7257 57.9795C76.9922 57.6883 76.8522 57.0611 76.8634 56.3332C76.8914 54.6198 76.8746 52.9121 76.8746 51.0531V51.0475ZM86.5335 51.0475C89.7369 53.6359 92.2218 57.0039 93.7499 60.8285C95.2779 64.6531 95.7979 68.806 95.26 72.8893C94.7221 76.9725 93.1443 80.8492 90.6779 84.1476C88.2115 87.446 84.9392 90.0554 81.1747 91.7259C77.4101 93.3964 73.2796 94.0719 69.179 93.6876C65.0784 93.3033 61.1453 91.8721 57.7567 89.5312C54.3681 87.1903 51.6376 84.0182 49.827 80.319C48.0165 76.6198 47.1864 72.5175 47.4166 68.4054C47.6626 63.2806 49.5957 58.3809 52.9151 54.4687C57.4618 49.0429 63.3467 46.2041 70.4074 45.7561V42.2174C69.1084 42.3742 67.8653 42.4805 66.6447 42.6765C50.9274 45.241 40.4847 61.4006 44.8073 76.7875C47.7974 87.471 54.8861 94.3358 65.704 96.6539C76.3427 98.9384 85.4975 95.6013 92.5807 87.2975C101.288 77.0955 100.98 61.5798 92.0656 51.6299C91.8416 51.3415 91.5218 51.1429 91.1641 51.0699C89.6691 51.0307 88.1908 51.0587 86.5335 51.0587V51.0475ZM79.6631 52.6153C80.9005 51.4954 82.2948 50.342 83.5826 49.0765C83.8367 48.804 84.1458 48.5887 84.4895 48.4448C84.8332 48.301 85.2036 48.2319 85.576 48.2422C90.4866 48.2422 95.3972 48.2422 100.313 48.2422C101.808 48.2422 102.687 47.4583 102.687 46.0641C102.687 40.364 102.687 34.6657 102.687 28.9694C102.712 28.6764 102.673 28.3816 102.572 28.1054C102.471 27.8293 102.31 27.5785 102.103 27.3706C101.895 27.1627 101.644 27.0026 101.368 26.9016C101.092 26.8006 100.797 26.761 100.504 26.7856C92.1309 26.7856 83.7599 26.7856 75.3908 26.7856C75.1048 26.766 74.8179 26.8076 74.5493 26.9076C74.2806 27.0077 74.0364 27.1638 73.8329 27.3657C73.6295 27.5676 73.4714 27.8106 73.3693 28.0785C73.2671 28.3463 73.2233 28.6329 73.2407 28.919C73.2183 34.649 73.2183 40.377 73.2407 46.1033C73.2285 46.3891 73.2763 46.6743 73.381 46.9405C73.4857 47.2067 73.6449 47.448 73.8485 47.649C74.0521 47.8499 74.2955 48.006 74.5631 48.1073C74.8306 48.2085 75.1164 48.2525 75.402 48.2366C76.2139 48.2366 77.0258 48.2366 77.8433 48.2366C79.1479 48.2366 79.6239 48.7125 79.6351 50.0228C79.6742 51.0307 79.6631 52.005 79.6631 52.6265V52.6153ZM70.4242 34.328V31.6515H66.1911V34.328H70.4242ZM50.4067 45.5266L47.2206 48.6958L48.2957 49.8156L51.5377 46.6352L50.4067 45.5266ZM69.1196 37.1948V39.5241L70.4242 39.4401V37.2004L69.1196 37.1948Z" fill="#FF4E43"/>
<path d="M24.7954 58.8754C25.8425 58.8754 26.8839 58.8754 27.9254 58.8754C28.1092 58.8728 28.2918 58.9065 28.4626 58.9744C28.6334 59.0424 28.7892 59.1434 28.921 59.2715C29.0528 59.3997 29.1581 59.5526 29.2308 59.7214C29.3035 59.8903 29.3423 60.0718 29.3448 60.2556C29.3474 60.4394 29.3137 60.6219 29.2458 60.7928C29.1778 60.9636 29.0768 61.1194 28.9487 61.2512C28.8205 61.383 28.6676 61.4882 28.4988 61.561C28.3299 61.6337 28.1484 61.6725 27.9646 61.675C25.8537 61.675 23.7371 61.675 21.6262 61.675C21.4297 61.6904 21.2321 61.6651 21.0458 61.6007C20.8595 61.5363 20.6885 61.4342 20.5435 61.3007C20.3984 61.1673 20.2825 61.0053 20.2029 60.825C20.1233 60.6447 20.0817 60.4499 20.0808 60.2528C20.0808 59.4465 20.6967 58.9146 21.671 58.8978C22.6452 58.881 23.7539 58.8754 24.7954 58.8754Z" fill="#FF4E43"/>
<path d="M36.6547 58.8753C37.7018 58.8753 38.7488 58.8753 39.7959 58.8753C40.843 58.8753 41.3413 59.4352 41.3301 60.2695C41.3324 60.4602 41.2947 60.6493 41.2195 60.8245C41.1443 60.9998 41.0332 61.1574 40.8935 61.2871C40.7537 61.4169 40.5883 61.5159 40.408 61.5779C40.2276 61.6399 40.0363 61.6634 39.8463 61.6469C37.726 61.6731 35.6039 61.6731 33.4799 61.6469C33.2961 61.6447 33.1144 61.6063 32.9455 61.5339C32.7765 61.4616 32.6234 61.3566 32.495 61.2251C32.3666 61.0935 32.2653 60.938 32.197 60.7673C32.1287 60.5966 32.0946 60.4142 32.0968 60.2304C32.099 60.0465 32.1374 59.8649 32.2098 59.6959C32.2822 59.5269 32.3872 59.3738 32.5187 59.2454C32.6503 59.117 32.8058 59.0157 32.9765 58.9474C33.1472 58.8791 33.3297 58.8451 33.5135 58.8473C34.5886 58.8585 35.6076 58.8753 36.6547 58.8753Z" fill="#FF4E43"/>
<path d="M30.7307 67.9742C29.6612 67.9742 28.5861 67.9742 27.5167 67.9742C27.1454 67.9742 26.7894 67.8268 26.5269 67.5643C26.2643 67.3017 26.1169 66.9457 26.1169 66.5744C26.1169 66.2031 26.2643 65.8471 26.5269 65.5845C26.7894 65.322 27.1454 65.1746 27.5167 65.1746C29.6332 65.1746 31.7442 65.1746 33.8607 65.1746C34.0569 65.1582 34.2543 65.183 34.4403 65.2472C34.6264 65.3113 34.7971 65.4136 34.9414 65.5474C35.0858 65.6812 35.2006 65.8436 35.2787 66.0243C35.3568 66.205 35.3964 66.4 35.3949 66.5968C35.3949 67.3975 34.7566 67.9406 33.8047 67.9518C32.8528 67.963 31.7442 67.9742 30.7307 67.9742Z" fill="#FF4E43"/>
<path d="M30.669 77.9242C31.7384 77.9242 32.8135 77.9242 33.883 77.9242C34.0718 77.9112 34.2612 77.9369 34.4397 77.9998C34.6182 78.0627 34.7819 78.1614 34.9209 78.2899C35.0599 78.4184 35.1711 78.5739 35.2478 78.7469C35.3244 78.9199 35.3649 79.1067 35.3668 79.296C35.3655 79.4856 35.3259 79.6731 35.2505 79.8471C35.1751 80.0211 35.0654 80.1782 34.9279 80.3089C34.7905 80.4395 34.6281 80.5411 34.4505 80.6076C34.2729 80.6741 34.0836 80.7041 33.8942 80.6958C31.7478 80.7219 29.6051 80.7219 27.4662 80.6958C27.2765 80.7064 27.0867 80.6785 26.9081 80.6136C26.7296 80.5488 26.566 80.4485 26.4274 80.3187C26.2887 80.1889 26.1777 80.0324 26.1012 79.8586C26.0247 79.6847 25.9843 79.4971 25.9823 79.3072C25.9823 78.4841 26.587 77.9354 27.5389 77.9186C28.5804 77.913 29.6275 77.9242 30.669 77.9242Z" fill="#FF4E43"/>
<path d="M35.1485 74.3462C34.1294 74.3462 33.1103 74.3462 32.0969 74.3462C31.0834 74.3462 30.5179 73.7862 30.5011 72.9855C30.4843 72.1848 31.1058 71.5802 32.1248 71.569C34.163 71.569 36.1956 71.569 38.2337 71.569C39.2528 71.569 39.9135 72.1289 39.8799 72.9744C39.8463 73.8199 39.2416 74.3294 38.2001 74.3462C37.1587 74.363 36.1732 74.3462 35.1485 74.3462Z" fill="#FF4E43"/>
<path d="M23.5131 74.3462C22.5276 74.3462 21.5421 74.3462 20.5567 74.3462C19.5712 74.3462 18.9944 73.7862 19 72.9519C19.0027 72.755 19.0466 72.5609 19.1288 72.382C19.2111 72.203 19.3298 72.0433 19.4775 71.913C19.6252 71.7827 19.7985 71.6849 19.9863 71.6256C20.1741 71.5663 20.3722 71.547 20.5679 71.5689C22.509 71.5465 24.4519 71.5465 26.3967 71.5689C27.3766 71.5689 27.9814 72.1288 28.0037 72.9239C28.0261 73.719 27.4046 74.307 26.3855 74.3518H23.5131V74.3462Z" fill="#FF4E43"/>
<path d="M72.7591 62.1285C72.7591 63.058 72.7255 63.993 72.7591 64.9281C72.7788 65.0826 72.8315 65.2311 72.9136 65.3635C72.9957 65.4958 73.1053 65.609 73.235 65.6952C74.1661 66.1823 74.9318 66.9344 75.4355 67.8566C75.5305 67.9953 75.6541 68.1121 75.7981 68.199C75.942 68.2859 76.1028 68.341 76.2698 68.3604C78.0672 68.4052 79.8702 68.3604 81.6676 68.3604C82.0176 68.3143 82.3727 68.3937 82.6699 68.5843C82.9671 68.7749 83.1873 69.0646 83.2914 69.402C83.3524 69.6127 83.3617 69.835 83.3182 70.05C83.2748 70.265 83.18 70.4664 83.042 70.6369C82.9039 70.8074 82.7267 70.9419 82.5254 71.0291C82.3242 71.1163 82.1047 71.1536 81.886 71.1377C80.0606 71.1377 78.2296 71.1713 76.3987 71.1377C76.1749 71.1113 75.9488 71.161 75.7568 71.2789C75.5648 71.3967 75.4181 71.5758 75.3404 71.7873C74.9209 72.6405 74.2386 73.3366 73.394 73.773C72.5493 74.2095 71.5868 74.3633 70.6482 74.2118C69.7398 74.06 68.8991 73.6354 68.238 72.9942C67.5768 72.3531 67.1266 71.5259 66.947 70.6226C66.7533 69.6595 66.8853 68.6595 67.3222 67.7797C67.7591 66.8998 68.476 66.1902 69.3603 65.7624C69.5571 65.6893 69.7232 65.5512 69.8311 65.371C69.939 65.1909 69.9823 64.9794 69.9538 64.7713C69.9538 62.9739 69.9538 61.171 69.9538 59.368C69.9538 58.0857 71.1297 57.3354 72.0592 58.0241C72.4225 58.3333 72.653 58.7704 72.7031 59.2448C72.7982 60.1967 72.7367 61.1598 72.7367 62.1173L72.7591 62.1285ZM73.0726 69.8219C73.0833 69.3811 72.9201 68.9537 72.6184 68.6321C72.3167 68.3105 71.9007 68.1204 71.46 68.1029C71.2351 68.0876 71.0094 68.1186 70.797 68.1941C70.5845 68.2696 70.3898 68.3879 70.225 68.5417C70.0601 68.6955 69.9287 68.8816 69.8387 69.0883C69.7487 69.295 69.7021 69.5181 69.7018 69.7435C69.6881 70.1844 69.8484 70.613 70.148 70.9367C70.4477 71.2605 70.8626 71.4533 71.3032 71.4737C71.5289 71.4858 71.7547 71.4522 71.9671 71.3749C72.1795 71.2977 72.3742 71.1784 72.5394 71.0242C72.7046 70.87 72.8369 70.684 72.9285 70.4774C73.0202 70.2708 73.0692 70.0479 73.0726 69.8219Z" fill="#FF4E43"/>
<path d="M61.4652 58.6122C61.2692 58.8754 61.0621 59.4129 60.6981 59.5753C60.4686 59.6703 60.2214 59.715 59.9731 59.7063C59.7249 59.6976 59.4814 59.6358 59.2591 59.5249C58.6046 59.0511 58.0218 58.4853 57.5289 57.8451C57.322 57.6105 57.213 57.3055 57.2245 56.9929C57.2359 56.6803 57.367 56.3841 57.5905 56.1653C57.9993 55.6782 58.6264 55.4094 59.1359 55.7957C59.9042 56.4408 60.623 57.1427 61.2861 57.8955C61.3925 57.9963 61.3812 58.2202 61.4652 58.6122Z" fill="#FF4E43"/>
<path d="M85.5422 82.7059C85.3519 82.9635 85.1447 83.5066 84.7807 83.6634C84.5513 83.7579 84.3044 83.8028 84.0564 83.795C83.8084 83.7873 83.5648 83.7272 83.3417 83.6186C82.69 83.1433 82.1094 82.5777 81.6171 81.9388C81.5027 81.8282 81.4131 81.6946 81.3544 81.5467C81.2956 81.3988 81.2691 81.2401 81.2765 81.0812C81.2839 80.9222 81.3252 80.7667 81.3974 80.6249C81.4697 80.4832 81.5713 80.3584 81.6955 80.259C82.0819 79.9566 82.9049 79.6991 83.2073 79.8895C83.9993 80.5054 84.7254 81.2015 85.3742 81.9668C85.4806 82.09 85.4638 82.314 85.5422 82.7059Z" fill="#FF4E43"/>
<path d="M72.7423 52.7441C72.7615 53.1172 72.7615 53.491 72.7423 53.864C72.728 54.1879 72.5898 54.4939 72.3565 54.7189C72.1231 54.944 71.8123 55.0709 71.4881 55.0734C71.329 55.1055 71.165 55.1045 71.0064 55.0704C70.8477 55.0363 70.6978 54.97 70.5659 54.8754C70.4341 54.7808 70.3231 54.6601 70.24 54.5208C70.1568 54.3815 70.1033 54.2265 70.0826 54.0656C69.9679 53.179 69.9679 52.2813 70.0826 51.3947C70.1041 51.2339 70.1582 51.0792 70.2415 50.9401C70.3248 50.8009 70.4356 50.6803 70.5672 50.5854C70.6987 50.4905 70.8482 50.4235 71.0065 50.3884C71.1649 50.3533 71.3287 50.3508 71.4881 50.3812C71.8132 50.3881 72.1235 50.5188 72.3556 50.7467C72.5876 50.9746 72.7239 51.2825 72.7367 51.6075C72.7586 51.986 72.7604 52.3654 72.7423 52.7441Z" fill="#FF4E43"/>
<path d="M54.3653 71.149C53.9845 71.149 53.6094 71.149 53.2454 71.149C52.9208 71.1378 52.6125 71.0038 52.3828 70.7741C52.1531 70.5445 52.0191 70.2361 52.008 69.9115C51.975 69.7522 51.9749 69.5879 52.0078 69.4286C52.0407 69.2693 52.1058 69.1183 52.1991 68.9851C52.2925 68.8519 52.4121 68.7392 52.5506 68.654C52.6892 68.5687 52.8437 68.5127 53.0047 68.4893C53.8913 68.3745 54.7889 68.3745 55.6755 68.4893C55.8438 68.5111 56.0055 68.5682 56.1501 68.657C56.2948 68.7457 56.419 68.864 56.5147 69.0041C56.6104 69.1442 56.6754 69.303 56.7054 69.47C56.7355 69.637 56.7299 69.8084 56.689 69.9731C56.6677 70.2959 56.5246 70.5987 56.2887 70.8201C56.0527 71.0415 55.7415 71.165 55.418 71.1657C55.0708 71.1657 54.7237 71.1657 54.3765 71.1657L54.3653 71.149Z" fill="#FF4E43"/>
<path d="M88.2972 71.149C87.978 71.149 87.6588 71.149 87.3452 71.149C87.1766 71.1497 87.0096 71.1171 86.8537 71.0529C86.6978 70.9887 86.5561 70.8943 86.4369 70.7751C86.3177 70.6558 86.2232 70.5142 86.1591 70.3583C86.0949 70.2024 86.0623 70.0353 86.063 69.8667C86.0361 69.7068 86.0418 69.543 86.0797 69.3853C86.1177 69.2275 86.1871 69.0791 86.2838 68.9489C86.3806 68.8186 86.5027 68.7093 86.6427 68.6275C86.7828 68.5456 86.938 68.4929 87.0989 68.4725C87.9858 68.3633 88.8828 68.3633 89.7698 68.4725C89.9302 68.4971 90.0839 68.5542 90.2213 68.6405C90.3588 68.7268 90.4771 68.8404 90.5689 68.9742C90.6608 69.108 90.7242 69.2593 90.7553 69.4186C90.7864 69.5779 90.7845 69.7418 90.7497 69.9003C90.7411 70.2253 90.6078 70.5345 90.3774 70.7638C90.147 70.9932 89.8372 71.1251 89.5122 71.1322C89.1146 71.1658 88.7059 71.1322 88.2972 71.1322V71.149Z" fill="#FF4E43"/>
<path d="M72.7423 86.8103C72.7617 87.1833 72.7617 87.5571 72.7423 87.9302C72.7321 88.255 72.5963 88.5632 72.3634 88.7899C72.1304 89.0165 71.8187 89.1439 71.4937 89.1452C71.3351 89.1774 71.1716 89.1767 71.0133 89.1434C70.855 89.1101 70.7052 89.0447 70.573 88.9514C70.4409 88.8581 70.3292 88.7387 70.2449 88.6006C70.1606 88.4626 70.1053 88.3087 70.0826 88.1485C69.9704 87.2618 69.9704 86.3644 70.0826 85.4777C70.1042 85.3167 70.1582 85.1619 70.2415 85.0225C70.3247 84.8831 70.4354 84.7621 70.5668 84.6668C70.6983 84.5715 70.8477 84.5039 71.006 84.4681C71.1644 84.4323 71.3284 84.429 71.4881 84.4585C71.8132 84.4612 72.1248 84.5888 72.3584 84.8151C72.5919 85.0413 72.7294 85.3487 72.7423 85.6736C72.7703 86.0544 72.7423 86.4519 72.7423 86.8103Z" fill="#FF4E43"/>
<path d="M82.4794 59.8608C82.2275 59.6592 81.6955 59.4296 81.5555 59.0545C81.4736 58.8201 81.4407 58.5715 81.459 58.3239C81.4773 58.0764 81.5463 57.8352 81.6619 57.6155C82.1286 56.9843 82.6786 56.4192 83.2969 55.9357C83.5273 55.7279 83.8266 55.6129 84.1368 55.6129C84.4471 55.6129 84.7463 55.7279 84.9767 55.9357C85.1048 56.0098 85.217 56.1085 85.3068 56.2262C85.3965 56.3439 85.462 56.4783 85.4995 56.6215C85.5369 56.7647 85.5457 56.9139 85.5252 57.0605C85.5046 57.207 85.4552 57.3481 85.3798 57.4755C84.721 58.2706 83.9961 59.0086 83.2129 59.6816C83.1065 59.816 82.8826 59.788 82.4794 59.8608Z" fill="#FF4E43"/>
<path d="M61.5605 80.9926C61.4286 81.3616 61.2558 81.7147 61.0454 82.0453C60.5906 82.5709 60.1005 83.0648 59.5783 83.5235C59.3248 83.7675 58.9867 83.9037 58.6349 83.9037C58.283 83.9037 57.9449 83.7675 57.6914 83.5235C57.5563 83.401 57.4475 83.2523 57.3718 83.0865C57.296 82.9206 57.2547 82.7411 57.2505 82.5588C57.2463 82.3765 57.2793 82.1953 57.3474 82.0261C57.4155 81.857 57.5173 81.7035 57.6466 81.575C58.0715 81.0248 58.5731 80.5382 59.136 80.1303C59.5992 79.8811 60.1402 79.819 60.6478 79.9567C61.0174 80.0743 61.2526 80.6231 61.5605 80.9926Z" fill="#FF4E43"/>
<path d="M87.9667 29.8989H96.069C96.3587 29.8876 96.6488 29.8989 96.9368 29.9325C97.2605 29.9609 97.5613 30.1116 97.7777 30.354C97.9941 30.5965 98.1099 30.9123 98.1015 31.2371C98.1345 31.5465 98.0512 31.857 97.8681 32.1084C97.685 32.3598 97.4149 32.5342 97.1104 32.5977C96.8 32.6671 96.482 32.6972 96.1641 32.6873H79.7973C79.537 32.7008 79.276 32.6859 79.019 32.6426C78.6806 32.6006 78.3727 32.4261 78.1628 32.1573C77.9528 31.8886 77.858 31.5476 77.8991 31.2091C77.8962 31.0401 77.927 30.8722 77.99 30.7153C78.0529 30.5585 78.1467 30.4159 78.2657 30.2958C78.3847 30.1758 78.5266 30.0808 78.6829 30.0165C78.8392 29.9521 79.0068 29.9198 79.1758 29.9213C79.6909 29.8821 80.2173 29.9213 80.738 29.9213L87.9667 29.8989Z" fill="#FF4E43"/>
<path d="M87.8996 38.9081C85.0999 38.9081 82.3003 38.9081 79.5398 38.9081C79.2348 38.9492 78.9246 38.8954 78.6511 38.7542C78.3777 38.613 78.1543 38.3911 78.0112 38.1187C77.9207 37.9356 77.8726 37.7344 77.8708 37.5301C77.8689 37.3258 77.9133 37.1238 78.0005 36.9391C78.0878 36.7544 78.2156 36.5918 78.3745 36.4635C78.5335 36.3352 78.7194 36.2444 78.9183 36.1981C79.2595 36.1324 79.607 36.1061 79.9542 36.1197H96.0634C96.265 36.1197 96.4722 36.1197 96.6737 36.1197C96.8631 36.1159 97.0512 36.1502 97.227 36.2204C97.4029 36.2906 97.563 36.3954 97.6976 36.5285C97.8323 36.6616 97.9389 36.8204 98.0112 36.9954C98.0834 37.1704 98.1199 37.3582 98.1183 37.5475C98.1146 37.7375 98.0717 37.9246 97.9922 38.0971C97.9126 38.2696 97.7983 38.4238 97.6563 38.55C97.5143 38.6762 97.3478 38.7717 97.1671 38.8304C96.9864 38.8892 96.7956 38.91 96.6066 38.8914C93.7005 38.9194 90.8 38.9081 87.8996 38.9081Z" fill="#FF4E43"/>
<path d="M87.9725 45.1459H79.6127C78.4929 45.1459 77.8881 44.6363 77.8881 43.7573C77.8881 42.8782 78.5153 42.3574 79.6127 42.3574H96.4107C97.4745 42.3574 98.1353 42.9173 98.0905 43.802C98.0457 44.6867 97.4297 45.1291 96.4107 45.1459H87.9613H87.9725Z" fill="#FF4E43"/>
</svg>
