<svg width="124" height="124" viewBox="0 0 124 124" fill="none" xmlns="http://www.w3.org/2000/svg">
<rect width="124" height="124" rx="62" fill="#FFF9E7"/>
<path d="M105.622 74.4981C105.382 74.88 105.046 75.1918 104.647 75.402C104.248 75.6122 103.801 75.7133 103.35 75.695C101.794 75.8176 100.33 76.4839 99.2156 77.5771C98.1011 78.6703 97.4068 80.1208 97.2542 81.6744C97.1655 82.8936 97.2264 84.1238 97.1322 85.343C96.9564 87.3507 96.0197 89.2153 94.5138 90.5547C93.0079 91.8942 91.0469 92.6072 89.0324 92.5477C87.0179 92.4882 85.1024 91.6607 83.6782 90.2347C82.2539 88.8087 81.4288 86.8921 81.3719 84.8775C81.3165 79.1475 81.3719 73.423 81.3719 67.6985C81.384 66.1647 80.7968 64.6867 79.7354 63.5794C78.6739 62.4721 77.2222 61.8229 75.6892 61.7702C74.1562 61.7174 72.6633 62.2653 71.5282 63.297C70.3932 64.3288 69.7059 65.7629 69.6125 67.2939C69.5793 68.1196 69.6125 68.9564 69.6125 69.7766C69.6258 70.0093 69.5914 70.2422 69.5115 70.4612C69.4316 70.6801 69.3077 70.8804 69.1477 71.0498C68.9876 71.2193 68.7947 71.3542 68.5807 71.4464C68.3666 71.5387 68.136 71.5863 67.9029 71.5863C67.6698 71.5863 67.4393 71.5387 67.2252 71.4464C67.0112 71.3542 66.8182 71.2193 66.6581 71.0498C66.4981 70.8804 66.3743 70.6801 66.2944 70.4612C66.2145 70.2422 66.1801 70.0093 66.1933 69.7766C66.1268 67.4325 66.1601 65.1105 67.3903 62.9825C68.3984 61.1923 69.9706 59.7861 71.8617 58.9832C73.7529 58.1803 75.8565 58.0259 77.8446 58.5442C79.8327 59.0624 81.5934 60.2241 82.852 61.848C84.1106 63.4719 84.7962 65.4666 84.8021 67.5211C84.852 73.0627 84.8021 78.6044 84.8021 84.1904C84.7947 84.7499 84.8562 85.3083 84.985 85.8528C85.2673 86.8552 85.8908 87.7274 86.748 88.3187C87.6051 88.91 88.6419 89.1833 89.6791 89.0912C90.7163 88.9992 91.6888 88.5477 92.4284 87.8147C93.168 87.0818 93.6283 86.1134 93.7297 85.077C93.8349 83.8579 93.7685 82.6276 93.8572 81.4085C94.0882 78.991 95.1759 76.7358 96.9237 75.0499C98.6716 73.364 100.965 72.3586 103.389 72.2149C104.447 72.165 105.223 72.4643 105.672 73.4507L105.622 74.4981Z" fill="#FFCD42"/>
<path d="M49.2138 87.4488C49.9176 88.8453 50.5161 90.275 51.3086 91.5828C52.226 93.0398 53.5881 94.1627 55.1933 94.7856C56.7984 95.4084 58.5615 95.4981 60.2215 95.0413C61.8816 94.5845 63.3505 93.6055 64.411 92.2491C65.4715 90.8927 66.0673 89.231 66.1102 87.5098C66.1102 86.745 66.1102 85.9747 66.1102 85.2044C66.097 84.9725 66.1313 84.7402 66.211 84.522C66.2906 84.3037 66.4139 84.1041 66.5735 83.9352C66.733 83.7663 66.9254 83.6317 67.1387 83.5398C67.3521 83.4478 67.582 83.4004 67.8143 83.4004C68.0467 83.4004 68.2765 83.4478 68.4898 83.5398C68.7032 83.6317 68.8956 83.7663 69.0551 83.9352C69.2146 84.1041 69.338 84.3037 69.4177 84.522C69.4974 84.7402 69.5316 84.9725 69.5184 85.2044C69.5571 87.1717 69.6181 89.1445 68.8977 91.0287C67.1465 95.6171 63.8216 98.327 58.9228 98.6983C54.024 99.0696 50.3831 96.9305 47.9559 92.7023C47.3075 91.5939 46.7866 90.3637 46.238 89.1722C46.1831 89.0004 46.0629 88.857 45.9032 88.773C45.7435 88.689 45.5572 88.6712 45.3845 88.7233C40.7684 89.2775 36.795 86.8337 35.1325 82.3837C32.8438 76.288 30.5939 70.1922 28.2942 64.0964C28.1062 63.641 27.7832 63.2543 27.3687 62.988C20.6744 58.9537 16.9671 51.0624 18.2527 43.5037C18.8989 39.6724 20.6704 36.1199 23.3417 33.2985C26.0131 30.4771 29.4636 28.5145 33.2539 27.6602C35.6064 27.2164 38.0117 27.123 40.3915 27.3831C47.18 27.8985 53.9685 28.3805 60.7626 28.8737C64.3702 29.1397 67.9667 29.3947 71.5854 29.6829C72.4892 29.7797 73.4029 29.6442 74.2398 29.2894C76.6615 28.2309 79.1164 27.2445 81.5603 26.2304C83.1175 25.5876 84.2313 26.3246 84.2369 28.0093C84.2369 35.6789 84.2369 43.3467 84.2369 51.0126C84.2369 52.6751 83.1286 53.3733 81.5991 52.7914C78.9613 51.7995 76.3346 50.7798 73.6968 49.8045C73.2775 49.633 72.8238 49.5628 72.3723 49.5995C67.0856 50.2367 61.8044 50.9184 56.5177 51.5557C56.3116 51.5579 56.1127 51.6323 55.9558 51.7659C55.7988 51.8996 55.6937 52.084 55.6587 52.2871C54.4777 56.1003 52.1161 59.44 48.9145 61.8243C48.812 61.8767 48.7211 61.9493 48.6473 62.0377C48.5736 62.1261 48.5185 62.2285 48.4853 62.3388C48.4522 62.4491 48.4417 62.5649 48.4545 62.6794C48.4674 62.7938 48.5032 62.9045 48.5599 63.0047C50.0008 67.0833 51.3308 71.2118 52.8547 75.2461C54.7222 80.0119 53.2814 84.6724 49.2138 87.4488ZM71.5743 33.1408C71.2917 33.0965 71.0478 33.041 70.7984 33.0189L60.6573 32.2819L45.0631 31.1735C42.3921 30.9796 39.7155 30.6193 37.05 30.6581C34.8387 30.7096 32.6625 31.222 30.6605 32.1623C28.6584 33.1027 26.8747 34.4504 25.4232 36.1194C23.9717 37.7884 22.8844 39.7419 22.2308 41.855C21.5773 43.9682 21.3718 46.1943 21.6276 48.3913C22.9132 60.0011 36.6288 66.2465 46.2213 59.5744C49.5359 57.3283 51.878 53.9112 52.7771 50.0095C52.9932 49.1118 53.4365 48.4911 54.3841 48.347C58.5958 47.8206 62.8019 47.3108 67.0135 46.7899C68.5319 46.6015 70.0448 46.4019 71.5743 46.2024V33.1408ZM45.3513 64.0021C41.2732 65.8179 36.6998 66.197 32.3783 65.0773L34.9884 72.0818C36.1799 75.2793 37.3215 78.4935 38.5795 81.6633C39.1175 82.9223 40.0637 83.9635 41.2656 84.6192C42.4675 85.2749 43.8552 85.5069 45.205 85.2777C46.5548 85.0486 47.7882 84.3717 48.7065 83.3561C49.6247 82.3405 50.1743 81.0454 50.2667 79.6794C50.32 79.0816 50.2656 78.4791 50.106 77.9005C48.5599 73.2788 46.9639 68.6903 45.3513 63.9855V64.0021ZM80.8177 30.2536C79.0444 30.9906 77.3487 31.7221 75.6363 32.3927C75.4363 32.4487 75.2644 32.5776 75.1546 32.754C75.0449 32.9305 75.0052 33.1416 75.0433 33.3459C75.0433 37.5021 75.0433 41.6583 75.0433 45.8201C75.0126 46.0537 75.0733 46.2902 75.2127 46.4801C75.3521 46.6701 75.5594 46.7989 75.7914 46.8397C77.2101 47.3496 78.6011 47.948 80.0087 48.4634C80.2581 48.5631 80.5185 48.6352 80.8288 48.7405L80.8177 30.2536Z" fill="#FFCD42"/>
<path d="M96.4894 32.8139C94.5831 32.8139 92.6767 32.8139 90.7759 32.8139C89.5235 32.8139 88.7477 32.1544 88.7367 31.1514C88.7256 30.1484 89.5235 29.4279 90.7537 29.4224C94.5959 29.4224 98.4345 29.4224 102.269 29.4224C102.714 29.375 103.161 29.4988 103.518 29.7684C103.875 30.0381 104.116 30.4334 104.192 30.8743C104.253 31.2423 104.188 31.6199 104.008 31.9466C103.828 32.2732 103.544 32.5299 103.2 32.6753C102.844 32.7948 102.468 32.8474 102.092 32.8305C100.241 32.8194 98.368 32.8139 96.4894 32.8139Z" fill="#FFCD42"/>
<path d="M96.4727 49.5329H90.7593C89.5456 49.5329 88.7366 48.8236 88.7421 47.8095C88.7476 46.7954 89.5456 46.1082 90.7703 46.1082H102.203C103.422 46.1082 104.225 46.8009 104.22 47.8206C104.214 48.8402 103.411 49.5274 102.192 49.5329H96.4727Z" fill="#FFCD42"/>
<path d="M94.0177 41.2205C92.8761 41.2205 91.7401 41.2205 90.5986 41.2205C90.3629 41.2395 90.1257 41.2095 89.9022 41.1324C89.6787 41.0552 89.4736 40.9326 89.2998 40.7722C89.126 40.6119 88.9873 40.4173 88.8924 40.2007C88.7975 39.9841 88.7486 39.7502 88.7486 39.5137C88.7486 39.2773 88.7975 39.0433 88.8924 38.8267C88.9873 38.6101 89.126 38.4155 89.2998 38.2552C89.4736 38.0948 89.6787 37.9722 89.9022 37.895C90.1257 37.8179 90.3629 37.7878 90.5986 37.8069C92.9076 37.7736 95.2147 37.7736 97.5201 37.8069C97.7564 37.7912 97.9934 37.8253 98.2157 37.9071C98.438 37.9889 98.6405 38.1164 98.8104 38.2815C98.9802 38.4466 99.1134 38.6456 99.2014 38.8655C99.2893 39.0854 99.3302 39.3214 99.3211 39.558C99.3211 40.5555 98.5951 41.2205 97.4425 41.2205C96.2898 41.2205 95.1537 41.2205 94.0177 41.2205Z" fill="#FDD161"/>
<path d="M69.535 77.5901C69.5418 77.8217 69.5015 78.0522 69.4163 78.2676C69.3312 78.4831 69.2031 78.679 69.0399 78.8433C68.8766 79.0077 68.6816 79.137 68.4667 79.2236C68.2518 79.3102 68.0216 79.3521 67.79 79.3469C67.5584 79.3416 67.3304 79.2892 67.1197 79.193C66.9089 79.0967 66.7201 78.9586 66.5645 78.787C66.4089 78.6153 66.2898 78.4139 66.2146 78.1948C66.1394 77.9757 66.1095 77.7436 66.1269 77.5126C66.1596 77.0765 66.3585 76.6697 66.6824 76.376C67.0063 76.0823 67.4306 75.9241 67.8678 75.9341C68.3049 75.944 68.7215 76.1214 69.0317 76.4295C69.3419 76.7377 69.5221 77.1531 69.535 77.5901Z" fill="#FDD161"/>
<path d="M27.9173 46.3963C27.9261 44.5317 28.4881 42.7116 29.532 41.1666C30.576 39.6216 32.055 38.4211 33.7817 37.7172C35.5083 37.0133 37.405 36.8377 39.2316 37.2125C41.0582 37.5873 42.7325 38.4958 44.0425 39.8228C45.3524 41.1498 46.2391 42.8358 46.5902 44.6671C46.9413 46.4983 46.7411 48.3926 46.0148 50.1101C45.2886 51.8275 44.0691 53.2907 42.5107 54.3146C40.9522 55.3384 39.125 55.8768 37.2605 55.8615C34.7677 55.841 32.3846 54.8332 30.6334 53.0591C28.8821 51.285 27.9055 48.8891 27.9173 46.3963ZM31.3475 46.4739C31.3532 47.6648 31.7126 48.8271 32.3803 49.8133C33.0479 50.7994 33.9936 51.5648 35.0972 52.0123C36.2009 52.4599 37.4126 52.5692 38.5785 52.3266C39.7444 52.0839 40.8119 51.5002 41.6454 50.6496C42.4788 49.799 43.0406 48.7198 43.2594 47.5491C43.4782 46.3785 43.3441 45.1693 42.8742 44.075C42.4043 42.9808 41.6197 42.0509 40.6201 41.4035C39.6206 40.7561 38.4512 40.4204 37.2605 40.4391C35.6765 40.4566 34.1643 41.1019 33.0557 42.2334C31.9471 43.3648 31.3327 44.8899 31.3475 46.4739Z" fill="#FDD161"/>
</svg>
