<svg width="124" height="124" viewBox="0 0 124 124" fill="none" xmlns="http://www.w3.org/2000/svg">
<rect width="124" height="124" rx="62" fill="#FFF5EE"/>
<path d="M79.5994 23C79.8264 23.2285 80.0196 23.4882 80.1732 23.7712C80.4755 24.6226 79.8894 25.2828 78.8529 25.2828H63.5395C63.0082 25.2794 62.4776 25.3228 61.9539 25.4124C60.5505 25.6508 59.2745 26.3719 58.3463 27.4511C57.4181 28.5303 56.8959 29.8998 56.87 31.323C56.8145 35.6418 56.87 39.9607 56.87 44.2795C56.9001 44.5917 57.0479 44.8807 57.2834 45.0878C58.1372 45.7756 58.8208 46.6512 59.2809 47.6464C59.7411 48.6416 59.9654 49.7296 59.9364 50.8256C59.9364 54.7866 59.9364 58.7476 59.9364 62.7086C59.9364 63.2453 60.0659 63.6032 60.5965 63.7204C61.5154 63.9863 62.4574 64.1639 63.4099 64.251C67.8028 64.3065 72.1957 64.251 76.5947 64.251C77.878 64.251 78.2112 64.5965 78.2174 65.8798V69.7792C78.532 69.5509 78.748 69.4089 78.9516 69.2485C80.8889 67.7739 82.8324 66.3055 84.7511 64.8001C85.2207 64.4105 85.82 64.2122 86.4293 64.2448C87.4165 64.2448 88.4098 64.2448 89.397 64.2448C93.2778 64.2448 95.9493 61.5671 95.9554 57.6802C95.9554 50.3629 95.9554 43.0517 95.9554 35.7406C95.9554 34.3647 95.9554 32.995 95.9554 31.6253C95.9643 30.7812 95.8019 29.944 95.4781 29.1644C95.1542 28.3848 94.6756 27.6789 94.0712 27.0895C93.4668 26.5001 92.7492 26.0394 91.9617 25.7353C91.1742 25.4311 90.3332 25.2898 89.4895 25.3198C88.6011 25.3198 87.7126 25.3198 86.8242 25.3198C86.2072 25.3198 85.5902 25.3198 85.2941 24.6226C85.1919 24.3343 85.1906 24.0199 85.2904 23.7308C85.3901 23.4416 85.585 23.1949 85.8432 23.0309H90.7235C91.3775 23.216 92.0438 23.364 92.6793 23.5984C94.2857 24.1719 95.6785 25.2226 96.6709 26.6098C97.6634 27.997 98.2081 29.6545 98.2321 31.3601C98.2691 40.3227 98.2691 49.2873 98.2321 58.254C98.1909 60.4529 97.2987 62.5501 95.743 64.1046C94.1873 65.6591 92.0894 66.5498 89.8906 66.5894C89.7142 66.6079 89.5363 66.6079 89.36 66.5894C87.145 66.2315 85.3866 67.0212 83.727 68.4896C81.9439 70.0691 79.9572 71.4141 78.0631 72.8701C77.8837 73.0681 77.6476 73.2058 77.3869 73.2643C77.1262 73.3229 76.8539 73.2994 76.6071 73.1972C75.9901 72.9072 75.9284 72.3889 75.9284 71.7904C75.9284 70.0999 75.9284 68.4033 75.9284 66.6758C70.5915 66.2994 65.2794 67.0891 59.9919 66.1574V71.8892H60.831C63.6752 71.8892 66.5257 71.9941 69.3638 71.8892C73.0656 71.7288 75.6754 74.2646 75.4471 78.022C75.3546 79.5706 75.4471 81.1068 75.4471 82.6739C75.469 82.8651 75.4414 83.0587 75.3669 83.2361C75.2925 83.4136 75.1737 83.5689 75.0219 83.6872C74.8702 83.8055 74.6906 83.8828 74.5003 83.9117C74.3101 83.9406 74.1156 83.9202 73.9356 83.8523C73.3186 83.6611 73.1705 83.1737 73.1705 82.6184C73.1705 80.9649 73.1705 79.3176 73.1705 77.6826C73.1705 75.4121 72.0168 74.2522 69.7525 74.2461H55.7101C53.4273 74.2461 52.2735 75.3874 52.2674 77.6517C52.2674 82.3284 52.2674 87.0031 52.2674 91.6756C52.2674 93.8782 53.4581 95.0443 55.6669 95.0443H62.8053C64.249 95.0443 64.539 95.3342 64.5452 96.778V97.5801C64.7735 97.4505 64.94 97.3703 65.0881 97.2654C65.5188 96.9636 65.9309 96.636 66.3221 96.2844C66.7783 95.8032 67.3365 95.4303 67.9558 95.1933C68.5751 94.9562 69.2396 94.8611 69.9005 94.9148C71.807 95.0258 73.0348 93.7363 73.0903 91.8299C73.0903 91.2129 73.0903 90.5589 73.0903 89.9296C73.0818 89.7821 73.1051 89.6345 73.1587 89.4968C73.2122 89.3591 73.2947 89.2346 73.4006 89.1316C73.5066 89.0286 73.6334 88.9496 73.7725 88.8999C73.9116 88.8503 74.0598 88.831 74.207 88.8437C74.3542 88.8249 74.5036 88.8392 74.6446 88.8854C74.7855 88.9316 74.9144 89.0085 75.0219 89.1107C75.1294 89.2129 75.2128 89.3377 75.2661 89.4762C75.3194 89.6146 75.3412 89.7631 75.3299 89.911C75.3885 91.048 75.3223 92.188 75.1325 93.3106C74.8792 94.4377 74.2438 95.4424 73.334 96.1543C72.4242 96.8662 71.2961 97.2413 70.1412 97.2161C69.6544 97.1928 69.1679 97.2658 68.7094 97.4309C68.251 97.5961 67.8297 97.8502 67.4696 98.1785C66.2974 99.178 65.0573 100.097 63.848 101.054H62.9842C62.7114 100.85 62.499 100.576 62.3697 100.261C62.2404 99.9455 62.199 99.6012 62.25 99.2644C62.2994 98.6474 62.25 97.9934 62.25 97.2469H55.4633C52.2057 97.2469 49.9784 95.0196 49.9599 91.6941C49.9599 87.8071 49.9599 83.9202 49.9599 80.0333V79.1139C49.6205 79.3607 49.4046 79.5026 49.201 79.6631C47.6277 80.897 46.0606 82.0754 44.4935 83.2971C44.3128 83.4951 44.0759 83.6331 43.8145 83.6927C43.5532 83.7522 43.2798 83.7305 43.0312 83.6302C42.4143 83.3464 42.3464 82.8158 42.3526 82.2235C42.3526 80.9896 42.3526 79.7556 42.3526 78.3983H41.3901C38.3422 78.3983 35.2943 78.3983 32.2403 78.3983C28.5385 78.3613 25.7806 76.1155 25.1081 72.6604C25.0416 72.2857 25.0085 71.9058 25.0094 71.5252C25.0094 67.7123 25.0094 63.9014 25.0094 60.0926C25.0094 59.1671 25.4844 58.7106 26.2927 58.797C26.9096 58.8648 27.2798 59.2905 27.286 60.0926C27.286 61.3636 27.286 62.6346 27.286 63.9055C27.286 66.2932 27.286 68.6809 27.286 71.0686C27.286 74.1535 29.2171 76.0969 32.3329 76.1093C35.8373 76.1093 39.3417 76.1093 42.8215 76.1093C44.333 76.1093 44.6107 76.3869 44.6169 77.88V80.2307C44.876 80.0703 45.0426 79.9839 45.1968 79.8729C46.6837 78.7253 48.1768 77.5838 49.6514 76.4178C49.8763 76.227 50.043 75.9769 50.1326 75.6959C50.4394 74.6246 51.0798 73.6791 51.9608 72.9967C52.8418 72.3143 53.9174 71.9307 55.0314 71.9015C55.8582 71.8583 56.6911 71.9015 57.6165 71.9015V70.9761C57.6165 64.2963 57.6165 57.6165 57.6165 50.9367C57.6165 47.8518 55.6422 45.8898 52.5635 45.8898H32.3082C29.2542 45.8898 27.3045 47.8395 27.286 50.8812C27.286 51.5413 27.286 52.2015 27.286 52.8617C27.286 53.7131 26.8541 54.1511 26.1137 54.1388C25.3734 54.1264 25.0032 53.7316 25.0155 52.9048C24.9697 51.6684 25.0254 50.4303 25.1821 49.203C25.4691 47.6504 26.2885 46.2466 27.4991 45.2331C28.7097 44.2195 30.2358 43.6597 31.8146 43.6502C38.9283 43.607 46.0421 43.6502 53.1558 43.6502C53.5815 43.6502 54.0072 43.7304 54.5255 43.7798C54.5255 43.496 54.5625 43.2306 54.5687 42.9653C54.5687 39.3622 54.5687 35.7529 54.5687 32.1497C54.5687 27.3311 57.16 24.1291 61.8737 23.1666C61.9437 23.1403 62.0101 23.105 62.0711 23.0617L79.5994 23Z" fill="#FFB774"/>
<path d="M46.3937 59.9136L45.9187 62.7147H48.6827C49.1393 62.7147 49.5959 62.7147 50.0524 62.7147C50.3535 62.7147 50.6423 62.8343 50.8552 63.0472C51.068 63.2601 51.1877 63.5488 51.1877 63.8499C51.1877 64.151 51.068 64.4398 50.8552 64.6527C50.6423 64.8656 50.3535 64.9852 50.0524 64.9852C48.985 64.9852 47.9177 64.9852 46.8503 64.9852C45.5362 64.9852 45.5423 64.9852 45.3326 66.2809C45.1906 67.2125 45.0426 68.1318 44.8698 69.0572C44.8598 69.2167 44.8157 69.3722 44.7405 69.5132C44.6653 69.6542 44.5607 69.7773 44.4338 69.8744C44.3069 69.9715 44.1606 70.0402 44.0049 70.0759C43.8491 70.1117 43.6875 70.1135 43.531 70.0814C43.3741 70.0514 43.2251 69.9892 43.0933 69.8988C42.9616 69.8084 42.8499 69.6918 42.7653 69.5563C42.6808 69.4207 42.6251 69.2692 42.6018 69.1111C42.5786 68.953 42.5882 68.7918 42.6302 68.6377C42.8091 67.5148 43.0004 66.3857 43.1855 65.2628C43.1911 65.191 43.1911 65.1188 43.1855 65.0469H40.4646C40.2507 66.3096 40.0451 67.5765 39.8476 68.8475C39.6934 69.7668 39.1875 70.2172 38.4533 70.0814C37.7191 69.9457 37.4414 69.3595 37.5833 68.4772C37.7684 67.3544 37.9659 66.2315 38.2003 64.9852H35.7324C35.4037 65.0068 35.0739 65.0068 34.7452 64.9852C34.5984 64.98 34.4542 64.9448 34.3214 64.8819C34.1887 64.819 34.0702 64.7296 33.9731 64.6193C33.8761 64.509 33.8026 64.38 33.7571 64.2403C33.7117 64.1006 33.6952 63.9531 33.7087 63.8068C33.7046 63.6688 33.7279 63.5314 33.7773 63.4026C33.8268 63.2737 33.9012 63.1559 33.9965 63.056C34.0918 62.9562 34.2059 62.8762 34.3323 62.8208C34.4588 62.7653 34.5949 62.7356 34.7329 62.7332C35.7756 62.7024 36.8183 62.6962 37.8548 62.7332C38.3484 62.7332 38.5952 62.6345 38.6384 62.1163C38.6877 61.4438 38.842 60.7713 38.9777 59.9569H36.3555C35.8496 59.9569 35.3375 59.9569 34.8316 59.9569C34.6792 59.967 34.5262 59.9457 34.3824 59.894C34.2386 59.8424 34.1069 59.7617 33.9958 59.6569C33.8846 59.5521 33.7962 59.4254 33.7362 59.2848C33.6762 59.1443 33.6458 58.9929 33.647 58.8401C33.6435 58.6863 33.6716 58.5335 33.7296 58.391C33.7876 58.2485 33.8742 58.1195 33.9841 58.0119C34.094 57.9043 34.2249 57.8204 34.3685 57.7655C34.5122 57.7106 34.6656 57.6857 34.8193 57.6925C36.0532 57.6617 37.2563 57.6925 38.4779 57.6925H39.3602C39.57 56.4586 39.7674 55.2246 39.9772 54.0523C40.0142 53.8549 40.0451 53.6513 40.1006 53.4354C40.1273 53.2908 40.1834 53.1534 40.2654 53.0315C40.3475 52.9095 40.4537 52.8057 40.5774 52.7264C40.7012 52.6472 40.8399 52.5942 40.985 52.5708C41.1301 52.5473 41.2785 52.5539 41.4209 52.5901C41.5632 52.6058 41.7006 52.6512 41.8241 52.7236C41.9477 52.7959 42.0545 52.8935 42.1378 53.01C42.2211 53.1264 42.2788 53.2591 42.3073 53.3994C42.3358 53.5397 42.3344 53.6844 42.3032 53.8241C42.1428 55.058 41.9268 56.329 41.6862 57.6802C42.5068 57.6802 43.2904 57.711 44.0677 57.6802C44.2282 57.6802 44.4626 57.347 44.4996 57.1372C44.7217 56.0205 44.8822 54.8853 45.0858 53.7624C45.2523 52.8801 45.7459 52.4853 46.4678 52.621C47.1896 52.7567 47.4611 53.312 47.3254 54.1449L46.7516 57.7049C47.7449 57.7049 48.6766 57.7049 49.6082 57.7049C49.8859 57.6922 50.164 57.7171 50.4349 57.7789C50.6422 57.8832 50.8118 58.0494 50.9203 58.2545C51.0287 58.4596 51.0706 58.6935 51.04 58.9235C51.0095 59.1535 50.9081 59.3682 50.7499 59.538C50.5917 59.7077 50.3846 59.8239 50.1573 59.8705C49.1887 59.8705 48.2262 59.8705 47.2637 59.8705L46.3937 59.9136ZM44.0554 59.9136C43.2102 59.9136 42.4328 59.9136 41.6554 59.9136C41.5675 59.933 41.4856 59.9734 41.4168 60.0315C41.348 60.0895 41.2944 60.1634 41.2605 60.2468C41.1063 61.0304 40.9952 61.8263 40.8656 62.6469H43.605L44.0554 59.9136Z" fill="#FFB774"/>
<path d="M69.2404 83.4204C69.2919 84.1802 69.1698 84.9417 68.8833 85.6472C68.5968 86.3527 68.1535 86.9837 67.5869 87.4925C66.2113 88.5926 64.769 89.6063 63.268 90.5279C63.0913 90.6146 62.8972 90.6596 62.7004 90.6596C62.5036 90.6596 62.3095 90.6146 62.1328 90.5279C60.7242 89.7322 59.3793 88.8288 58.1101 87.8257C57.2927 87.1833 56.6849 86.3123 56.3641 85.3235C56.0433 84.3346 56.0239 83.2727 56.3085 82.2729C56.4552 81.6591 56.7441 81.0883 57.1518 80.6065C57.5595 80.1248 58.0746 79.7456 58.6557 79.4995C59.2369 79.2534 59.8677 79.1472 60.4973 79.1895C61.127 79.2318 61.7379 79.4215 62.2809 79.7432C62.3883 79.8027 62.5072 79.8385 62.6296 79.848C62.752 79.8576 62.875 79.8409 62.9904 79.7988C63.623 79.4216 64.345 79.2203 65.0815 79.2157C65.8181 79.2111 66.5425 79.4034 67.1798 79.7727C67.8171 80.142 68.3441 80.6749 68.7064 81.3162C69.0687 81.9575 69.253 82.684 69.2404 83.4204ZM58.3446 83.6302L58.2273 83.7351C58.5667 84.4199 58.7579 85.259 59.2824 85.7587C60.2753 86.6145 61.3267 87.4 62.4289 88.1094C62.5024 88.1473 62.5838 88.1671 62.6665 88.1671C62.7491 88.1671 62.8306 88.1473 62.904 88.1094C64.0577 87.3379 65.1622 86.4951 66.211 85.586C66.5877 85.2195 66.8464 84.749 66.9541 84.2346C67.0618 83.7202 67.0136 83.1854 66.8156 82.6985C66.7136 82.3808 66.5207 82.0999 66.2609 81.8905C66.001 81.6811 65.6856 81.5523 65.3534 81.5201C65.0525 81.4622 64.741 81.4987 64.4615 81.6246C64.1821 81.7505 63.9484 81.9597 63.7925 82.2235C63.1014 83.2538 62.3487 83.2353 61.596 82.2235C61.4273 81.9686 61.1919 81.7648 60.9154 81.6344C60.6389 81.5039 60.332 81.4518 60.0279 81.4836C59.7239 81.5154 59.4344 81.6299 59.1909 81.8147C58.9474 81.9996 58.7592 82.2476 58.6469 82.532C58.5163 82.8892 58.4152 83.2565 58.3446 83.6302Z" fill="#FFB774"/>
<path d="M71.6219 56.9213C71.1743 57.1049 70.7061 57.2334 70.2275 57.3038C68.3766 57.347 66.5256 57.3038 64.6747 57.3038C63.6259 57.3038 63.2557 56.9337 63.2557 55.8787C63.2557 51.4611 63.2557 47.0436 63.2557 42.626C63.2557 41.571 63.6197 41.2131 64.6809 41.2069C66.4578 41.2069 68.2347 41.2069 70.0116 41.2069C70.5876 41.2649 71.1587 41.3639 71.7206 41.5031C72.825 40.1889 74.1885 38.7884 75.2559 37.1842C75.8296 36.3513 75.9777 35.2161 76.2739 34.2043C76.3973 33.7724 76.3417 33.2788 76.4898 32.8592C76.6305 32.4321 76.8975 32.0577 77.2555 31.7856C77.6136 31.5135 78.0458 31.3565 78.495 31.3353C78.9407 31.2785 79.3931 31.3613 79.7898 31.5723C80.1865 31.7834 80.508 32.1123 80.7099 32.5138C81.3493 33.6271 81.7361 34.8675 81.8427 36.1469C81.9493 37.4264 81.7732 38.7137 81.3269 39.9175C81.222 40.2198 81.111 40.5344 80.9752 40.9046H86.2997C88.3234 40.9046 89.5203 42.0954 89.5265 44.1129C89.5265 47.6173 89.5265 51.1135 89.5265 54.6015C89.5265 56.3784 88.416 57.6863 86.6699 57.6863C82.8076 57.7419 78.9515 57.7481 75.0954 57.6308C73.917 57.7234 72.7571 57.2113 71.6219 56.9213ZM78.6862 33.6675C78.6386 33.8316 78.6015 33.9985 78.5752 34.1672C78.4559 36.3953 77.5357 38.5054 75.9839 40.1087C74.6821 41.5339 73.3988 42.9776 72.1586 44.4275C71.8723 44.7912 71.7082 45.2361 71.6897 45.6985C71.6466 47.858 71.6897 50.0174 71.6897 52.1768C71.6897 54.0894 71.9797 54.546 73.8306 55.1629C74.5038 55.3865 75.2068 55.5071 75.916 55.5208C79.3464 55.5208 82.7768 55.5208 86.2072 55.5208C87.0956 55.5208 87.2622 55.3418 87.2622 54.441C87.2622 51.0662 87.2622 47.6544 87.2622 44.3042C87.2622 43.354 87.1326 43.2306 86.1393 43.2306H79.587C78.3037 43.2306 77.8287 42.5211 78.3099 41.3797C78.6245 40.6085 78.9824 39.8496 79.2477 39.0537C79.5491 38.1687 79.6549 37.2289 79.558 36.299C79.4611 35.3691 79.1637 34.4713 78.6862 33.6675ZM65.5817 54.9778H69.3452V43.5699H65.5817V54.9778Z" fill="#FFB774"/>
</svg>
