<svg width="40" height="40" viewBox="0 0 40 40" fill="none" xmlns="http://www.w3.org/2000/svg">
<rect width="40" height="40" rx="20" fill="#F2FFFA"/>
<path d="M14.6 27.4L15.95 24.025C16.085 23.68 16.3025 23.4061 16.6025 23.2033C16.9025 23.0005 17.24 22.8994 17.615 22.9H19.1V19.2775C16.805 19.2025 14.8811 18.865 13.3283 18.265C11.7755 17.665 10.9994 16.96 11 16.15C11 15.28 11.8775 14.5375 13.6325 13.9225C15.3875 13.3075 17.51 13 20 13C22.505 13 24.6314 13.3075 26.3792 13.9225C28.127 14.5375 29.0006 15.28 29 16.15C29 16.96 28.2236 17.665 26.6708 18.265C25.118 18.865 23.1944 19.2025 20.9 19.2775V22.9H22.385C22.745 22.9 23.0789 23.0014 23.3867 23.2042C23.6945 23.407 23.9156 23.6806 24.05 24.025L25.4 27.4H23.6L22.52 24.7H17.48L16.4 27.4H14.6ZM20 17.5C21.455 17.5 22.8275 17.3725 24.1175 17.1175C25.4075 16.8625 26.3525 16.54 26.9525 16.15C26.3525 15.76 25.4075 15.4375 24.1175 15.1825C22.8275 14.9275 21.455 14.8 20 14.8C18.545 14.8 17.1725 14.9275 15.8825 15.1825C14.5925 15.4375 13.6475 15.76 13.0475 16.15C13.6475 16.54 14.5925 16.8625 15.8825 17.1175C17.1725 17.3725 18.545 17.5 20 17.5Z" fill="#4E5861"/>
</svg>
