<svg width="50" height="50" viewBox="0 0 50 50" fill="none" xmlns="http://www.w3.org/2000/svg">
<circle cx="25" cy="25" r="24.5" stroke="#539E83" stroke-dasharray="4 4"/>
<path d="M36.977 17.8159C36.0919 18.2182 35.1379 18.4826 34.1494 18.609C35.1609 17.9998 35.9425 17.0343 36.3103 15.8734C35.3563 16.4481 34.2988 16.8504 33.1839 17.0803C32.2759 16.0918 31 15.5171 29.5517 15.5171C26.8506 15.5171 24.6437 17.724 24.6437 20.4481C24.6437 20.8389 24.6897 21.2182 24.7701 21.5746C20.6782 21.3677 17.0345 19.4021 14.6092 16.4251C14.1839 17.1493 13.9425 17.9998 13.9425 18.8964C13.9425 20.609 14.8046 22.1263 16.1379 22.9884C15.3218 22.9884 14.5632 22.7585 13.8965 22.4136V22.4481C13.8965 24.8389 15.5977 26.8389 17.8506 27.2872C17.1273 27.4851 16.3679 27.5127 15.6322 27.3677C15.9444 28.3475 16.5558 29.2049 17.3805 29.8193C18.2052 30.4337 19.2017 30.7742 20.2299 30.793C18.4869 32.1728 16.3264 32.9186 14.1034 32.9079C13.7126 32.9079 13.3218 32.8849 12.931 32.8389C15.1149 34.2412 17.7126 35.0573 20.4942 35.0573C29.5517 35.0573 34.5287 27.5401 34.5287 21.0228C34.5287 20.8044 34.5287 20.5975 34.5172 20.3792C35.4828 19.6895 36.3103 18.8159 36.977 17.8159Z" fill="#539E83"/>
</svg>